G75*
%MOIN*%
%OFA0B0*%
%FSLAX25Y25*%
%IPPOS*%
%LPD*%
%AMOC8*
5,1,8,0,0,1.08239X$1,22.5*
%
%ADD10C,0.00600*%
%ADD11C,0.00200*%
%ADD12C,0.00500*%
%ADD13C,0.00400*%
%ADD14C,0.00800*%
%ADD15C,0.00300*%
%ADD16C,0.00000*%
D10*
X0082394Y0044456D02*
X0082394Y0050862D01*
X0086665Y0050862D02*
X0086665Y0044456D01*
X0084530Y0046591D01*
X0082394Y0044456D01*
X0088840Y0044456D02*
X0090975Y0044456D01*
X0089908Y0044456D02*
X0089908Y0048726D01*
X0088840Y0048726D01*
X0089908Y0050862D02*
X0089908Y0051929D01*
X0094205Y0049794D02*
X0095272Y0050862D01*
X0094205Y0049794D02*
X0094205Y0044456D01*
X0097434Y0044456D02*
X0099569Y0044456D01*
X0098502Y0044456D02*
X0098502Y0048726D01*
X0097434Y0048726D01*
X0098502Y0050862D02*
X0098502Y0051929D01*
X0101731Y0050862D02*
X0101731Y0044456D01*
X0103866Y0046591D01*
X0106001Y0044456D01*
X0106001Y0050862D01*
X0108176Y0047659D02*
X0109244Y0048726D01*
X0111379Y0048726D01*
X0112447Y0047659D01*
X0112447Y0046591D01*
X0108176Y0046591D01*
X0108176Y0045524D02*
X0108176Y0047659D01*
X0108176Y0045524D02*
X0109244Y0044456D01*
X0111379Y0044456D01*
X0114622Y0045524D02*
X0115690Y0046591D01*
X0118892Y0046591D01*
X0118892Y0047659D02*
X0118892Y0044456D01*
X0115690Y0044456D01*
X0114622Y0045524D01*
X0115690Y0048726D02*
X0117825Y0048726D01*
X0118892Y0047659D01*
X0121067Y0048726D02*
X0123203Y0048726D01*
X0122135Y0049794D02*
X0122135Y0045524D01*
X0123203Y0044456D01*
X0125364Y0044456D02*
X0125364Y0050862D01*
X0126432Y0048726D02*
X0128567Y0048726D01*
X0129635Y0047659D01*
X0129635Y0044456D01*
X0131810Y0045524D02*
X0131810Y0047659D01*
X0132878Y0048726D01*
X0135013Y0048726D01*
X0136080Y0047659D01*
X0136080Y0046591D01*
X0131810Y0046591D01*
X0131810Y0045524D02*
X0132878Y0044456D01*
X0135013Y0044456D01*
X0138255Y0044456D02*
X0138255Y0048726D01*
X0138255Y0046591D02*
X0140391Y0048726D01*
X0141458Y0048726D01*
X0143627Y0049794D02*
X0143627Y0045524D01*
X0144694Y0044456D01*
X0146829Y0044456D01*
X0147897Y0045524D01*
X0147897Y0047659D01*
X0145762Y0047659D01*
X0147897Y0049794D02*
X0146829Y0050862D01*
X0144694Y0050862D01*
X0143627Y0049794D01*
X0150072Y0048726D02*
X0150072Y0045524D01*
X0151140Y0044456D01*
X0154343Y0044456D01*
X0154343Y0048726D01*
X0156518Y0048726D02*
X0156518Y0045524D01*
X0157585Y0044456D01*
X0160788Y0044456D01*
X0160788Y0043389D02*
X0159720Y0042321D01*
X0158653Y0042321D01*
X0160788Y0043389D02*
X0160788Y0048726D01*
X0169409Y0048726D02*
X0172611Y0048726D01*
X0173679Y0048726D01*
X0173679Y0046591D02*
X0169409Y0046591D01*
X0170476Y0044456D02*
X0170476Y0050862D01*
X0172611Y0050862D02*
X0172611Y0044456D01*
X0175854Y0044456D02*
X0180125Y0048726D01*
X0180125Y0049794D01*
X0179057Y0050862D01*
X0176922Y0050862D01*
X0175854Y0049794D01*
X0175854Y0044456D02*
X0180125Y0044456D01*
X0188745Y0046591D02*
X0190880Y0044456D01*
X0193042Y0045524D02*
X0194110Y0044456D01*
X0197312Y0044456D01*
X0199488Y0044456D02*
X0201623Y0046591D01*
X0201623Y0048726D01*
X0199488Y0050862D01*
X0197312Y0048726D02*
X0194110Y0048726D01*
X0193042Y0047659D01*
X0193042Y0045524D01*
X0188745Y0046591D02*
X0188745Y0048726D01*
X0190880Y0050862D01*
X0210230Y0049794D02*
X0211298Y0050862D01*
X0213433Y0050862D01*
X0214500Y0049794D01*
X0214500Y0048726D01*
X0210230Y0044456D01*
X0214500Y0044456D01*
X0216676Y0045524D02*
X0220946Y0049794D01*
X0220946Y0045524D01*
X0219878Y0044456D01*
X0217743Y0044456D01*
X0216676Y0045524D01*
X0216676Y0049794D01*
X0217743Y0050862D01*
X0219878Y0050862D01*
X0220946Y0049794D01*
X0223121Y0048726D02*
X0225256Y0050862D01*
X0225256Y0044456D01*
X0223121Y0044456D02*
X0227391Y0044456D01*
X0229567Y0044456D02*
X0229567Y0045524D01*
X0233837Y0049794D01*
X0233837Y0050862D01*
X0229567Y0050862D01*
X0242458Y0049794D02*
X0242458Y0048726D01*
X0243525Y0047659D01*
X0245660Y0047659D01*
X0246728Y0046591D01*
X0246728Y0045524D01*
X0245660Y0044456D01*
X0243525Y0044456D01*
X0242458Y0045524D01*
X0242458Y0049794D02*
X0243525Y0050862D01*
X0245660Y0050862D01*
X0246728Y0049794D01*
X0248903Y0048726D02*
X0251038Y0048726D01*
X0249971Y0049794D02*
X0249971Y0045524D01*
X0251038Y0044456D01*
X0253200Y0045524D02*
X0253200Y0047659D01*
X0254268Y0048726D01*
X0256403Y0048726D01*
X0257470Y0047659D01*
X0257470Y0046591D01*
X0253200Y0046591D01*
X0253200Y0045524D02*
X0254268Y0044456D01*
X0256403Y0044456D01*
X0259646Y0048726D02*
X0261781Y0044456D01*
X0263916Y0048726D01*
X0266091Y0047659D02*
X0266091Y0045524D01*
X0267159Y0044456D01*
X0269294Y0044456D01*
X0270361Y0046591D02*
X0266091Y0046591D01*
X0266091Y0047659D02*
X0267159Y0048726D01*
X0269294Y0048726D01*
X0270361Y0047659D01*
X0270361Y0046591D01*
X0299094Y0106156D02*
X0305094Y0106156D01*
X0305094Y0107156D01*
X0306094Y0107156D01*
X0299094Y0107156D02*
X0299094Y0106156D01*
X0299094Y0107156D02*
X0298094Y0107156D01*
X0290094Y0110656D02*
X0290094Y0114656D01*
X0290094Y0124156D01*
X0290094Y0127656D01*
X0298094Y0131156D02*
X0299094Y0131156D01*
X0299094Y0132156D01*
X0305094Y0132156D01*
X0305094Y0131156D01*
X0306094Y0131156D01*
X0314094Y0127656D02*
X0314094Y0124156D01*
X0314094Y0114156D01*
X0314094Y0110656D01*
X0301094Y0119156D02*
X0301096Y0119219D01*
X0301102Y0119281D01*
X0301112Y0119343D01*
X0301125Y0119405D01*
X0301143Y0119465D01*
X0301164Y0119524D01*
X0301189Y0119582D01*
X0301218Y0119638D01*
X0301250Y0119692D01*
X0301285Y0119744D01*
X0301323Y0119793D01*
X0301365Y0119841D01*
X0301409Y0119885D01*
X0301457Y0119927D01*
X0301506Y0119965D01*
X0301558Y0120000D01*
X0301612Y0120032D01*
X0301668Y0120061D01*
X0301726Y0120086D01*
X0301785Y0120107D01*
X0301845Y0120125D01*
X0301907Y0120138D01*
X0301969Y0120148D01*
X0302031Y0120154D01*
X0302094Y0120156D01*
X0302157Y0120154D01*
X0302219Y0120148D01*
X0302281Y0120138D01*
X0302343Y0120125D01*
X0302403Y0120107D01*
X0302462Y0120086D01*
X0302520Y0120061D01*
X0302576Y0120032D01*
X0302630Y0120000D01*
X0302682Y0119965D01*
X0302731Y0119927D01*
X0302779Y0119885D01*
X0302823Y0119841D01*
X0302865Y0119793D01*
X0302903Y0119744D01*
X0302938Y0119692D01*
X0302970Y0119638D01*
X0302999Y0119582D01*
X0303024Y0119524D01*
X0303045Y0119465D01*
X0303063Y0119405D01*
X0303076Y0119343D01*
X0303086Y0119281D01*
X0303092Y0119219D01*
X0303094Y0119156D01*
X0303092Y0119093D01*
X0303086Y0119031D01*
X0303076Y0118969D01*
X0303063Y0118907D01*
X0303045Y0118847D01*
X0303024Y0118788D01*
X0302999Y0118730D01*
X0302970Y0118674D01*
X0302938Y0118620D01*
X0302903Y0118568D01*
X0302865Y0118519D01*
X0302823Y0118471D01*
X0302779Y0118427D01*
X0302731Y0118385D01*
X0302682Y0118347D01*
X0302630Y0118312D01*
X0302576Y0118280D01*
X0302520Y0118251D01*
X0302462Y0118226D01*
X0302403Y0118205D01*
X0302343Y0118187D01*
X0302281Y0118174D01*
X0302219Y0118164D01*
X0302157Y0118158D01*
X0302094Y0118156D01*
X0302031Y0118158D01*
X0301969Y0118164D01*
X0301907Y0118174D01*
X0301845Y0118187D01*
X0301785Y0118205D01*
X0301726Y0118226D01*
X0301668Y0118251D01*
X0301612Y0118280D01*
X0301558Y0118312D01*
X0301506Y0118347D01*
X0301457Y0118385D01*
X0301409Y0118427D01*
X0301365Y0118471D01*
X0301323Y0118519D01*
X0301285Y0118568D01*
X0301250Y0118620D01*
X0301218Y0118674D01*
X0301189Y0118730D01*
X0301164Y0118788D01*
X0301143Y0118847D01*
X0301125Y0118907D01*
X0301112Y0118969D01*
X0301102Y0119031D01*
X0301096Y0119093D01*
X0301094Y0119156D01*
X0295094Y0119156D02*
X0295096Y0119328D01*
X0295102Y0119499D01*
X0295113Y0119671D01*
X0295128Y0119842D01*
X0295147Y0120013D01*
X0295170Y0120183D01*
X0295197Y0120353D01*
X0295229Y0120522D01*
X0295264Y0120690D01*
X0295304Y0120857D01*
X0295348Y0121023D01*
X0295395Y0121188D01*
X0295447Y0121352D01*
X0295503Y0121514D01*
X0295563Y0121675D01*
X0295627Y0121835D01*
X0295695Y0121993D01*
X0295766Y0122149D01*
X0295841Y0122303D01*
X0295921Y0122456D01*
X0296003Y0122606D01*
X0296090Y0122755D01*
X0296180Y0122901D01*
X0296274Y0123045D01*
X0296371Y0123187D01*
X0296472Y0123326D01*
X0296576Y0123463D01*
X0296683Y0123597D01*
X0296794Y0123728D01*
X0296907Y0123857D01*
X0297024Y0123983D01*
X0297144Y0124106D01*
X0297267Y0124226D01*
X0297393Y0124343D01*
X0297522Y0124456D01*
X0297653Y0124567D01*
X0297787Y0124674D01*
X0297924Y0124778D01*
X0298063Y0124879D01*
X0298205Y0124976D01*
X0298349Y0125070D01*
X0298495Y0125160D01*
X0298644Y0125247D01*
X0298794Y0125329D01*
X0298947Y0125409D01*
X0299101Y0125484D01*
X0299257Y0125555D01*
X0299415Y0125623D01*
X0299575Y0125687D01*
X0299736Y0125747D01*
X0299898Y0125803D01*
X0300062Y0125855D01*
X0300227Y0125902D01*
X0300393Y0125946D01*
X0300560Y0125986D01*
X0300728Y0126021D01*
X0300897Y0126053D01*
X0301067Y0126080D01*
X0301237Y0126103D01*
X0301408Y0126122D01*
X0301579Y0126137D01*
X0301751Y0126148D01*
X0301922Y0126154D01*
X0302094Y0126156D01*
X0302266Y0126154D01*
X0302437Y0126148D01*
X0302609Y0126137D01*
X0302780Y0126122D01*
X0302951Y0126103D01*
X0303121Y0126080D01*
X0303291Y0126053D01*
X0303460Y0126021D01*
X0303628Y0125986D01*
X0303795Y0125946D01*
X0303961Y0125902D01*
X0304126Y0125855D01*
X0304290Y0125803D01*
X0304452Y0125747D01*
X0304613Y0125687D01*
X0304773Y0125623D01*
X0304931Y0125555D01*
X0305087Y0125484D01*
X0305241Y0125409D01*
X0305394Y0125329D01*
X0305544Y0125247D01*
X0305693Y0125160D01*
X0305839Y0125070D01*
X0305983Y0124976D01*
X0306125Y0124879D01*
X0306264Y0124778D01*
X0306401Y0124674D01*
X0306535Y0124567D01*
X0306666Y0124456D01*
X0306795Y0124343D01*
X0306921Y0124226D01*
X0307044Y0124106D01*
X0307164Y0123983D01*
X0307281Y0123857D01*
X0307394Y0123728D01*
X0307505Y0123597D01*
X0307612Y0123463D01*
X0307716Y0123326D01*
X0307817Y0123187D01*
X0307914Y0123045D01*
X0308008Y0122901D01*
X0308098Y0122755D01*
X0308185Y0122606D01*
X0308267Y0122456D01*
X0308347Y0122303D01*
X0308422Y0122149D01*
X0308493Y0121993D01*
X0308561Y0121835D01*
X0308625Y0121675D01*
X0308685Y0121514D01*
X0308741Y0121352D01*
X0308793Y0121188D01*
X0308840Y0121023D01*
X0308884Y0120857D01*
X0308924Y0120690D01*
X0308959Y0120522D01*
X0308991Y0120353D01*
X0309018Y0120183D01*
X0309041Y0120013D01*
X0309060Y0119842D01*
X0309075Y0119671D01*
X0309086Y0119499D01*
X0309092Y0119328D01*
X0309094Y0119156D01*
X0309092Y0118984D01*
X0309086Y0118813D01*
X0309075Y0118641D01*
X0309060Y0118470D01*
X0309041Y0118299D01*
X0309018Y0118129D01*
X0308991Y0117959D01*
X0308959Y0117790D01*
X0308924Y0117622D01*
X0308884Y0117455D01*
X0308840Y0117289D01*
X0308793Y0117124D01*
X0308741Y0116960D01*
X0308685Y0116798D01*
X0308625Y0116637D01*
X0308561Y0116477D01*
X0308493Y0116319D01*
X0308422Y0116163D01*
X0308347Y0116009D01*
X0308267Y0115856D01*
X0308185Y0115706D01*
X0308098Y0115557D01*
X0308008Y0115411D01*
X0307914Y0115267D01*
X0307817Y0115125D01*
X0307716Y0114986D01*
X0307612Y0114849D01*
X0307505Y0114715D01*
X0307394Y0114584D01*
X0307281Y0114455D01*
X0307164Y0114329D01*
X0307044Y0114206D01*
X0306921Y0114086D01*
X0306795Y0113969D01*
X0306666Y0113856D01*
X0306535Y0113745D01*
X0306401Y0113638D01*
X0306264Y0113534D01*
X0306125Y0113433D01*
X0305983Y0113336D01*
X0305839Y0113242D01*
X0305693Y0113152D01*
X0305544Y0113065D01*
X0305394Y0112983D01*
X0305241Y0112903D01*
X0305087Y0112828D01*
X0304931Y0112757D01*
X0304773Y0112689D01*
X0304613Y0112625D01*
X0304452Y0112565D01*
X0304290Y0112509D01*
X0304126Y0112457D01*
X0303961Y0112410D01*
X0303795Y0112366D01*
X0303628Y0112326D01*
X0303460Y0112291D01*
X0303291Y0112259D01*
X0303121Y0112232D01*
X0302951Y0112209D01*
X0302780Y0112190D01*
X0302609Y0112175D01*
X0302437Y0112164D01*
X0302266Y0112158D01*
X0302094Y0112156D01*
X0301922Y0112158D01*
X0301751Y0112164D01*
X0301579Y0112175D01*
X0301408Y0112190D01*
X0301237Y0112209D01*
X0301067Y0112232D01*
X0300897Y0112259D01*
X0300728Y0112291D01*
X0300560Y0112326D01*
X0300393Y0112366D01*
X0300227Y0112410D01*
X0300062Y0112457D01*
X0299898Y0112509D01*
X0299736Y0112565D01*
X0299575Y0112625D01*
X0299415Y0112689D01*
X0299257Y0112757D01*
X0299101Y0112828D01*
X0298947Y0112903D01*
X0298794Y0112983D01*
X0298644Y0113065D01*
X0298495Y0113152D01*
X0298349Y0113242D01*
X0298205Y0113336D01*
X0298063Y0113433D01*
X0297924Y0113534D01*
X0297787Y0113638D01*
X0297653Y0113745D01*
X0297522Y0113856D01*
X0297393Y0113969D01*
X0297267Y0114086D01*
X0297144Y0114206D01*
X0297024Y0114329D01*
X0296907Y0114455D01*
X0296794Y0114584D01*
X0296683Y0114715D01*
X0296576Y0114849D01*
X0296472Y0114986D01*
X0296371Y0115125D01*
X0296274Y0115267D01*
X0296180Y0115411D01*
X0296090Y0115557D01*
X0296003Y0115706D01*
X0295921Y0115856D01*
X0295841Y0116009D01*
X0295766Y0116163D01*
X0295695Y0116319D01*
X0295627Y0116477D01*
X0295563Y0116637D01*
X0295503Y0116798D01*
X0295447Y0116960D01*
X0295395Y0117124D01*
X0295348Y0117289D01*
X0295304Y0117455D01*
X0295264Y0117622D01*
X0295229Y0117790D01*
X0295197Y0117959D01*
X0295170Y0118129D01*
X0295147Y0118299D01*
X0295128Y0118470D01*
X0295113Y0118641D01*
X0295102Y0118813D01*
X0295096Y0118984D01*
X0295094Y0119156D01*
X0126432Y0048726D02*
X0125364Y0047659D01*
X0095272Y0047659D02*
X0093137Y0047659D01*
X0075294Y0099045D02*
X0075294Y0101181D01*
X0075294Y0100113D02*
X0068889Y0100113D01*
X0068889Y0099045D02*
X0068889Y0101181D01*
X0068889Y0103342D02*
X0075294Y0103342D01*
X0075294Y0107613D01*
X0075294Y0109788D02*
X0075294Y0111923D01*
X0075294Y0110855D02*
X0068889Y0110855D01*
X0068889Y0109788D02*
X0068889Y0111923D01*
X0069957Y0114085D02*
X0068889Y0115152D01*
X0068889Y0117288D01*
X0069957Y0118355D01*
X0074227Y0118355D01*
X0075294Y0117288D01*
X0075294Y0115152D01*
X0074227Y0114085D01*
X0072092Y0115152D02*
X0072092Y0118355D01*
X0071024Y0120530D02*
X0068889Y0122666D01*
X0075294Y0122666D01*
X0075294Y0124801D02*
X0075294Y0120530D01*
X0074227Y0126976D02*
X0072092Y0126976D01*
X0072092Y0130179D01*
X0073159Y0131246D01*
X0074227Y0131246D01*
X0075294Y0130179D01*
X0075294Y0128043D01*
X0074227Y0126976D01*
X0072092Y0126976D02*
X0069957Y0129111D01*
X0068889Y0131246D01*
X0069957Y0133421D02*
X0068889Y0134489D01*
X0068889Y0136624D01*
X0069957Y0137692D01*
X0071024Y0137692D01*
X0072092Y0136624D01*
X0073159Y0137692D01*
X0074227Y0137692D01*
X0075294Y0136624D01*
X0075294Y0134489D01*
X0074227Y0133421D01*
X0072092Y0135557D02*
X0072092Y0136624D01*
X0072092Y0115152D02*
X0071024Y0114085D01*
X0069957Y0114085D01*
D11*
X0180692Y0086649D02*
X0180692Y0084781D01*
X0180692Y0085715D02*
X0183494Y0085715D01*
X0183027Y0083887D02*
X0183494Y0083420D01*
X0183494Y0082486D01*
X0183027Y0082019D01*
X0183494Y0081124D02*
X0182560Y0080190D01*
X0182560Y0080657D02*
X0182560Y0079256D01*
X0183494Y0079256D02*
X0180692Y0079256D01*
X0180692Y0080657D01*
X0181159Y0081124D01*
X0182093Y0081124D01*
X0182560Y0080657D01*
X0181626Y0082019D02*
X0181159Y0082019D01*
X0180692Y0082486D01*
X0180692Y0083420D01*
X0181159Y0083887D01*
X0182093Y0083420D02*
X0182560Y0083887D01*
X0183027Y0083887D01*
X0182093Y0083420D02*
X0182093Y0082486D01*
X0181626Y0082019D01*
X0190692Y0082486D02*
X0190692Y0083420D01*
X0191159Y0083887D01*
X0193027Y0082019D01*
X0193494Y0082486D01*
X0193494Y0083420D01*
X0193027Y0083887D01*
X0191159Y0083887D01*
X0190692Y0082486D02*
X0191159Y0082019D01*
X0193027Y0082019D01*
X0193494Y0081124D02*
X0191626Y0081124D01*
X0190692Y0080190D01*
X0191626Y0079256D01*
X0193494Y0079256D01*
X0192093Y0079256D02*
X0192093Y0081124D01*
X0200692Y0080657D02*
X0200692Y0079256D01*
X0203494Y0079256D01*
X0203494Y0080657D01*
X0203027Y0081124D01*
X0201159Y0081124D01*
X0200692Y0080657D01*
X0201159Y0082019D02*
X0200692Y0082486D01*
X0200692Y0083420D01*
X0201159Y0083887D01*
X0203027Y0082019D01*
X0203494Y0082486D01*
X0203494Y0083420D01*
X0203027Y0083887D01*
X0201159Y0083887D01*
X0201159Y0082019D02*
X0203027Y0082019D01*
X0210692Y0082019D02*
X0212093Y0082019D01*
X0211626Y0082953D01*
X0211626Y0083420D01*
X0212093Y0083887D01*
X0213027Y0083887D01*
X0213494Y0083420D01*
X0213494Y0082486D01*
X0213027Y0082019D01*
X0213027Y0081124D02*
X0211159Y0081124D01*
X0210692Y0080657D01*
X0210692Y0079256D01*
X0213494Y0079256D01*
X0213494Y0080657D01*
X0213027Y0081124D01*
X0210692Y0082019D02*
X0210692Y0083887D01*
X0220692Y0083887D02*
X0221159Y0082953D01*
X0222093Y0082019D01*
X0222093Y0083420D01*
X0222560Y0083887D01*
X0223027Y0083887D01*
X0223494Y0083420D01*
X0223494Y0082486D01*
X0223027Y0082019D01*
X0222093Y0082019D01*
X0221159Y0081124D02*
X0220692Y0080657D01*
X0220692Y0079256D01*
X0223494Y0079256D01*
X0223494Y0080657D01*
X0223027Y0081124D01*
X0221159Y0081124D01*
X0230692Y0080657D02*
X0230692Y0079256D01*
X0233494Y0079256D01*
X0233494Y0080657D01*
X0233027Y0081124D01*
X0231159Y0081124D01*
X0230692Y0080657D01*
X0230692Y0082019D02*
X0230692Y0083887D01*
X0231159Y0083887D01*
X0233027Y0082019D01*
X0233494Y0082019D01*
X0240692Y0082486D02*
X0240692Y0083420D01*
X0241159Y0083887D01*
X0241626Y0083887D01*
X0242093Y0083420D01*
X0242093Y0082486D01*
X0241626Y0082019D01*
X0241159Y0082019D01*
X0240692Y0082486D01*
X0242093Y0082486D02*
X0242560Y0082019D01*
X0243027Y0082019D01*
X0243494Y0082486D01*
X0243494Y0083420D01*
X0243027Y0083887D01*
X0242560Y0083887D01*
X0242093Y0083420D01*
X0241159Y0081124D02*
X0240692Y0080657D01*
X0240692Y0079256D01*
X0243494Y0079256D01*
X0243494Y0080657D01*
X0243027Y0081124D01*
X0241159Y0081124D01*
X0250692Y0080657D02*
X0251159Y0081124D01*
X0251626Y0081124D01*
X0252093Y0080657D01*
X0252560Y0081124D01*
X0253027Y0081124D01*
X0253494Y0080657D01*
X0253494Y0079723D01*
X0253027Y0079256D01*
X0252093Y0080190D02*
X0252093Y0080657D01*
X0250692Y0080657D02*
X0250692Y0079723D01*
X0251159Y0079256D01*
X0250692Y0082019D02*
X0252560Y0082019D01*
X0253494Y0082953D01*
X0252560Y0083887D01*
X0250692Y0083887D01*
X0251159Y0084781D02*
X0250692Y0085248D01*
X0250692Y0086182D01*
X0251159Y0086649D01*
X0251626Y0086649D01*
X0252093Y0086182D01*
X0252560Y0086649D01*
X0253027Y0086649D01*
X0253494Y0086182D01*
X0253494Y0085248D01*
X0253027Y0084781D01*
X0252093Y0085715D02*
X0252093Y0086182D01*
X0269068Y0085976D02*
X0271369Y0085976D01*
X0272818Y0085976D02*
X0275119Y0085976D01*
X0274736Y0085209D02*
X0275119Y0084825D01*
X0275119Y0084058D01*
X0274736Y0083674D01*
X0273201Y0083674D01*
X0272818Y0084058D01*
X0272818Y0084825D01*
X0273201Y0085209D01*
X0273969Y0085976D02*
X0273969Y0087511D01*
X0275119Y0087511D02*
X0272818Y0087511D01*
X0271369Y0084442D02*
X0271369Y0082907D01*
X0269068Y0082907D01*
X0269068Y0084442D01*
X0269068Y0085209D02*
X0269068Y0086744D01*
X0270219Y0083674D02*
X0270219Y0082907D01*
X0270602Y0082140D02*
X0270986Y0082140D01*
X0271369Y0081756D01*
X0271369Y0080989D01*
X0270986Y0080605D01*
X0271369Y0079838D02*
X0271369Y0078303D01*
X0269068Y0078303D01*
X0269068Y0079838D01*
X0269451Y0080605D02*
X0269835Y0080605D01*
X0270219Y0080989D01*
X0270219Y0081756D01*
X0270602Y0082140D01*
X0269451Y0082140D02*
X0269068Y0081756D01*
X0269068Y0080989D01*
X0269451Y0080605D01*
X0270219Y0079071D02*
X0270219Y0078303D01*
X0270219Y0077536D02*
X0270602Y0077152D01*
X0270602Y0076001D01*
X0271369Y0076001D02*
X0269068Y0076001D01*
X0269068Y0077152D01*
X0269451Y0077536D01*
X0270219Y0077536D01*
X0270602Y0076769D02*
X0271369Y0077536D01*
X0272818Y0077536D02*
X0275119Y0077536D01*
X0274352Y0078303D01*
X0275119Y0079071D01*
X0272818Y0079071D01*
X0272818Y0079838D02*
X0272818Y0080605D01*
X0272818Y0080221D02*
X0275119Y0080221D01*
X0275119Y0079838D02*
X0275119Y0080605D01*
X0275119Y0082140D02*
X0272818Y0082140D01*
X0272818Y0082907D02*
X0272818Y0081372D01*
X0273201Y0076769D02*
X0272818Y0076385D01*
X0272818Y0075618D01*
X0273201Y0075234D01*
X0273585Y0075234D01*
X0273969Y0075618D01*
X0273969Y0076385D01*
X0274352Y0076769D01*
X0274736Y0076769D01*
X0275119Y0076385D01*
X0275119Y0075618D01*
X0274736Y0075234D01*
X0290094Y0114656D02*
X0291094Y0114656D01*
X0291094Y0124156D01*
X0290094Y0124156D01*
X0313094Y0124156D02*
X0313094Y0114156D01*
X0314094Y0114156D01*
X0314094Y0124156D02*
X0313094Y0124156D01*
X0253494Y0154199D02*
X0253027Y0153731D01*
X0253494Y0154199D02*
X0253494Y0155133D01*
X0253027Y0155600D01*
X0252093Y0155600D01*
X0251626Y0155133D01*
X0251626Y0154666D01*
X0252093Y0153731D01*
X0250692Y0153731D01*
X0250692Y0155600D01*
X0250692Y0156494D02*
X0252560Y0156494D01*
X0253494Y0157428D01*
X0252560Y0158362D01*
X0250692Y0158362D01*
X0243494Y0157895D02*
X0243494Y0156494D01*
X0240692Y0156494D01*
X0240692Y0157895D01*
X0241159Y0158362D01*
X0243027Y0158362D01*
X0243494Y0157895D01*
X0243494Y0155600D02*
X0240692Y0155600D01*
X0240692Y0153731D02*
X0243494Y0155600D01*
X0243494Y0153731D02*
X0240692Y0153731D01*
X0241159Y0152837D02*
X0240692Y0152370D01*
X0240692Y0151436D01*
X0241159Y0150969D01*
X0243027Y0150969D01*
X0243494Y0151436D01*
X0243494Y0152370D01*
X0243027Y0152837D01*
X0242093Y0152837D01*
X0242093Y0151903D01*
X0233494Y0153731D02*
X0233494Y0155133D01*
X0233027Y0155600D01*
X0231159Y0155600D01*
X0230692Y0155133D01*
X0230692Y0153731D01*
X0233494Y0153731D01*
X0232093Y0156494D02*
X0232093Y0158362D01*
X0230692Y0157895D02*
X0232093Y0156494D01*
X0233494Y0157895D02*
X0230692Y0157895D01*
X0223494Y0157895D02*
X0223494Y0156961D01*
X0223027Y0156494D01*
X0223027Y0155600D02*
X0221159Y0155600D01*
X0220692Y0155133D01*
X0220692Y0153731D01*
X0223494Y0153731D01*
X0223494Y0155133D01*
X0223027Y0155600D01*
X0222093Y0157428D02*
X0222093Y0157895D01*
X0222560Y0158362D01*
X0223027Y0158362D01*
X0223494Y0157895D01*
X0222093Y0157895D02*
X0221626Y0158362D01*
X0221159Y0158362D01*
X0220692Y0157895D01*
X0220692Y0156961D01*
X0221159Y0156494D01*
X0213494Y0156494D02*
X0211626Y0158362D01*
X0211159Y0158362D01*
X0210692Y0157895D01*
X0210692Y0156961D01*
X0211159Y0156494D01*
X0211159Y0155600D02*
X0210692Y0155133D01*
X0210692Y0153731D01*
X0213494Y0153731D01*
X0213494Y0155133D01*
X0213027Y0155600D01*
X0211159Y0155600D01*
X0213494Y0156494D02*
X0213494Y0158362D01*
X0203494Y0158362D02*
X0203494Y0156494D01*
X0203494Y0157428D02*
X0200692Y0157428D01*
X0201626Y0156494D01*
X0201159Y0155600D02*
X0200692Y0155133D01*
X0200692Y0153731D01*
X0203494Y0153731D01*
X0203494Y0155133D01*
X0203027Y0155600D01*
X0201159Y0155600D01*
X0193494Y0155600D02*
X0192560Y0154666D01*
X0192560Y0155133D02*
X0192560Y0153731D01*
X0193494Y0153731D02*
X0190692Y0153731D01*
X0190692Y0155133D01*
X0191159Y0155600D01*
X0192093Y0155600D01*
X0192560Y0155133D01*
X0193494Y0156494D02*
X0190692Y0158362D01*
X0190692Y0156494D02*
X0193494Y0158362D01*
X0183494Y0158362D02*
X0180692Y0156494D01*
X0180692Y0155600D02*
X0180692Y0153731D01*
X0180692Y0154666D02*
X0183494Y0154666D01*
X0183494Y0156494D02*
X0180692Y0158362D01*
D12*
X0175024Y0150259D02*
X0175024Y0087266D01*
X0152189Y0087266D01*
X0152189Y0150259D01*
X0175024Y0150259D01*
X0174994Y0150256D02*
X0247094Y0150256D01*
X0247094Y0150156D02*
X0247094Y0087256D01*
X0174994Y0087256D01*
X0162094Y0069156D02*
X0161852Y0069159D01*
X0161611Y0069168D01*
X0161370Y0069182D01*
X0161129Y0069203D01*
X0160889Y0069229D01*
X0160649Y0069261D01*
X0160410Y0069299D01*
X0160173Y0069342D01*
X0159936Y0069392D01*
X0159701Y0069447D01*
X0159467Y0069507D01*
X0159235Y0069574D01*
X0159004Y0069645D01*
X0158775Y0069723D01*
X0158548Y0069806D01*
X0158323Y0069894D01*
X0158100Y0069988D01*
X0157880Y0070087D01*
X0157662Y0070192D01*
X0157447Y0070301D01*
X0157234Y0070416D01*
X0157024Y0070536D01*
X0156818Y0070661D01*
X0156614Y0070791D01*
X0156413Y0070926D01*
X0156216Y0071066D01*
X0156022Y0071210D01*
X0155832Y0071359D01*
X0155646Y0071513D01*
X0155463Y0071671D01*
X0155284Y0071833D01*
X0155109Y0072000D01*
X0154938Y0072171D01*
X0154771Y0072346D01*
X0154609Y0072525D01*
X0154451Y0072708D01*
X0154297Y0072894D01*
X0154148Y0073084D01*
X0154004Y0073278D01*
X0153864Y0073475D01*
X0153729Y0073676D01*
X0153599Y0073880D01*
X0153474Y0074086D01*
X0153354Y0074296D01*
X0153239Y0074509D01*
X0153130Y0074724D01*
X0153025Y0074942D01*
X0152926Y0075162D01*
X0152832Y0075385D01*
X0152744Y0075610D01*
X0152661Y0075837D01*
X0152583Y0076066D01*
X0152512Y0076297D01*
X0152445Y0076529D01*
X0152385Y0076763D01*
X0152330Y0076998D01*
X0152280Y0077235D01*
X0152237Y0077472D01*
X0152199Y0077711D01*
X0152167Y0077951D01*
X0152141Y0078191D01*
X0152120Y0078432D01*
X0152106Y0078673D01*
X0152097Y0078914D01*
X0152094Y0079156D01*
X0152094Y0159156D01*
X0152097Y0159398D01*
X0152106Y0159639D01*
X0152120Y0159880D01*
X0152141Y0160121D01*
X0152167Y0160361D01*
X0152199Y0160601D01*
X0152237Y0160840D01*
X0152280Y0161077D01*
X0152330Y0161314D01*
X0152385Y0161549D01*
X0152445Y0161783D01*
X0152512Y0162015D01*
X0152583Y0162246D01*
X0152661Y0162475D01*
X0152744Y0162702D01*
X0152832Y0162927D01*
X0152926Y0163150D01*
X0153025Y0163370D01*
X0153130Y0163588D01*
X0153239Y0163803D01*
X0153354Y0164016D01*
X0153474Y0164226D01*
X0153599Y0164432D01*
X0153729Y0164636D01*
X0153864Y0164837D01*
X0154004Y0165034D01*
X0154148Y0165228D01*
X0154297Y0165418D01*
X0154451Y0165604D01*
X0154609Y0165787D01*
X0154771Y0165966D01*
X0154938Y0166141D01*
X0155109Y0166312D01*
X0155284Y0166479D01*
X0155463Y0166641D01*
X0155646Y0166799D01*
X0155832Y0166953D01*
X0156022Y0167102D01*
X0156216Y0167246D01*
X0156413Y0167386D01*
X0156614Y0167521D01*
X0156818Y0167651D01*
X0157024Y0167776D01*
X0157234Y0167896D01*
X0157447Y0168011D01*
X0157662Y0168120D01*
X0157880Y0168225D01*
X0158100Y0168324D01*
X0158323Y0168418D01*
X0158548Y0168506D01*
X0158775Y0168589D01*
X0159004Y0168667D01*
X0159235Y0168738D01*
X0159467Y0168805D01*
X0159701Y0168865D01*
X0159936Y0168920D01*
X0160173Y0168970D01*
X0160410Y0169013D01*
X0160649Y0169051D01*
X0160889Y0169083D01*
X0161129Y0169109D01*
X0161370Y0169130D01*
X0161611Y0169144D01*
X0161852Y0169153D01*
X0162094Y0169156D01*
X0287094Y0169156D01*
X0287094Y0069156D01*
X0162094Y0069156D01*
X0098118Y0059314D02*
X0098120Y0059411D01*
X0098126Y0059508D01*
X0098136Y0059604D01*
X0098150Y0059700D01*
X0098168Y0059796D01*
X0098189Y0059890D01*
X0098215Y0059984D01*
X0098244Y0060076D01*
X0098278Y0060167D01*
X0098314Y0060257D01*
X0098355Y0060345D01*
X0098399Y0060431D01*
X0098447Y0060516D01*
X0098498Y0060598D01*
X0098552Y0060679D01*
X0098610Y0060757D01*
X0098671Y0060832D01*
X0098734Y0060905D01*
X0098801Y0060976D01*
X0098871Y0061043D01*
X0098943Y0061108D01*
X0099018Y0061169D01*
X0099096Y0061228D01*
X0099175Y0061283D01*
X0099257Y0061335D01*
X0099341Y0061383D01*
X0099427Y0061428D01*
X0099515Y0061470D01*
X0099604Y0061508D01*
X0099695Y0061542D01*
X0099787Y0061572D01*
X0099880Y0061599D01*
X0099975Y0061621D01*
X0100070Y0061640D01*
X0100166Y0061655D01*
X0100262Y0061666D01*
X0100359Y0061673D01*
X0100456Y0061676D01*
X0100553Y0061675D01*
X0100650Y0061670D01*
X0100746Y0061661D01*
X0100842Y0061648D01*
X0100938Y0061631D01*
X0101033Y0061610D01*
X0101126Y0061586D01*
X0101219Y0061557D01*
X0101311Y0061525D01*
X0101401Y0061489D01*
X0101489Y0061450D01*
X0101576Y0061406D01*
X0101661Y0061360D01*
X0101744Y0061309D01*
X0101825Y0061256D01*
X0101903Y0061199D01*
X0101980Y0061139D01*
X0102053Y0061076D01*
X0102124Y0061010D01*
X0102192Y0060941D01*
X0102258Y0060869D01*
X0102320Y0060795D01*
X0102379Y0060718D01*
X0102435Y0060639D01*
X0102488Y0060557D01*
X0102538Y0060474D01*
X0102583Y0060388D01*
X0102626Y0060301D01*
X0102665Y0060212D01*
X0102700Y0060122D01*
X0102731Y0060030D01*
X0102758Y0059937D01*
X0102782Y0059843D01*
X0102802Y0059748D01*
X0102818Y0059652D01*
X0102830Y0059556D01*
X0102838Y0059459D01*
X0102842Y0059362D01*
X0102842Y0059266D01*
X0102838Y0059169D01*
X0102830Y0059072D01*
X0102818Y0058976D01*
X0102802Y0058880D01*
X0102782Y0058785D01*
X0102758Y0058691D01*
X0102731Y0058598D01*
X0102700Y0058506D01*
X0102665Y0058416D01*
X0102626Y0058327D01*
X0102583Y0058240D01*
X0102538Y0058154D01*
X0102488Y0058071D01*
X0102435Y0057989D01*
X0102379Y0057910D01*
X0102320Y0057833D01*
X0102258Y0057759D01*
X0102192Y0057687D01*
X0102124Y0057618D01*
X0102053Y0057552D01*
X0101980Y0057489D01*
X0101903Y0057429D01*
X0101825Y0057372D01*
X0101744Y0057319D01*
X0101661Y0057268D01*
X0101576Y0057222D01*
X0101489Y0057178D01*
X0101401Y0057139D01*
X0101311Y0057103D01*
X0101219Y0057071D01*
X0101126Y0057042D01*
X0101033Y0057018D01*
X0100938Y0056997D01*
X0100842Y0056980D01*
X0100746Y0056967D01*
X0100650Y0056958D01*
X0100553Y0056953D01*
X0100456Y0056952D01*
X0100359Y0056955D01*
X0100262Y0056962D01*
X0100166Y0056973D01*
X0100070Y0056988D01*
X0099975Y0057007D01*
X0099880Y0057029D01*
X0099787Y0057056D01*
X0099695Y0057086D01*
X0099604Y0057120D01*
X0099515Y0057158D01*
X0099427Y0057200D01*
X0099341Y0057245D01*
X0099257Y0057293D01*
X0099175Y0057345D01*
X0099096Y0057400D01*
X0099018Y0057459D01*
X0098943Y0057520D01*
X0098871Y0057585D01*
X0098801Y0057652D01*
X0098734Y0057723D01*
X0098671Y0057796D01*
X0098610Y0057871D01*
X0098552Y0057949D01*
X0098498Y0058030D01*
X0098447Y0058112D01*
X0098399Y0058197D01*
X0098355Y0058283D01*
X0098314Y0058371D01*
X0098278Y0058461D01*
X0098244Y0058552D01*
X0098215Y0058644D01*
X0098189Y0058738D01*
X0098168Y0058832D01*
X0098150Y0058928D01*
X0098136Y0059024D01*
X0098126Y0059120D01*
X0098120Y0059217D01*
X0098118Y0059314D01*
X0098906Y0055377D02*
X0098906Y0182936D01*
X0248512Y0182936D01*
X0248512Y0055377D01*
X0098906Y0055377D01*
X0077252Y0055377D01*
X0077252Y0182936D01*
X0098906Y0182936D01*
X0098118Y0178999D02*
X0098120Y0179096D01*
X0098126Y0179193D01*
X0098136Y0179289D01*
X0098150Y0179385D01*
X0098168Y0179481D01*
X0098189Y0179575D01*
X0098215Y0179669D01*
X0098244Y0179761D01*
X0098278Y0179852D01*
X0098314Y0179942D01*
X0098355Y0180030D01*
X0098399Y0180116D01*
X0098447Y0180201D01*
X0098498Y0180283D01*
X0098552Y0180364D01*
X0098610Y0180442D01*
X0098671Y0180517D01*
X0098734Y0180590D01*
X0098801Y0180661D01*
X0098871Y0180728D01*
X0098943Y0180793D01*
X0099018Y0180854D01*
X0099096Y0180913D01*
X0099175Y0180968D01*
X0099257Y0181020D01*
X0099341Y0181068D01*
X0099427Y0181113D01*
X0099515Y0181155D01*
X0099604Y0181193D01*
X0099695Y0181227D01*
X0099787Y0181257D01*
X0099880Y0181284D01*
X0099975Y0181306D01*
X0100070Y0181325D01*
X0100166Y0181340D01*
X0100262Y0181351D01*
X0100359Y0181358D01*
X0100456Y0181361D01*
X0100553Y0181360D01*
X0100650Y0181355D01*
X0100746Y0181346D01*
X0100842Y0181333D01*
X0100938Y0181316D01*
X0101033Y0181295D01*
X0101126Y0181271D01*
X0101219Y0181242D01*
X0101311Y0181210D01*
X0101401Y0181174D01*
X0101489Y0181135D01*
X0101576Y0181091D01*
X0101661Y0181045D01*
X0101744Y0180994D01*
X0101825Y0180941D01*
X0101903Y0180884D01*
X0101980Y0180824D01*
X0102053Y0180761D01*
X0102124Y0180695D01*
X0102192Y0180626D01*
X0102258Y0180554D01*
X0102320Y0180480D01*
X0102379Y0180403D01*
X0102435Y0180324D01*
X0102488Y0180242D01*
X0102538Y0180159D01*
X0102583Y0180073D01*
X0102626Y0179986D01*
X0102665Y0179897D01*
X0102700Y0179807D01*
X0102731Y0179715D01*
X0102758Y0179622D01*
X0102782Y0179528D01*
X0102802Y0179433D01*
X0102818Y0179337D01*
X0102830Y0179241D01*
X0102838Y0179144D01*
X0102842Y0179047D01*
X0102842Y0178951D01*
X0102838Y0178854D01*
X0102830Y0178757D01*
X0102818Y0178661D01*
X0102802Y0178565D01*
X0102782Y0178470D01*
X0102758Y0178376D01*
X0102731Y0178283D01*
X0102700Y0178191D01*
X0102665Y0178101D01*
X0102626Y0178012D01*
X0102583Y0177925D01*
X0102538Y0177839D01*
X0102488Y0177756D01*
X0102435Y0177674D01*
X0102379Y0177595D01*
X0102320Y0177518D01*
X0102258Y0177444D01*
X0102192Y0177372D01*
X0102124Y0177303D01*
X0102053Y0177237D01*
X0101980Y0177174D01*
X0101903Y0177114D01*
X0101825Y0177057D01*
X0101744Y0177004D01*
X0101661Y0176953D01*
X0101576Y0176907D01*
X0101489Y0176863D01*
X0101401Y0176824D01*
X0101311Y0176788D01*
X0101219Y0176756D01*
X0101126Y0176727D01*
X0101033Y0176703D01*
X0100938Y0176682D01*
X0100842Y0176665D01*
X0100746Y0176652D01*
X0100650Y0176643D01*
X0100553Y0176638D01*
X0100456Y0176637D01*
X0100359Y0176640D01*
X0100262Y0176647D01*
X0100166Y0176658D01*
X0100070Y0176673D01*
X0099975Y0176692D01*
X0099880Y0176714D01*
X0099787Y0176741D01*
X0099695Y0176771D01*
X0099604Y0176805D01*
X0099515Y0176843D01*
X0099427Y0176885D01*
X0099341Y0176930D01*
X0099257Y0176978D01*
X0099175Y0177030D01*
X0099096Y0177085D01*
X0099018Y0177144D01*
X0098943Y0177205D01*
X0098871Y0177270D01*
X0098801Y0177337D01*
X0098734Y0177408D01*
X0098671Y0177481D01*
X0098610Y0177556D01*
X0098552Y0177634D01*
X0098498Y0177715D01*
X0098447Y0177797D01*
X0098399Y0177882D01*
X0098355Y0177968D01*
X0098314Y0178056D01*
X0098278Y0178146D01*
X0098244Y0178237D01*
X0098215Y0178329D01*
X0098189Y0178423D01*
X0098168Y0178517D01*
X0098150Y0178613D01*
X0098136Y0178709D01*
X0098126Y0178805D01*
X0098120Y0178902D01*
X0098118Y0178999D01*
X0174994Y0150256D02*
X0174994Y0150156D01*
X0243788Y0178999D02*
X0243790Y0179096D01*
X0243796Y0179193D01*
X0243806Y0179289D01*
X0243820Y0179385D01*
X0243838Y0179481D01*
X0243859Y0179575D01*
X0243885Y0179669D01*
X0243914Y0179761D01*
X0243948Y0179852D01*
X0243984Y0179942D01*
X0244025Y0180030D01*
X0244069Y0180116D01*
X0244117Y0180201D01*
X0244168Y0180283D01*
X0244222Y0180364D01*
X0244280Y0180442D01*
X0244341Y0180517D01*
X0244404Y0180590D01*
X0244471Y0180661D01*
X0244541Y0180728D01*
X0244613Y0180793D01*
X0244688Y0180854D01*
X0244766Y0180913D01*
X0244845Y0180968D01*
X0244927Y0181020D01*
X0245011Y0181068D01*
X0245097Y0181113D01*
X0245185Y0181155D01*
X0245274Y0181193D01*
X0245365Y0181227D01*
X0245457Y0181257D01*
X0245550Y0181284D01*
X0245645Y0181306D01*
X0245740Y0181325D01*
X0245836Y0181340D01*
X0245932Y0181351D01*
X0246029Y0181358D01*
X0246126Y0181361D01*
X0246223Y0181360D01*
X0246320Y0181355D01*
X0246416Y0181346D01*
X0246512Y0181333D01*
X0246608Y0181316D01*
X0246703Y0181295D01*
X0246796Y0181271D01*
X0246889Y0181242D01*
X0246981Y0181210D01*
X0247071Y0181174D01*
X0247159Y0181135D01*
X0247246Y0181091D01*
X0247331Y0181045D01*
X0247414Y0180994D01*
X0247495Y0180941D01*
X0247573Y0180884D01*
X0247650Y0180824D01*
X0247723Y0180761D01*
X0247794Y0180695D01*
X0247862Y0180626D01*
X0247928Y0180554D01*
X0247990Y0180480D01*
X0248049Y0180403D01*
X0248105Y0180324D01*
X0248158Y0180242D01*
X0248208Y0180159D01*
X0248253Y0180073D01*
X0248296Y0179986D01*
X0248335Y0179897D01*
X0248370Y0179807D01*
X0248401Y0179715D01*
X0248428Y0179622D01*
X0248452Y0179528D01*
X0248472Y0179433D01*
X0248488Y0179337D01*
X0248500Y0179241D01*
X0248508Y0179144D01*
X0248512Y0179047D01*
X0248512Y0178951D01*
X0248508Y0178854D01*
X0248500Y0178757D01*
X0248488Y0178661D01*
X0248472Y0178565D01*
X0248452Y0178470D01*
X0248428Y0178376D01*
X0248401Y0178283D01*
X0248370Y0178191D01*
X0248335Y0178101D01*
X0248296Y0178012D01*
X0248253Y0177925D01*
X0248208Y0177839D01*
X0248158Y0177756D01*
X0248105Y0177674D01*
X0248049Y0177595D01*
X0247990Y0177518D01*
X0247928Y0177444D01*
X0247862Y0177372D01*
X0247794Y0177303D01*
X0247723Y0177237D01*
X0247650Y0177174D01*
X0247573Y0177114D01*
X0247495Y0177057D01*
X0247414Y0177004D01*
X0247331Y0176953D01*
X0247246Y0176907D01*
X0247159Y0176863D01*
X0247071Y0176824D01*
X0246981Y0176788D01*
X0246889Y0176756D01*
X0246796Y0176727D01*
X0246703Y0176703D01*
X0246608Y0176682D01*
X0246512Y0176665D01*
X0246416Y0176652D01*
X0246320Y0176643D01*
X0246223Y0176638D01*
X0246126Y0176637D01*
X0246029Y0176640D01*
X0245932Y0176647D01*
X0245836Y0176658D01*
X0245740Y0176673D01*
X0245645Y0176692D01*
X0245550Y0176714D01*
X0245457Y0176741D01*
X0245365Y0176771D01*
X0245274Y0176805D01*
X0245185Y0176843D01*
X0245097Y0176885D01*
X0245011Y0176930D01*
X0244927Y0176978D01*
X0244845Y0177030D01*
X0244766Y0177085D01*
X0244688Y0177144D01*
X0244613Y0177205D01*
X0244541Y0177270D01*
X0244471Y0177337D01*
X0244404Y0177408D01*
X0244341Y0177481D01*
X0244280Y0177556D01*
X0244222Y0177634D01*
X0244168Y0177715D01*
X0244117Y0177797D01*
X0244069Y0177882D01*
X0244025Y0177968D01*
X0243984Y0178056D01*
X0243948Y0178146D01*
X0243914Y0178237D01*
X0243885Y0178329D01*
X0243859Y0178423D01*
X0243838Y0178517D01*
X0243820Y0178613D01*
X0243806Y0178709D01*
X0243796Y0178805D01*
X0243790Y0178902D01*
X0243788Y0178999D01*
X0248512Y0182936D02*
X0254417Y0182936D01*
X0254417Y0055377D01*
X0248512Y0055377D01*
X0243788Y0059314D02*
X0243790Y0059411D01*
X0243796Y0059508D01*
X0243806Y0059604D01*
X0243820Y0059700D01*
X0243838Y0059796D01*
X0243859Y0059890D01*
X0243885Y0059984D01*
X0243914Y0060076D01*
X0243948Y0060167D01*
X0243984Y0060257D01*
X0244025Y0060345D01*
X0244069Y0060431D01*
X0244117Y0060516D01*
X0244168Y0060598D01*
X0244222Y0060679D01*
X0244280Y0060757D01*
X0244341Y0060832D01*
X0244404Y0060905D01*
X0244471Y0060976D01*
X0244541Y0061043D01*
X0244613Y0061108D01*
X0244688Y0061169D01*
X0244766Y0061228D01*
X0244845Y0061283D01*
X0244927Y0061335D01*
X0245011Y0061383D01*
X0245097Y0061428D01*
X0245185Y0061470D01*
X0245274Y0061508D01*
X0245365Y0061542D01*
X0245457Y0061572D01*
X0245550Y0061599D01*
X0245645Y0061621D01*
X0245740Y0061640D01*
X0245836Y0061655D01*
X0245932Y0061666D01*
X0246029Y0061673D01*
X0246126Y0061676D01*
X0246223Y0061675D01*
X0246320Y0061670D01*
X0246416Y0061661D01*
X0246512Y0061648D01*
X0246608Y0061631D01*
X0246703Y0061610D01*
X0246796Y0061586D01*
X0246889Y0061557D01*
X0246981Y0061525D01*
X0247071Y0061489D01*
X0247159Y0061450D01*
X0247246Y0061406D01*
X0247331Y0061360D01*
X0247414Y0061309D01*
X0247495Y0061256D01*
X0247573Y0061199D01*
X0247650Y0061139D01*
X0247723Y0061076D01*
X0247794Y0061010D01*
X0247862Y0060941D01*
X0247928Y0060869D01*
X0247990Y0060795D01*
X0248049Y0060718D01*
X0248105Y0060639D01*
X0248158Y0060557D01*
X0248208Y0060474D01*
X0248253Y0060388D01*
X0248296Y0060301D01*
X0248335Y0060212D01*
X0248370Y0060122D01*
X0248401Y0060030D01*
X0248428Y0059937D01*
X0248452Y0059843D01*
X0248472Y0059748D01*
X0248488Y0059652D01*
X0248500Y0059556D01*
X0248508Y0059459D01*
X0248512Y0059362D01*
X0248512Y0059266D01*
X0248508Y0059169D01*
X0248500Y0059072D01*
X0248488Y0058976D01*
X0248472Y0058880D01*
X0248452Y0058785D01*
X0248428Y0058691D01*
X0248401Y0058598D01*
X0248370Y0058506D01*
X0248335Y0058416D01*
X0248296Y0058327D01*
X0248253Y0058240D01*
X0248208Y0058154D01*
X0248158Y0058071D01*
X0248105Y0057989D01*
X0248049Y0057910D01*
X0247990Y0057833D01*
X0247928Y0057759D01*
X0247862Y0057687D01*
X0247794Y0057618D01*
X0247723Y0057552D01*
X0247650Y0057489D01*
X0247573Y0057429D01*
X0247495Y0057372D01*
X0247414Y0057319D01*
X0247331Y0057268D01*
X0247246Y0057222D01*
X0247159Y0057178D01*
X0247071Y0057139D01*
X0246981Y0057103D01*
X0246889Y0057071D01*
X0246796Y0057042D01*
X0246703Y0057018D01*
X0246608Y0056997D01*
X0246512Y0056980D01*
X0246416Y0056967D01*
X0246320Y0056958D01*
X0246223Y0056953D01*
X0246126Y0056952D01*
X0246029Y0056955D01*
X0245932Y0056962D01*
X0245836Y0056973D01*
X0245740Y0056988D01*
X0245645Y0057007D01*
X0245550Y0057029D01*
X0245457Y0057056D01*
X0245365Y0057086D01*
X0245274Y0057120D01*
X0245185Y0057158D01*
X0245097Y0057200D01*
X0245011Y0057245D01*
X0244927Y0057293D01*
X0244845Y0057345D01*
X0244766Y0057400D01*
X0244688Y0057459D01*
X0244613Y0057520D01*
X0244541Y0057585D01*
X0244471Y0057652D01*
X0244404Y0057723D01*
X0244341Y0057796D01*
X0244280Y0057871D01*
X0244222Y0057949D01*
X0244168Y0058030D01*
X0244117Y0058112D01*
X0244069Y0058197D01*
X0244025Y0058283D01*
X0243984Y0058371D01*
X0243948Y0058461D01*
X0243914Y0058552D01*
X0243885Y0058644D01*
X0243859Y0058738D01*
X0243838Y0058832D01*
X0243820Y0058928D01*
X0243806Y0059024D01*
X0243796Y0059120D01*
X0243790Y0059217D01*
X0243788Y0059314D01*
X0316841Y0122949D02*
X0317591Y0122198D01*
X0318342Y0122198D01*
X0319093Y0122949D01*
X0319093Y0124450D01*
X0319843Y0125201D01*
X0320594Y0125201D01*
X0321344Y0124450D01*
X0321344Y0122949D01*
X0320594Y0122198D01*
X0316841Y0122949D02*
X0316841Y0124450D01*
X0317591Y0125201D01*
X0318342Y0126802D02*
X0316841Y0128304D01*
X0321344Y0128304D01*
X0321344Y0129805D02*
X0321344Y0126802D01*
D13*
X0281894Y0133418D02*
X0280160Y0135153D01*
X0281894Y0136887D01*
X0276690Y0136887D01*
X0276690Y0138574D02*
X0281894Y0138574D01*
X0281894Y0142044D01*
X0281894Y0143731D02*
X0276690Y0143731D01*
X0278425Y0145465D01*
X0276690Y0147200D01*
X0281894Y0147200D01*
X0281027Y0148887D02*
X0277557Y0148887D01*
X0276690Y0149754D01*
X0276690Y0151489D01*
X0277557Y0152357D01*
X0281027Y0152357D01*
X0281894Y0151489D01*
X0281894Y0149754D01*
X0281027Y0148887D01*
X0281027Y0154043D02*
X0281894Y0154911D01*
X0281894Y0156646D01*
X0281027Y0157513D01*
X0280160Y0157513D01*
X0279292Y0156646D01*
X0279292Y0154911D01*
X0278425Y0154043D01*
X0277557Y0154043D01*
X0276690Y0154911D01*
X0276690Y0156646D01*
X0277557Y0157513D01*
X0278425Y0159200D02*
X0276690Y0160935D01*
X0281894Y0160935D01*
X0281894Y0162669D02*
X0281894Y0159200D01*
X0276690Y0142044D02*
X0276690Y0138574D01*
X0279292Y0138574D02*
X0279292Y0140309D01*
X0276690Y0133418D02*
X0281894Y0133418D01*
X0236894Y0133576D02*
X0236894Y0135311D01*
X0236894Y0134443D02*
X0233425Y0134443D01*
X0233425Y0133576D01*
X0234292Y0131889D02*
X0236894Y0131889D01*
X0234292Y0131889D02*
X0233425Y0131022D01*
X0233425Y0128419D01*
X0236894Y0128419D01*
X0236894Y0126717D02*
X0236894Y0124982D01*
X0236894Y0125849D02*
X0233425Y0125849D01*
X0233425Y0124982D01*
X0234292Y0123295D02*
X0236894Y0123295D01*
X0236894Y0121560D02*
X0234292Y0121560D01*
X0233425Y0122428D01*
X0234292Y0123295D01*
X0234292Y0121560D02*
X0233425Y0120693D01*
X0233425Y0119825D01*
X0236894Y0119825D01*
X0236894Y0112982D02*
X0236894Y0109513D01*
X0236894Y0111247D02*
X0231690Y0111247D01*
X0233425Y0109513D01*
X0232557Y0107826D02*
X0231690Y0106958D01*
X0231690Y0104356D01*
X0236894Y0104356D01*
X0236894Y0106958D01*
X0236027Y0107826D01*
X0232557Y0107826D01*
X0228494Y0107826D02*
X0226760Y0106091D01*
X0228494Y0104356D01*
X0223290Y0104356D01*
X0223290Y0107826D02*
X0228494Y0107826D01*
X0227627Y0109513D02*
X0225892Y0109513D01*
X0225025Y0110380D01*
X0225025Y0112115D01*
X0225892Y0112982D01*
X0226760Y0112982D01*
X0226760Y0109513D01*
X0227627Y0109513D02*
X0228494Y0110380D01*
X0228494Y0112115D01*
X0228494Y0114669D02*
X0223290Y0114669D01*
X0225025Y0116404D01*
X0223290Y0118139D01*
X0228494Y0118139D01*
X0227627Y0119825D02*
X0228494Y0120693D01*
X0228494Y0122428D01*
X0227627Y0123295D01*
X0225892Y0123295D01*
X0225025Y0122428D01*
X0225025Y0120693D01*
X0225892Y0119825D01*
X0227627Y0119825D01*
X0228494Y0124982D02*
X0228494Y0127584D01*
X0227627Y0128451D01*
X0226760Y0127584D01*
X0226760Y0125849D01*
X0225892Y0124982D01*
X0225025Y0125849D01*
X0225025Y0128451D01*
X0227627Y0130138D02*
X0227627Y0131006D01*
X0228494Y0131006D01*
X0228494Y0130138D01*
X0227627Y0130138D01*
X0227627Y0132716D02*
X0228494Y0133584D01*
X0228494Y0136186D01*
X0227627Y0137873D02*
X0228494Y0138740D01*
X0228494Y0141342D01*
X0225025Y0141342D02*
X0225025Y0138740D01*
X0225892Y0137873D01*
X0227627Y0137873D01*
X0225025Y0136186D02*
X0225025Y0133584D01*
X0225892Y0132716D01*
X0227627Y0132716D01*
X0230823Y0134443D02*
X0231690Y0134443D01*
X0231690Y0125849D02*
X0230823Y0125849D01*
X0168894Y0124513D02*
X0168894Y0127982D01*
X0168894Y0129669D02*
X0163690Y0129669D01*
X0163690Y0133139D01*
X0165425Y0134825D02*
X0163690Y0136560D01*
X0165425Y0138295D01*
X0168894Y0138295D01*
X0168894Y0139982D02*
X0163690Y0139982D01*
X0163690Y0142584D01*
X0164557Y0143451D01*
X0166292Y0143451D01*
X0167160Y0142584D01*
X0167160Y0139982D01*
X0167160Y0141717D02*
X0168894Y0143451D01*
X0166292Y0138295D02*
X0166292Y0134825D01*
X0165425Y0134825D02*
X0168894Y0134825D01*
X0168894Y0133139D02*
X0168894Y0129669D01*
X0166292Y0129669D02*
X0166292Y0131404D01*
X0160494Y0132247D02*
X0157025Y0132247D01*
X0155290Y0133982D01*
X0157025Y0135717D01*
X0160494Y0135717D01*
X0157892Y0135717D02*
X0157892Y0132247D01*
X0160494Y0130560D02*
X0155290Y0130560D01*
X0155290Y0127091D02*
X0160494Y0130560D01*
X0160494Y0127091D02*
X0155290Y0127091D01*
X0155290Y0125404D02*
X0160494Y0125404D01*
X0155290Y0121934D01*
X0160494Y0121934D01*
X0160494Y0120248D02*
X0160494Y0116778D01*
X0155290Y0116778D01*
X0155290Y0120248D01*
X0157892Y0118513D02*
X0157892Y0116778D01*
X0155290Y0115091D02*
X0155290Y0111622D01*
X0155290Y0109935D02*
X0160494Y0109935D01*
X0155290Y0106465D01*
X0160494Y0106465D01*
X0160494Y0104778D02*
X0157025Y0104778D01*
X0155290Y0103044D01*
X0157025Y0101309D01*
X0160494Y0101309D01*
X0157892Y0101309D02*
X0157892Y0104778D01*
X0163690Y0103887D02*
X0168894Y0103887D01*
X0168894Y0107357D01*
X0168894Y0109043D02*
X0163690Y0109043D01*
X0163690Y0111646D01*
X0164557Y0112513D01*
X0166292Y0112513D01*
X0167160Y0111646D01*
X0167160Y0109043D01*
X0163690Y0107357D02*
X0163690Y0103887D01*
X0163690Y0102200D02*
X0163690Y0098731D01*
X0168894Y0098731D01*
X0168894Y0102200D01*
X0166292Y0103887D02*
X0166292Y0105622D01*
X0166292Y0100465D02*
X0166292Y0098731D01*
X0163690Y0097044D02*
X0167160Y0093574D01*
X0166292Y0094442D02*
X0168894Y0097044D01*
X0168894Y0093574D02*
X0163690Y0093574D01*
X0160494Y0113356D02*
X0155290Y0113356D01*
X0163690Y0120224D02*
X0164557Y0119356D01*
X0168027Y0119356D01*
X0168894Y0120224D01*
X0168894Y0121958D01*
X0168027Y0122826D01*
X0168894Y0124513D02*
X0163690Y0124513D01*
X0164557Y0122826D02*
X0163690Y0121958D01*
X0163690Y0120224D01*
D14*
X0262094Y0089156D02*
X0262094Y0074156D01*
X0282094Y0074156D01*
X0282094Y0089156D01*
X0262094Y0089156D01*
X0267094Y0104156D02*
X0287094Y0104156D01*
X0287094Y0134156D01*
X0267094Y0134156D01*
X0267094Y0104156D01*
D15*
X0278241Y0110712D02*
X0279476Y0111947D01*
X0278241Y0113181D01*
X0281944Y0113181D01*
X0281944Y0114395D02*
X0281944Y0115630D01*
X0281944Y0115012D02*
X0278241Y0115012D01*
X0278241Y0114395D02*
X0278241Y0115630D01*
X0278859Y0116851D02*
X0281327Y0116851D01*
X0281944Y0117468D01*
X0281944Y0118702D01*
X0281327Y0119320D01*
X0280710Y0120534D02*
X0280710Y0122385D01*
X0280093Y0123003D01*
X0278859Y0123003D01*
X0278241Y0122385D01*
X0278241Y0120534D01*
X0281944Y0120534D01*
X0280710Y0121768D02*
X0281944Y0123003D01*
X0281327Y0124217D02*
X0281944Y0124834D01*
X0281944Y0126069D01*
X0281327Y0126686D01*
X0278859Y0126686D01*
X0278241Y0126069D01*
X0278241Y0124834D01*
X0278859Y0124217D01*
X0281327Y0124217D01*
X0275944Y0122999D02*
X0275944Y0121148D01*
X0272241Y0121148D01*
X0272241Y0122999D01*
X0272859Y0123617D01*
X0273476Y0123617D01*
X0274093Y0122999D01*
X0274093Y0121148D01*
X0274710Y0119933D02*
X0275327Y0119933D01*
X0275944Y0119316D01*
X0275944Y0118082D01*
X0275327Y0117465D01*
X0275327Y0116250D02*
X0272241Y0116250D01*
X0272859Y0117465D02*
X0273476Y0117465D01*
X0274093Y0118082D01*
X0274093Y0119316D01*
X0274710Y0119933D01*
X0272859Y0119933D02*
X0272241Y0119316D01*
X0272241Y0118082D01*
X0272859Y0117465D01*
X0275327Y0116250D02*
X0275944Y0115633D01*
X0275944Y0114399D01*
X0275327Y0113781D01*
X0272241Y0113781D01*
X0278241Y0117468D02*
X0278859Y0116851D01*
X0278241Y0117468D02*
X0278241Y0118702D01*
X0278859Y0119320D01*
X0275944Y0122999D02*
X0275327Y0123617D01*
X0274710Y0123617D01*
X0274093Y0122999D01*
X0278241Y0110712D02*
X0281944Y0110712D01*
D16*
X0306937Y0034156D02*
X0062843Y0034156D01*
X0056544Y0049904D02*
X0056546Y0050062D01*
X0056552Y0050220D01*
X0056562Y0050378D01*
X0056576Y0050536D01*
X0056594Y0050693D01*
X0056615Y0050850D01*
X0056641Y0051006D01*
X0056671Y0051162D01*
X0056704Y0051317D01*
X0056742Y0051470D01*
X0056783Y0051623D01*
X0056828Y0051775D01*
X0056877Y0051926D01*
X0056930Y0052075D01*
X0056986Y0052223D01*
X0057046Y0052369D01*
X0057110Y0052514D01*
X0057178Y0052657D01*
X0057249Y0052799D01*
X0057323Y0052939D01*
X0057401Y0053076D01*
X0057483Y0053212D01*
X0057567Y0053346D01*
X0057656Y0053477D01*
X0057747Y0053606D01*
X0057842Y0053733D01*
X0057939Y0053858D01*
X0058040Y0053980D01*
X0058144Y0054099D01*
X0058251Y0054216D01*
X0058361Y0054330D01*
X0058474Y0054441D01*
X0058589Y0054550D01*
X0058707Y0054655D01*
X0058828Y0054757D01*
X0058951Y0054857D01*
X0059077Y0054953D01*
X0059205Y0055046D01*
X0059335Y0055136D01*
X0059468Y0055222D01*
X0059603Y0055306D01*
X0059739Y0055385D01*
X0059878Y0055462D01*
X0060019Y0055534D01*
X0060161Y0055604D01*
X0060305Y0055669D01*
X0060451Y0055731D01*
X0060598Y0055789D01*
X0060747Y0055844D01*
X0060897Y0055895D01*
X0061048Y0055942D01*
X0061200Y0055985D01*
X0061353Y0056024D01*
X0061508Y0056060D01*
X0061663Y0056091D01*
X0061819Y0056119D01*
X0061975Y0056143D01*
X0062132Y0056163D01*
X0062290Y0056179D01*
X0062447Y0056191D01*
X0062606Y0056199D01*
X0062764Y0056203D01*
X0062922Y0056203D01*
X0063080Y0056199D01*
X0063239Y0056191D01*
X0063396Y0056179D01*
X0063554Y0056163D01*
X0063711Y0056143D01*
X0063867Y0056119D01*
X0064023Y0056091D01*
X0064178Y0056060D01*
X0064333Y0056024D01*
X0064486Y0055985D01*
X0064638Y0055942D01*
X0064789Y0055895D01*
X0064939Y0055844D01*
X0065088Y0055789D01*
X0065235Y0055731D01*
X0065381Y0055669D01*
X0065525Y0055604D01*
X0065667Y0055534D01*
X0065808Y0055462D01*
X0065947Y0055385D01*
X0066083Y0055306D01*
X0066218Y0055222D01*
X0066351Y0055136D01*
X0066481Y0055046D01*
X0066609Y0054953D01*
X0066735Y0054857D01*
X0066858Y0054757D01*
X0066979Y0054655D01*
X0067097Y0054550D01*
X0067212Y0054441D01*
X0067325Y0054330D01*
X0067435Y0054216D01*
X0067542Y0054099D01*
X0067646Y0053980D01*
X0067747Y0053858D01*
X0067844Y0053733D01*
X0067939Y0053606D01*
X0068030Y0053477D01*
X0068119Y0053346D01*
X0068203Y0053212D01*
X0068285Y0053076D01*
X0068363Y0052939D01*
X0068437Y0052799D01*
X0068508Y0052657D01*
X0068576Y0052514D01*
X0068640Y0052369D01*
X0068700Y0052223D01*
X0068756Y0052075D01*
X0068809Y0051926D01*
X0068858Y0051775D01*
X0068903Y0051623D01*
X0068944Y0051470D01*
X0068982Y0051317D01*
X0069015Y0051162D01*
X0069045Y0051006D01*
X0069071Y0050850D01*
X0069092Y0050693D01*
X0069110Y0050536D01*
X0069124Y0050378D01*
X0069134Y0050220D01*
X0069140Y0050062D01*
X0069142Y0049904D01*
X0069140Y0049746D01*
X0069134Y0049588D01*
X0069124Y0049430D01*
X0069110Y0049272D01*
X0069092Y0049115D01*
X0069071Y0048958D01*
X0069045Y0048802D01*
X0069015Y0048646D01*
X0068982Y0048491D01*
X0068944Y0048338D01*
X0068903Y0048185D01*
X0068858Y0048033D01*
X0068809Y0047882D01*
X0068756Y0047733D01*
X0068700Y0047585D01*
X0068640Y0047439D01*
X0068576Y0047294D01*
X0068508Y0047151D01*
X0068437Y0047009D01*
X0068363Y0046869D01*
X0068285Y0046732D01*
X0068203Y0046596D01*
X0068119Y0046462D01*
X0068030Y0046331D01*
X0067939Y0046202D01*
X0067844Y0046075D01*
X0067747Y0045950D01*
X0067646Y0045828D01*
X0067542Y0045709D01*
X0067435Y0045592D01*
X0067325Y0045478D01*
X0067212Y0045367D01*
X0067097Y0045258D01*
X0066979Y0045153D01*
X0066858Y0045051D01*
X0066735Y0044951D01*
X0066609Y0044855D01*
X0066481Y0044762D01*
X0066351Y0044672D01*
X0066218Y0044586D01*
X0066083Y0044502D01*
X0065947Y0044423D01*
X0065808Y0044346D01*
X0065667Y0044274D01*
X0065525Y0044204D01*
X0065381Y0044139D01*
X0065235Y0044077D01*
X0065088Y0044019D01*
X0064939Y0043964D01*
X0064789Y0043913D01*
X0064638Y0043866D01*
X0064486Y0043823D01*
X0064333Y0043784D01*
X0064178Y0043748D01*
X0064023Y0043717D01*
X0063867Y0043689D01*
X0063711Y0043665D01*
X0063554Y0043645D01*
X0063396Y0043629D01*
X0063239Y0043617D01*
X0063080Y0043609D01*
X0062922Y0043605D01*
X0062764Y0043605D01*
X0062606Y0043609D01*
X0062447Y0043617D01*
X0062290Y0043629D01*
X0062132Y0043645D01*
X0061975Y0043665D01*
X0061819Y0043689D01*
X0061663Y0043717D01*
X0061508Y0043748D01*
X0061353Y0043784D01*
X0061200Y0043823D01*
X0061048Y0043866D01*
X0060897Y0043913D01*
X0060747Y0043964D01*
X0060598Y0044019D01*
X0060451Y0044077D01*
X0060305Y0044139D01*
X0060161Y0044204D01*
X0060019Y0044274D01*
X0059878Y0044346D01*
X0059739Y0044423D01*
X0059603Y0044502D01*
X0059468Y0044586D01*
X0059335Y0044672D01*
X0059205Y0044762D01*
X0059077Y0044855D01*
X0058951Y0044951D01*
X0058828Y0045051D01*
X0058707Y0045153D01*
X0058589Y0045258D01*
X0058474Y0045367D01*
X0058361Y0045478D01*
X0058251Y0045592D01*
X0058144Y0045709D01*
X0058040Y0045828D01*
X0057939Y0045950D01*
X0057842Y0046075D01*
X0057747Y0046202D01*
X0057656Y0046331D01*
X0057567Y0046462D01*
X0057483Y0046596D01*
X0057401Y0046732D01*
X0057323Y0046869D01*
X0057249Y0047009D01*
X0057178Y0047151D01*
X0057110Y0047294D01*
X0057046Y0047439D01*
X0056986Y0047585D01*
X0056930Y0047733D01*
X0056877Y0047882D01*
X0056828Y0048033D01*
X0056783Y0048185D01*
X0056742Y0048338D01*
X0056704Y0048491D01*
X0056671Y0048646D01*
X0056641Y0048802D01*
X0056615Y0048958D01*
X0056594Y0049115D01*
X0056576Y0049272D01*
X0056562Y0049430D01*
X0056552Y0049588D01*
X0056546Y0049746D01*
X0056544Y0049904D01*
X0047095Y0049904D02*
X0047100Y0049523D01*
X0047113Y0049143D01*
X0047136Y0048763D01*
X0047169Y0048384D01*
X0047210Y0048006D01*
X0047260Y0047629D01*
X0047320Y0047253D01*
X0047388Y0046878D01*
X0047466Y0046506D01*
X0047553Y0046135D01*
X0047648Y0045767D01*
X0047753Y0045401D01*
X0047866Y0045038D01*
X0047988Y0044677D01*
X0048118Y0044320D01*
X0048258Y0043966D01*
X0048405Y0043615D01*
X0048562Y0043268D01*
X0048726Y0042925D01*
X0048899Y0042586D01*
X0049080Y0042251D01*
X0049269Y0041920D01*
X0049466Y0041595D01*
X0049670Y0041274D01*
X0049883Y0040958D01*
X0050103Y0040648D01*
X0050330Y0040342D01*
X0050565Y0040043D01*
X0050807Y0039749D01*
X0051055Y0039461D01*
X0051311Y0039179D01*
X0051574Y0038904D01*
X0051843Y0038635D01*
X0052118Y0038372D01*
X0052400Y0038116D01*
X0052688Y0037868D01*
X0052982Y0037626D01*
X0053281Y0037391D01*
X0053587Y0037164D01*
X0053897Y0036944D01*
X0054213Y0036731D01*
X0054534Y0036527D01*
X0054859Y0036330D01*
X0055190Y0036141D01*
X0055525Y0035960D01*
X0055864Y0035787D01*
X0056207Y0035623D01*
X0056554Y0035466D01*
X0056905Y0035319D01*
X0057259Y0035179D01*
X0057616Y0035049D01*
X0057977Y0034927D01*
X0058340Y0034814D01*
X0058706Y0034709D01*
X0059074Y0034614D01*
X0059445Y0034527D01*
X0059817Y0034449D01*
X0060192Y0034381D01*
X0060568Y0034321D01*
X0060945Y0034271D01*
X0061323Y0034230D01*
X0061702Y0034197D01*
X0062082Y0034174D01*
X0062462Y0034161D01*
X0062843Y0034156D01*
X0047094Y0049904D02*
X0047094Y0187699D01*
X0056544Y0187699D02*
X0056546Y0187857D01*
X0056552Y0188015D01*
X0056562Y0188173D01*
X0056576Y0188331D01*
X0056594Y0188488D01*
X0056615Y0188645D01*
X0056641Y0188801D01*
X0056671Y0188957D01*
X0056704Y0189112D01*
X0056742Y0189265D01*
X0056783Y0189418D01*
X0056828Y0189570D01*
X0056877Y0189721D01*
X0056930Y0189870D01*
X0056986Y0190018D01*
X0057046Y0190164D01*
X0057110Y0190309D01*
X0057178Y0190452D01*
X0057249Y0190594D01*
X0057323Y0190734D01*
X0057401Y0190871D01*
X0057483Y0191007D01*
X0057567Y0191141D01*
X0057656Y0191272D01*
X0057747Y0191401D01*
X0057842Y0191528D01*
X0057939Y0191653D01*
X0058040Y0191775D01*
X0058144Y0191894D01*
X0058251Y0192011D01*
X0058361Y0192125D01*
X0058474Y0192236D01*
X0058589Y0192345D01*
X0058707Y0192450D01*
X0058828Y0192552D01*
X0058951Y0192652D01*
X0059077Y0192748D01*
X0059205Y0192841D01*
X0059335Y0192931D01*
X0059468Y0193017D01*
X0059603Y0193101D01*
X0059739Y0193180D01*
X0059878Y0193257D01*
X0060019Y0193329D01*
X0060161Y0193399D01*
X0060305Y0193464D01*
X0060451Y0193526D01*
X0060598Y0193584D01*
X0060747Y0193639D01*
X0060897Y0193690D01*
X0061048Y0193737D01*
X0061200Y0193780D01*
X0061353Y0193819D01*
X0061508Y0193855D01*
X0061663Y0193886D01*
X0061819Y0193914D01*
X0061975Y0193938D01*
X0062132Y0193958D01*
X0062290Y0193974D01*
X0062447Y0193986D01*
X0062606Y0193994D01*
X0062764Y0193998D01*
X0062922Y0193998D01*
X0063080Y0193994D01*
X0063239Y0193986D01*
X0063396Y0193974D01*
X0063554Y0193958D01*
X0063711Y0193938D01*
X0063867Y0193914D01*
X0064023Y0193886D01*
X0064178Y0193855D01*
X0064333Y0193819D01*
X0064486Y0193780D01*
X0064638Y0193737D01*
X0064789Y0193690D01*
X0064939Y0193639D01*
X0065088Y0193584D01*
X0065235Y0193526D01*
X0065381Y0193464D01*
X0065525Y0193399D01*
X0065667Y0193329D01*
X0065808Y0193257D01*
X0065947Y0193180D01*
X0066083Y0193101D01*
X0066218Y0193017D01*
X0066351Y0192931D01*
X0066481Y0192841D01*
X0066609Y0192748D01*
X0066735Y0192652D01*
X0066858Y0192552D01*
X0066979Y0192450D01*
X0067097Y0192345D01*
X0067212Y0192236D01*
X0067325Y0192125D01*
X0067435Y0192011D01*
X0067542Y0191894D01*
X0067646Y0191775D01*
X0067747Y0191653D01*
X0067844Y0191528D01*
X0067939Y0191401D01*
X0068030Y0191272D01*
X0068119Y0191141D01*
X0068203Y0191007D01*
X0068285Y0190871D01*
X0068363Y0190734D01*
X0068437Y0190594D01*
X0068508Y0190452D01*
X0068576Y0190309D01*
X0068640Y0190164D01*
X0068700Y0190018D01*
X0068756Y0189870D01*
X0068809Y0189721D01*
X0068858Y0189570D01*
X0068903Y0189418D01*
X0068944Y0189265D01*
X0068982Y0189112D01*
X0069015Y0188957D01*
X0069045Y0188801D01*
X0069071Y0188645D01*
X0069092Y0188488D01*
X0069110Y0188331D01*
X0069124Y0188173D01*
X0069134Y0188015D01*
X0069140Y0187857D01*
X0069142Y0187699D01*
X0069140Y0187541D01*
X0069134Y0187383D01*
X0069124Y0187225D01*
X0069110Y0187067D01*
X0069092Y0186910D01*
X0069071Y0186753D01*
X0069045Y0186597D01*
X0069015Y0186441D01*
X0068982Y0186286D01*
X0068944Y0186133D01*
X0068903Y0185980D01*
X0068858Y0185828D01*
X0068809Y0185677D01*
X0068756Y0185528D01*
X0068700Y0185380D01*
X0068640Y0185234D01*
X0068576Y0185089D01*
X0068508Y0184946D01*
X0068437Y0184804D01*
X0068363Y0184664D01*
X0068285Y0184527D01*
X0068203Y0184391D01*
X0068119Y0184257D01*
X0068030Y0184126D01*
X0067939Y0183997D01*
X0067844Y0183870D01*
X0067747Y0183745D01*
X0067646Y0183623D01*
X0067542Y0183504D01*
X0067435Y0183387D01*
X0067325Y0183273D01*
X0067212Y0183162D01*
X0067097Y0183053D01*
X0066979Y0182948D01*
X0066858Y0182846D01*
X0066735Y0182746D01*
X0066609Y0182650D01*
X0066481Y0182557D01*
X0066351Y0182467D01*
X0066218Y0182381D01*
X0066083Y0182297D01*
X0065947Y0182218D01*
X0065808Y0182141D01*
X0065667Y0182069D01*
X0065525Y0181999D01*
X0065381Y0181934D01*
X0065235Y0181872D01*
X0065088Y0181814D01*
X0064939Y0181759D01*
X0064789Y0181708D01*
X0064638Y0181661D01*
X0064486Y0181618D01*
X0064333Y0181579D01*
X0064178Y0181543D01*
X0064023Y0181512D01*
X0063867Y0181484D01*
X0063711Y0181460D01*
X0063554Y0181440D01*
X0063396Y0181424D01*
X0063239Y0181412D01*
X0063080Y0181404D01*
X0062922Y0181400D01*
X0062764Y0181400D01*
X0062606Y0181404D01*
X0062447Y0181412D01*
X0062290Y0181424D01*
X0062132Y0181440D01*
X0061975Y0181460D01*
X0061819Y0181484D01*
X0061663Y0181512D01*
X0061508Y0181543D01*
X0061353Y0181579D01*
X0061200Y0181618D01*
X0061048Y0181661D01*
X0060897Y0181708D01*
X0060747Y0181759D01*
X0060598Y0181814D01*
X0060451Y0181872D01*
X0060305Y0181934D01*
X0060161Y0181999D01*
X0060019Y0182069D01*
X0059878Y0182141D01*
X0059739Y0182218D01*
X0059603Y0182297D01*
X0059468Y0182381D01*
X0059335Y0182467D01*
X0059205Y0182557D01*
X0059077Y0182650D01*
X0058951Y0182746D01*
X0058828Y0182846D01*
X0058707Y0182948D01*
X0058589Y0183053D01*
X0058474Y0183162D01*
X0058361Y0183273D01*
X0058251Y0183387D01*
X0058144Y0183504D01*
X0058040Y0183623D01*
X0057939Y0183745D01*
X0057842Y0183870D01*
X0057747Y0183997D01*
X0057656Y0184126D01*
X0057567Y0184257D01*
X0057483Y0184391D01*
X0057401Y0184527D01*
X0057323Y0184664D01*
X0057249Y0184804D01*
X0057178Y0184946D01*
X0057110Y0185089D01*
X0057046Y0185234D01*
X0056986Y0185380D01*
X0056930Y0185528D01*
X0056877Y0185677D01*
X0056828Y0185828D01*
X0056783Y0185980D01*
X0056742Y0186133D01*
X0056704Y0186286D01*
X0056671Y0186441D01*
X0056641Y0186597D01*
X0056615Y0186753D01*
X0056594Y0186910D01*
X0056576Y0187067D01*
X0056562Y0187225D01*
X0056552Y0187383D01*
X0056546Y0187541D01*
X0056544Y0187699D01*
X0047095Y0187699D02*
X0047100Y0188080D01*
X0047113Y0188460D01*
X0047136Y0188840D01*
X0047169Y0189219D01*
X0047210Y0189597D01*
X0047260Y0189974D01*
X0047320Y0190350D01*
X0047388Y0190725D01*
X0047466Y0191097D01*
X0047553Y0191468D01*
X0047648Y0191836D01*
X0047753Y0192202D01*
X0047866Y0192565D01*
X0047988Y0192926D01*
X0048118Y0193283D01*
X0048258Y0193637D01*
X0048405Y0193988D01*
X0048562Y0194335D01*
X0048726Y0194678D01*
X0048899Y0195017D01*
X0049080Y0195352D01*
X0049269Y0195683D01*
X0049466Y0196008D01*
X0049670Y0196329D01*
X0049883Y0196645D01*
X0050103Y0196955D01*
X0050330Y0197261D01*
X0050565Y0197560D01*
X0050807Y0197854D01*
X0051055Y0198142D01*
X0051311Y0198424D01*
X0051574Y0198699D01*
X0051843Y0198968D01*
X0052118Y0199231D01*
X0052400Y0199487D01*
X0052688Y0199735D01*
X0052982Y0199977D01*
X0053281Y0200212D01*
X0053587Y0200439D01*
X0053897Y0200659D01*
X0054213Y0200872D01*
X0054534Y0201076D01*
X0054859Y0201273D01*
X0055190Y0201462D01*
X0055525Y0201643D01*
X0055864Y0201816D01*
X0056207Y0201980D01*
X0056554Y0202137D01*
X0056905Y0202284D01*
X0057259Y0202424D01*
X0057616Y0202554D01*
X0057977Y0202676D01*
X0058340Y0202789D01*
X0058706Y0202894D01*
X0059074Y0202989D01*
X0059445Y0203076D01*
X0059817Y0203154D01*
X0060192Y0203222D01*
X0060568Y0203282D01*
X0060945Y0203332D01*
X0061323Y0203373D01*
X0061702Y0203406D01*
X0062082Y0203429D01*
X0062462Y0203442D01*
X0062843Y0203447D01*
X0062843Y0203448D02*
X0306937Y0203448D01*
X0300638Y0187699D02*
X0300640Y0187857D01*
X0300646Y0188015D01*
X0300656Y0188173D01*
X0300670Y0188331D01*
X0300688Y0188488D01*
X0300709Y0188645D01*
X0300735Y0188801D01*
X0300765Y0188957D01*
X0300798Y0189112D01*
X0300836Y0189265D01*
X0300877Y0189418D01*
X0300922Y0189570D01*
X0300971Y0189721D01*
X0301024Y0189870D01*
X0301080Y0190018D01*
X0301140Y0190164D01*
X0301204Y0190309D01*
X0301272Y0190452D01*
X0301343Y0190594D01*
X0301417Y0190734D01*
X0301495Y0190871D01*
X0301577Y0191007D01*
X0301661Y0191141D01*
X0301750Y0191272D01*
X0301841Y0191401D01*
X0301936Y0191528D01*
X0302033Y0191653D01*
X0302134Y0191775D01*
X0302238Y0191894D01*
X0302345Y0192011D01*
X0302455Y0192125D01*
X0302568Y0192236D01*
X0302683Y0192345D01*
X0302801Y0192450D01*
X0302922Y0192552D01*
X0303045Y0192652D01*
X0303171Y0192748D01*
X0303299Y0192841D01*
X0303429Y0192931D01*
X0303562Y0193017D01*
X0303697Y0193101D01*
X0303833Y0193180D01*
X0303972Y0193257D01*
X0304113Y0193329D01*
X0304255Y0193399D01*
X0304399Y0193464D01*
X0304545Y0193526D01*
X0304692Y0193584D01*
X0304841Y0193639D01*
X0304991Y0193690D01*
X0305142Y0193737D01*
X0305294Y0193780D01*
X0305447Y0193819D01*
X0305602Y0193855D01*
X0305757Y0193886D01*
X0305913Y0193914D01*
X0306069Y0193938D01*
X0306226Y0193958D01*
X0306384Y0193974D01*
X0306541Y0193986D01*
X0306700Y0193994D01*
X0306858Y0193998D01*
X0307016Y0193998D01*
X0307174Y0193994D01*
X0307333Y0193986D01*
X0307490Y0193974D01*
X0307648Y0193958D01*
X0307805Y0193938D01*
X0307961Y0193914D01*
X0308117Y0193886D01*
X0308272Y0193855D01*
X0308427Y0193819D01*
X0308580Y0193780D01*
X0308732Y0193737D01*
X0308883Y0193690D01*
X0309033Y0193639D01*
X0309182Y0193584D01*
X0309329Y0193526D01*
X0309475Y0193464D01*
X0309619Y0193399D01*
X0309761Y0193329D01*
X0309902Y0193257D01*
X0310041Y0193180D01*
X0310177Y0193101D01*
X0310312Y0193017D01*
X0310445Y0192931D01*
X0310575Y0192841D01*
X0310703Y0192748D01*
X0310829Y0192652D01*
X0310952Y0192552D01*
X0311073Y0192450D01*
X0311191Y0192345D01*
X0311306Y0192236D01*
X0311419Y0192125D01*
X0311529Y0192011D01*
X0311636Y0191894D01*
X0311740Y0191775D01*
X0311841Y0191653D01*
X0311938Y0191528D01*
X0312033Y0191401D01*
X0312124Y0191272D01*
X0312213Y0191141D01*
X0312297Y0191007D01*
X0312379Y0190871D01*
X0312457Y0190734D01*
X0312531Y0190594D01*
X0312602Y0190452D01*
X0312670Y0190309D01*
X0312734Y0190164D01*
X0312794Y0190018D01*
X0312850Y0189870D01*
X0312903Y0189721D01*
X0312952Y0189570D01*
X0312997Y0189418D01*
X0313038Y0189265D01*
X0313076Y0189112D01*
X0313109Y0188957D01*
X0313139Y0188801D01*
X0313165Y0188645D01*
X0313186Y0188488D01*
X0313204Y0188331D01*
X0313218Y0188173D01*
X0313228Y0188015D01*
X0313234Y0187857D01*
X0313236Y0187699D01*
X0313234Y0187541D01*
X0313228Y0187383D01*
X0313218Y0187225D01*
X0313204Y0187067D01*
X0313186Y0186910D01*
X0313165Y0186753D01*
X0313139Y0186597D01*
X0313109Y0186441D01*
X0313076Y0186286D01*
X0313038Y0186133D01*
X0312997Y0185980D01*
X0312952Y0185828D01*
X0312903Y0185677D01*
X0312850Y0185528D01*
X0312794Y0185380D01*
X0312734Y0185234D01*
X0312670Y0185089D01*
X0312602Y0184946D01*
X0312531Y0184804D01*
X0312457Y0184664D01*
X0312379Y0184527D01*
X0312297Y0184391D01*
X0312213Y0184257D01*
X0312124Y0184126D01*
X0312033Y0183997D01*
X0311938Y0183870D01*
X0311841Y0183745D01*
X0311740Y0183623D01*
X0311636Y0183504D01*
X0311529Y0183387D01*
X0311419Y0183273D01*
X0311306Y0183162D01*
X0311191Y0183053D01*
X0311073Y0182948D01*
X0310952Y0182846D01*
X0310829Y0182746D01*
X0310703Y0182650D01*
X0310575Y0182557D01*
X0310445Y0182467D01*
X0310312Y0182381D01*
X0310177Y0182297D01*
X0310041Y0182218D01*
X0309902Y0182141D01*
X0309761Y0182069D01*
X0309619Y0181999D01*
X0309475Y0181934D01*
X0309329Y0181872D01*
X0309182Y0181814D01*
X0309033Y0181759D01*
X0308883Y0181708D01*
X0308732Y0181661D01*
X0308580Y0181618D01*
X0308427Y0181579D01*
X0308272Y0181543D01*
X0308117Y0181512D01*
X0307961Y0181484D01*
X0307805Y0181460D01*
X0307648Y0181440D01*
X0307490Y0181424D01*
X0307333Y0181412D01*
X0307174Y0181404D01*
X0307016Y0181400D01*
X0306858Y0181400D01*
X0306700Y0181404D01*
X0306541Y0181412D01*
X0306384Y0181424D01*
X0306226Y0181440D01*
X0306069Y0181460D01*
X0305913Y0181484D01*
X0305757Y0181512D01*
X0305602Y0181543D01*
X0305447Y0181579D01*
X0305294Y0181618D01*
X0305142Y0181661D01*
X0304991Y0181708D01*
X0304841Y0181759D01*
X0304692Y0181814D01*
X0304545Y0181872D01*
X0304399Y0181934D01*
X0304255Y0181999D01*
X0304113Y0182069D01*
X0303972Y0182141D01*
X0303833Y0182218D01*
X0303697Y0182297D01*
X0303562Y0182381D01*
X0303429Y0182467D01*
X0303299Y0182557D01*
X0303171Y0182650D01*
X0303045Y0182746D01*
X0302922Y0182846D01*
X0302801Y0182948D01*
X0302683Y0183053D01*
X0302568Y0183162D01*
X0302455Y0183273D01*
X0302345Y0183387D01*
X0302238Y0183504D01*
X0302134Y0183623D01*
X0302033Y0183745D01*
X0301936Y0183870D01*
X0301841Y0183997D01*
X0301750Y0184126D01*
X0301661Y0184257D01*
X0301577Y0184391D01*
X0301495Y0184527D01*
X0301417Y0184664D01*
X0301343Y0184804D01*
X0301272Y0184946D01*
X0301204Y0185089D01*
X0301140Y0185234D01*
X0301080Y0185380D01*
X0301024Y0185528D01*
X0300971Y0185677D01*
X0300922Y0185828D01*
X0300877Y0185980D01*
X0300836Y0186133D01*
X0300798Y0186286D01*
X0300765Y0186441D01*
X0300735Y0186597D01*
X0300709Y0186753D01*
X0300688Y0186910D01*
X0300670Y0187067D01*
X0300656Y0187225D01*
X0300646Y0187383D01*
X0300640Y0187541D01*
X0300638Y0187699D01*
X0306937Y0203447D02*
X0307318Y0203442D01*
X0307698Y0203429D01*
X0308078Y0203406D01*
X0308457Y0203373D01*
X0308835Y0203332D01*
X0309212Y0203282D01*
X0309588Y0203222D01*
X0309963Y0203154D01*
X0310335Y0203076D01*
X0310706Y0202989D01*
X0311074Y0202894D01*
X0311440Y0202789D01*
X0311803Y0202676D01*
X0312164Y0202554D01*
X0312521Y0202424D01*
X0312875Y0202284D01*
X0313226Y0202137D01*
X0313573Y0201980D01*
X0313916Y0201816D01*
X0314255Y0201643D01*
X0314590Y0201462D01*
X0314921Y0201273D01*
X0315246Y0201076D01*
X0315567Y0200872D01*
X0315883Y0200659D01*
X0316193Y0200439D01*
X0316499Y0200212D01*
X0316798Y0199977D01*
X0317092Y0199735D01*
X0317380Y0199487D01*
X0317662Y0199231D01*
X0317937Y0198968D01*
X0318206Y0198699D01*
X0318469Y0198424D01*
X0318725Y0198142D01*
X0318973Y0197854D01*
X0319215Y0197560D01*
X0319450Y0197261D01*
X0319677Y0196955D01*
X0319897Y0196645D01*
X0320110Y0196329D01*
X0320314Y0196008D01*
X0320511Y0195683D01*
X0320700Y0195352D01*
X0320881Y0195017D01*
X0321054Y0194678D01*
X0321218Y0194335D01*
X0321375Y0193988D01*
X0321522Y0193637D01*
X0321662Y0193283D01*
X0321792Y0192926D01*
X0321914Y0192565D01*
X0322027Y0192202D01*
X0322132Y0191836D01*
X0322227Y0191468D01*
X0322314Y0191097D01*
X0322392Y0190725D01*
X0322460Y0190350D01*
X0322520Y0189974D01*
X0322570Y0189597D01*
X0322611Y0189219D01*
X0322644Y0188840D01*
X0322667Y0188460D01*
X0322680Y0188080D01*
X0322685Y0187699D01*
X0322685Y0049904D01*
X0300638Y0049904D02*
X0300640Y0050062D01*
X0300646Y0050220D01*
X0300656Y0050378D01*
X0300670Y0050536D01*
X0300688Y0050693D01*
X0300709Y0050850D01*
X0300735Y0051006D01*
X0300765Y0051162D01*
X0300798Y0051317D01*
X0300836Y0051470D01*
X0300877Y0051623D01*
X0300922Y0051775D01*
X0300971Y0051926D01*
X0301024Y0052075D01*
X0301080Y0052223D01*
X0301140Y0052369D01*
X0301204Y0052514D01*
X0301272Y0052657D01*
X0301343Y0052799D01*
X0301417Y0052939D01*
X0301495Y0053076D01*
X0301577Y0053212D01*
X0301661Y0053346D01*
X0301750Y0053477D01*
X0301841Y0053606D01*
X0301936Y0053733D01*
X0302033Y0053858D01*
X0302134Y0053980D01*
X0302238Y0054099D01*
X0302345Y0054216D01*
X0302455Y0054330D01*
X0302568Y0054441D01*
X0302683Y0054550D01*
X0302801Y0054655D01*
X0302922Y0054757D01*
X0303045Y0054857D01*
X0303171Y0054953D01*
X0303299Y0055046D01*
X0303429Y0055136D01*
X0303562Y0055222D01*
X0303697Y0055306D01*
X0303833Y0055385D01*
X0303972Y0055462D01*
X0304113Y0055534D01*
X0304255Y0055604D01*
X0304399Y0055669D01*
X0304545Y0055731D01*
X0304692Y0055789D01*
X0304841Y0055844D01*
X0304991Y0055895D01*
X0305142Y0055942D01*
X0305294Y0055985D01*
X0305447Y0056024D01*
X0305602Y0056060D01*
X0305757Y0056091D01*
X0305913Y0056119D01*
X0306069Y0056143D01*
X0306226Y0056163D01*
X0306384Y0056179D01*
X0306541Y0056191D01*
X0306700Y0056199D01*
X0306858Y0056203D01*
X0307016Y0056203D01*
X0307174Y0056199D01*
X0307333Y0056191D01*
X0307490Y0056179D01*
X0307648Y0056163D01*
X0307805Y0056143D01*
X0307961Y0056119D01*
X0308117Y0056091D01*
X0308272Y0056060D01*
X0308427Y0056024D01*
X0308580Y0055985D01*
X0308732Y0055942D01*
X0308883Y0055895D01*
X0309033Y0055844D01*
X0309182Y0055789D01*
X0309329Y0055731D01*
X0309475Y0055669D01*
X0309619Y0055604D01*
X0309761Y0055534D01*
X0309902Y0055462D01*
X0310041Y0055385D01*
X0310177Y0055306D01*
X0310312Y0055222D01*
X0310445Y0055136D01*
X0310575Y0055046D01*
X0310703Y0054953D01*
X0310829Y0054857D01*
X0310952Y0054757D01*
X0311073Y0054655D01*
X0311191Y0054550D01*
X0311306Y0054441D01*
X0311419Y0054330D01*
X0311529Y0054216D01*
X0311636Y0054099D01*
X0311740Y0053980D01*
X0311841Y0053858D01*
X0311938Y0053733D01*
X0312033Y0053606D01*
X0312124Y0053477D01*
X0312213Y0053346D01*
X0312297Y0053212D01*
X0312379Y0053076D01*
X0312457Y0052939D01*
X0312531Y0052799D01*
X0312602Y0052657D01*
X0312670Y0052514D01*
X0312734Y0052369D01*
X0312794Y0052223D01*
X0312850Y0052075D01*
X0312903Y0051926D01*
X0312952Y0051775D01*
X0312997Y0051623D01*
X0313038Y0051470D01*
X0313076Y0051317D01*
X0313109Y0051162D01*
X0313139Y0051006D01*
X0313165Y0050850D01*
X0313186Y0050693D01*
X0313204Y0050536D01*
X0313218Y0050378D01*
X0313228Y0050220D01*
X0313234Y0050062D01*
X0313236Y0049904D01*
X0313234Y0049746D01*
X0313228Y0049588D01*
X0313218Y0049430D01*
X0313204Y0049272D01*
X0313186Y0049115D01*
X0313165Y0048958D01*
X0313139Y0048802D01*
X0313109Y0048646D01*
X0313076Y0048491D01*
X0313038Y0048338D01*
X0312997Y0048185D01*
X0312952Y0048033D01*
X0312903Y0047882D01*
X0312850Y0047733D01*
X0312794Y0047585D01*
X0312734Y0047439D01*
X0312670Y0047294D01*
X0312602Y0047151D01*
X0312531Y0047009D01*
X0312457Y0046869D01*
X0312379Y0046732D01*
X0312297Y0046596D01*
X0312213Y0046462D01*
X0312124Y0046331D01*
X0312033Y0046202D01*
X0311938Y0046075D01*
X0311841Y0045950D01*
X0311740Y0045828D01*
X0311636Y0045709D01*
X0311529Y0045592D01*
X0311419Y0045478D01*
X0311306Y0045367D01*
X0311191Y0045258D01*
X0311073Y0045153D01*
X0310952Y0045051D01*
X0310829Y0044951D01*
X0310703Y0044855D01*
X0310575Y0044762D01*
X0310445Y0044672D01*
X0310312Y0044586D01*
X0310177Y0044502D01*
X0310041Y0044423D01*
X0309902Y0044346D01*
X0309761Y0044274D01*
X0309619Y0044204D01*
X0309475Y0044139D01*
X0309329Y0044077D01*
X0309182Y0044019D01*
X0309033Y0043964D01*
X0308883Y0043913D01*
X0308732Y0043866D01*
X0308580Y0043823D01*
X0308427Y0043784D01*
X0308272Y0043748D01*
X0308117Y0043717D01*
X0307961Y0043689D01*
X0307805Y0043665D01*
X0307648Y0043645D01*
X0307490Y0043629D01*
X0307333Y0043617D01*
X0307174Y0043609D01*
X0307016Y0043605D01*
X0306858Y0043605D01*
X0306700Y0043609D01*
X0306541Y0043617D01*
X0306384Y0043629D01*
X0306226Y0043645D01*
X0306069Y0043665D01*
X0305913Y0043689D01*
X0305757Y0043717D01*
X0305602Y0043748D01*
X0305447Y0043784D01*
X0305294Y0043823D01*
X0305142Y0043866D01*
X0304991Y0043913D01*
X0304841Y0043964D01*
X0304692Y0044019D01*
X0304545Y0044077D01*
X0304399Y0044139D01*
X0304255Y0044204D01*
X0304113Y0044274D01*
X0303972Y0044346D01*
X0303833Y0044423D01*
X0303697Y0044502D01*
X0303562Y0044586D01*
X0303429Y0044672D01*
X0303299Y0044762D01*
X0303171Y0044855D01*
X0303045Y0044951D01*
X0302922Y0045051D01*
X0302801Y0045153D01*
X0302683Y0045258D01*
X0302568Y0045367D01*
X0302455Y0045478D01*
X0302345Y0045592D01*
X0302238Y0045709D01*
X0302134Y0045828D01*
X0302033Y0045950D01*
X0301936Y0046075D01*
X0301841Y0046202D01*
X0301750Y0046331D01*
X0301661Y0046462D01*
X0301577Y0046596D01*
X0301495Y0046732D01*
X0301417Y0046869D01*
X0301343Y0047009D01*
X0301272Y0047151D01*
X0301204Y0047294D01*
X0301140Y0047439D01*
X0301080Y0047585D01*
X0301024Y0047733D01*
X0300971Y0047882D01*
X0300922Y0048033D01*
X0300877Y0048185D01*
X0300836Y0048338D01*
X0300798Y0048491D01*
X0300765Y0048646D01*
X0300735Y0048802D01*
X0300709Y0048958D01*
X0300688Y0049115D01*
X0300670Y0049272D01*
X0300656Y0049430D01*
X0300646Y0049588D01*
X0300640Y0049746D01*
X0300638Y0049904D01*
X0306937Y0034156D02*
X0307318Y0034161D01*
X0307698Y0034174D01*
X0308078Y0034197D01*
X0308457Y0034230D01*
X0308835Y0034271D01*
X0309212Y0034321D01*
X0309588Y0034381D01*
X0309963Y0034449D01*
X0310335Y0034527D01*
X0310706Y0034614D01*
X0311074Y0034709D01*
X0311440Y0034814D01*
X0311803Y0034927D01*
X0312164Y0035049D01*
X0312521Y0035179D01*
X0312875Y0035319D01*
X0313226Y0035466D01*
X0313573Y0035623D01*
X0313916Y0035787D01*
X0314255Y0035960D01*
X0314590Y0036141D01*
X0314921Y0036330D01*
X0315246Y0036527D01*
X0315567Y0036731D01*
X0315883Y0036944D01*
X0316193Y0037164D01*
X0316499Y0037391D01*
X0316798Y0037626D01*
X0317092Y0037868D01*
X0317380Y0038116D01*
X0317662Y0038372D01*
X0317937Y0038635D01*
X0318206Y0038904D01*
X0318469Y0039179D01*
X0318725Y0039461D01*
X0318973Y0039749D01*
X0319215Y0040043D01*
X0319450Y0040342D01*
X0319677Y0040648D01*
X0319897Y0040958D01*
X0320110Y0041274D01*
X0320314Y0041595D01*
X0320511Y0041920D01*
X0320700Y0042251D01*
X0320881Y0042586D01*
X0321054Y0042925D01*
X0321218Y0043268D01*
X0321375Y0043615D01*
X0321522Y0043966D01*
X0321662Y0044320D01*
X0321792Y0044677D01*
X0321914Y0045038D01*
X0322027Y0045401D01*
X0322132Y0045767D01*
X0322227Y0046135D01*
X0322314Y0046506D01*
X0322392Y0046878D01*
X0322460Y0047253D01*
X0322520Y0047629D01*
X0322570Y0048006D01*
X0322611Y0048384D01*
X0322644Y0048763D01*
X0322667Y0049143D01*
X0322680Y0049523D01*
X0322685Y0049904D01*
M02*
