G75*
%MOIN*%
%OFA0B0*%
%FSLAX25Y25*%
%IPPOS*%
%LPD*%
%AMOC8*
5,1,8,0,0,1.08239X$1,22.5*
%
%ADD10C,0.00600*%
%ADD11C,0.00000*%
%ADD12C,0.00400*%
D10*
X0123894Y0049086D02*
X0123894Y0051221D01*
X0124962Y0052289D01*
X0124962Y0054464D02*
X0123894Y0055532D01*
X0123894Y0057667D01*
X0124962Y0058734D01*
X0127097Y0058734D01*
X0128165Y0057667D01*
X0128165Y0055532D01*
X0127097Y0054464D01*
X0124962Y0054464D01*
X0129232Y0052289D02*
X0130300Y0051221D01*
X0130300Y0049086D01*
X0129232Y0048018D01*
X0124962Y0048018D01*
X0123894Y0049086D01*
X0123894Y0060909D02*
X0128165Y0060909D01*
X0128165Y0064112D01*
X0127097Y0065180D01*
X0123894Y0065180D01*
X0127097Y0067355D02*
X0127097Y0069490D01*
X0129232Y0068423D02*
X0130300Y0069490D01*
X0129232Y0068423D02*
X0123894Y0068423D01*
X0123894Y0071652D02*
X0123894Y0073787D01*
X0123894Y0072720D02*
X0128165Y0072720D01*
X0128165Y0071652D01*
X0130300Y0072720D02*
X0131368Y0072720D01*
X0134394Y0072169D02*
X0134394Y0070034D01*
X0135462Y0068966D01*
X0135462Y0066791D02*
X0134394Y0065724D01*
X0134394Y0063588D01*
X0135462Y0062521D01*
X0137597Y0063588D02*
X0137597Y0065724D01*
X0136530Y0066791D01*
X0135462Y0066791D01*
X0137597Y0063588D02*
X0138665Y0062521D01*
X0139732Y0062521D01*
X0140800Y0063588D01*
X0140800Y0065724D01*
X0139732Y0066791D01*
X0139732Y0068966D02*
X0138665Y0068966D01*
X0137597Y0070034D01*
X0137597Y0072169D01*
X0136530Y0073237D01*
X0135462Y0073237D01*
X0134394Y0072169D01*
X0139732Y0073237D02*
X0140800Y0072169D01*
X0140800Y0070034D01*
X0139732Y0068966D01*
X0140800Y0075412D02*
X0140800Y0077547D01*
X0140800Y0076479D02*
X0134394Y0076479D01*
X0134394Y0075412D02*
X0134394Y0077547D01*
X0134394Y0079709D02*
X0134394Y0082912D01*
X0135462Y0083979D01*
X0139732Y0083979D01*
X0140800Y0082912D01*
X0140800Y0079709D01*
X0134394Y0079709D01*
X0128165Y0080219D02*
X0128165Y0077016D01*
X0127097Y0075949D01*
X0124962Y0075949D01*
X0123894Y0077016D01*
X0123894Y0080219D01*
X0122827Y0080219D02*
X0121759Y0079152D01*
X0121759Y0078084D01*
X0122827Y0080219D02*
X0128165Y0080219D01*
X0128165Y0082394D02*
X0127097Y0082394D01*
X0127097Y0083462D01*
X0128165Y0083462D01*
X0128165Y0082394D01*
X0124962Y0082394D02*
X0123894Y0082394D01*
X0123894Y0083462D01*
X0124962Y0083462D01*
X0124962Y0082394D01*
X0119800Y0079696D02*
X0117665Y0077560D01*
X0115530Y0077560D01*
X0113394Y0079696D01*
X0114462Y0081857D02*
X0113394Y0082925D01*
X0113394Y0086128D01*
X0113394Y0088303D02*
X0115530Y0090438D01*
X0117665Y0090438D01*
X0119800Y0088303D01*
X0117665Y0086128D02*
X0117665Y0082925D01*
X0116597Y0081857D01*
X0114462Y0081857D01*
X0123894Y0092063D02*
X0130300Y0092063D01*
X0128165Y0093130D02*
X0127097Y0092063D01*
X0128165Y0093130D02*
X0128165Y0095265D01*
X0127097Y0096333D01*
X0123894Y0096333D01*
X0124962Y0099576D02*
X0123894Y0100643D01*
X0124962Y0099576D02*
X0129232Y0099576D01*
X0128165Y0100643D02*
X0128165Y0098508D01*
X0128165Y0102805D02*
X0128165Y0104940D01*
X0129232Y0103873D02*
X0124962Y0103873D01*
X0123894Y0104940D01*
X0123894Y0107102D02*
X0123894Y0110305D01*
X0124962Y0111372D01*
X0127097Y0111372D01*
X0128165Y0110305D01*
X0128165Y0107102D01*
X0121759Y0107102D01*
X0119800Y0106558D02*
X0119800Y0108694D01*
X0118732Y0109761D01*
X0114462Y0105491D01*
X0113394Y0106558D01*
X0113394Y0108694D01*
X0114462Y0109761D01*
X0118732Y0109761D01*
X0117665Y0111936D02*
X0119800Y0114071D01*
X0113394Y0114071D01*
X0113394Y0111936D02*
X0113394Y0116207D01*
X0114462Y0118382D02*
X0115530Y0118382D01*
X0116597Y0119449D01*
X0116597Y0121585D01*
X0115530Y0122652D01*
X0114462Y0122652D01*
X0113394Y0121585D01*
X0113394Y0119449D01*
X0114462Y0118382D01*
X0116597Y0119449D02*
X0117665Y0118382D01*
X0118732Y0118382D01*
X0119800Y0119449D01*
X0119800Y0121585D01*
X0118732Y0122652D01*
X0117665Y0122652D01*
X0116597Y0121585D01*
X0123894Y0123216D02*
X0130300Y0127486D01*
X0128165Y0129661D02*
X0130300Y0131797D01*
X0123894Y0131797D01*
X0123894Y0133932D02*
X0123894Y0129661D01*
X0119800Y0132340D02*
X0118732Y0131273D01*
X0117665Y0131273D01*
X0116597Y0132340D01*
X0116597Y0134476D01*
X0115530Y0135543D01*
X0114462Y0135543D01*
X0113394Y0134476D01*
X0113394Y0132340D01*
X0114462Y0131273D01*
X0119800Y0132340D02*
X0119800Y0134476D01*
X0118732Y0135543D01*
X0117665Y0137718D02*
X0117665Y0139853D01*
X0118732Y0138786D02*
X0114462Y0138786D01*
X0113394Y0139853D01*
X0114462Y0142015D02*
X0116597Y0142015D01*
X0117665Y0143083D01*
X0117665Y0145218D01*
X0116597Y0146286D01*
X0115530Y0146286D01*
X0115530Y0142015D01*
X0114462Y0142015D02*
X0113394Y0143083D01*
X0113394Y0145218D01*
X0117665Y0148461D02*
X0113394Y0150596D01*
X0117665Y0152731D01*
X0116597Y0154906D02*
X0114462Y0154906D01*
X0113394Y0155974D01*
X0113394Y0158109D01*
X0115530Y0159177D02*
X0115530Y0154906D01*
X0116597Y0154906D02*
X0117665Y0155974D01*
X0117665Y0158109D01*
X0116597Y0159177D01*
X0115530Y0159177D01*
X0123894Y0159734D02*
X0124962Y0158666D01*
X0127097Y0158666D01*
X0127097Y0161869D01*
X0126030Y0162936D01*
X0124962Y0162936D01*
X0123894Y0161869D01*
X0123894Y0159734D01*
X0127097Y0158666D02*
X0129232Y0160801D01*
X0130300Y0162936D01*
X0129232Y0165112D02*
X0128165Y0165112D01*
X0127097Y0166179D01*
X0127097Y0168314D01*
X0126030Y0169382D01*
X0124962Y0169382D01*
X0123894Y0168314D01*
X0123894Y0166179D01*
X0124962Y0165112D01*
X0126030Y0165112D01*
X0127097Y0166179D01*
X0127097Y0168314D02*
X0128165Y0169382D01*
X0129232Y0169382D01*
X0130300Y0168314D01*
X0130300Y0166179D01*
X0129232Y0165112D01*
X0134394Y0164568D02*
X0134394Y0167771D01*
X0138665Y0167771D01*
X0138665Y0169946D02*
X0135462Y0169946D01*
X0134394Y0171013D01*
X0134394Y0174216D01*
X0133327Y0174216D02*
X0132259Y0173149D01*
X0132259Y0172081D01*
X0133327Y0174216D02*
X0138665Y0174216D01*
X0130300Y0177983D02*
X0127097Y0174780D01*
X0127097Y0179050D01*
X0124962Y0181225D02*
X0124962Y0182293D01*
X0123894Y0182293D01*
X0123894Y0181225D01*
X0124962Y0181225D01*
X0123894Y0177983D02*
X0130300Y0177983D01*
X0124962Y0172625D02*
X0123894Y0172625D01*
X0123894Y0171557D01*
X0124962Y0171557D01*
X0124962Y0172625D01*
X0134394Y0164568D02*
X0135462Y0163500D01*
X0138665Y0163500D01*
X0139732Y0161325D02*
X0140800Y0160258D01*
X0140800Y0158122D01*
X0139732Y0157055D01*
X0135462Y0157055D01*
X0134394Y0158122D01*
X0134394Y0160258D01*
X0135462Y0161325D01*
X0137597Y0161325D01*
X0137597Y0159190D01*
X0138665Y0154886D02*
X0138665Y0153819D01*
X0136530Y0151684D01*
X0138665Y0151684D02*
X0134394Y0151684D01*
X0136530Y0149508D02*
X0136530Y0145238D01*
X0137597Y0145238D02*
X0138665Y0146306D01*
X0138665Y0148441D01*
X0137597Y0149508D01*
X0136530Y0149508D01*
X0134394Y0148441D02*
X0134394Y0146306D01*
X0135462Y0145238D01*
X0137597Y0145238D01*
X0137597Y0143063D02*
X0134394Y0143063D01*
X0137597Y0143063D02*
X0138665Y0141995D01*
X0138665Y0139860D01*
X0137597Y0138793D01*
X0138665Y0136631D02*
X0138665Y0134496D01*
X0139732Y0135563D02*
X0135462Y0135563D01*
X0134394Y0136631D01*
X0134394Y0138793D02*
X0140800Y0138793D01*
X0137597Y0132320D02*
X0134394Y0132320D01*
X0134394Y0129118D01*
X0135462Y0128050D01*
X0136530Y0129118D01*
X0136530Y0132320D01*
X0137597Y0132320D02*
X0138665Y0131253D01*
X0138665Y0129118D01*
X0137597Y0125875D02*
X0136530Y0125875D01*
X0136530Y0121605D01*
X0137597Y0121605D02*
X0138665Y0122672D01*
X0138665Y0124807D01*
X0137597Y0125875D01*
X0134394Y0124807D02*
X0134394Y0122672D01*
X0135462Y0121605D01*
X0137597Y0121605D01*
X0134394Y0119429D02*
X0140800Y0119429D01*
X0136530Y0117294D02*
X0134394Y0119429D01*
X0136530Y0117294D02*
X0134394Y0115159D01*
X0140800Y0115159D01*
X0140800Y0111930D02*
X0141868Y0111930D01*
X0138665Y0111930D02*
X0138665Y0110862D01*
X0138665Y0111930D02*
X0134394Y0111930D01*
X0134394Y0112997D02*
X0134394Y0110862D01*
X0134394Y0107633D02*
X0139732Y0107633D01*
X0140800Y0108700D01*
X0137597Y0108700D02*
X0137597Y0106565D01*
X0138665Y0103336D02*
X0134394Y0103336D01*
X0134394Y0104403D02*
X0134394Y0102268D01*
X0134394Y0100093D02*
X0140800Y0100093D01*
X0138665Y0102268D02*
X0138665Y0103336D01*
X0140800Y0103336D02*
X0141868Y0103336D01*
X0136530Y0097958D02*
X0134394Y0100093D01*
X0136530Y0097958D02*
X0134394Y0095823D01*
X0140800Y0095823D01*
X0138665Y0087222D02*
X0137597Y0087222D01*
X0137597Y0086154D01*
X0138665Y0086154D01*
X0138665Y0087222D01*
X0135462Y0087222D02*
X0135462Y0086154D01*
X0134394Y0086154D01*
X0134394Y0087222D01*
X0135462Y0087222D01*
X0119800Y0100113D02*
X0118732Y0099045D01*
X0119800Y0100113D02*
X0119800Y0102248D01*
X0118732Y0103316D01*
X0117665Y0103316D01*
X0113394Y0099045D01*
X0113394Y0103316D01*
X0114462Y0105491D02*
X0118732Y0105491D01*
X0119800Y0106558D01*
X0123894Y0113548D02*
X0124962Y0113548D01*
X0124962Y0114615D01*
X0123894Y0114615D01*
X0123894Y0113548D01*
X0127097Y0113548D02*
X0128165Y0113548D01*
X0128165Y0114615D01*
X0127097Y0114615D01*
X0127097Y0113548D01*
X0123894Y0116770D02*
X0130300Y0121041D01*
X0129232Y0136107D02*
X0128165Y0136107D01*
X0127097Y0137174D01*
X0127097Y0140377D01*
X0124962Y0140377D02*
X0129232Y0140377D01*
X0130300Y0139310D01*
X0130300Y0137174D01*
X0129232Y0136107D01*
X0124962Y0136107D02*
X0123894Y0137174D01*
X0123894Y0139310D01*
X0124962Y0140377D01*
X0123894Y0142552D02*
X0128165Y0146823D01*
X0129232Y0146823D01*
X0130300Y0145755D01*
X0130300Y0143620D01*
X0129232Y0142552D01*
X0123894Y0142552D02*
X0123894Y0146823D01*
X0123894Y0148998D02*
X0123894Y0150065D01*
X0124962Y0150065D01*
X0124962Y0148998D01*
X0123894Y0148998D01*
X0123894Y0152221D02*
X0123894Y0156491D01*
X0123894Y0154356D02*
X0130300Y0154356D01*
X0128165Y0152221D01*
X0128165Y0184448D02*
X0130300Y0186583D01*
X0123894Y0186583D01*
X0123894Y0184448D02*
X0123894Y0188718D01*
D11*
X0062843Y0034156D02*
X0306937Y0034156D01*
X0300638Y0049904D02*
X0300640Y0050062D01*
X0300646Y0050220D01*
X0300656Y0050378D01*
X0300670Y0050536D01*
X0300688Y0050693D01*
X0300709Y0050850D01*
X0300735Y0051006D01*
X0300765Y0051162D01*
X0300798Y0051317D01*
X0300836Y0051470D01*
X0300877Y0051623D01*
X0300922Y0051775D01*
X0300971Y0051926D01*
X0301024Y0052075D01*
X0301080Y0052223D01*
X0301140Y0052369D01*
X0301204Y0052514D01*
X0301272Y0052657D01*
X0301343Y0052799D01*
X0301417Y0052939D01*
X0301495Y0053076D01*
X0301577Y0053212D01*
X0301661Y0053346D01*
X0301750Y0053477D01*
X0301841Y0053606D01*
X0301936Y0053733D01*
X0302033Y0053858D01*
X0302134Y0053980D01*
X0302238Y0054099D01*
X0302345Y0054216D01*
X0302455Y0054330D01*
X0302568Y0054441D01*
X0302683Y0054550D01*
X0302801Y0054655D01*
X0302922Y0054757D01*
X0303045Y0054857D01*
X0303171Y0054953D01*
X0303299Y0055046D01*
X0303429Y0055136D01*
X0303562Y0055222D01*
X0303697Y0055306D01*
X0303833Y0055385D01*
X0303972Y0055462D01*
X0304113Y0055534D01*
X0304255Y0055604D01*
X0304399Y0055669D01*
X0304545Y0055731D01*
X0304692Y0055789D01*
X0304841Y0055844D01*
X0304991Y0055895D01*
X0305142Y0055942D01*
X0305294Y0055985D01*
X0305447Y0056024D01*
X0305602Y0056060D01*
X0305757Y0056091D01*
X0305913Y0056119D01*
X0306069Y0056143D01*
X0306226Y0056163D01*
X0306384Y0056179D01*
X0306541Y0056191D01*
X0306700Y0056199D01*
X0306858Y0056203D01*
X0307016Y0056203D01*
X0307174Y0056199D01*
X0307333Y0056191D01*
X0307490Y0056179D01*
X0307648Y0056163D01*
X0307805Y0056143D01*
X0307961Y0056119D01*
X0308117Y0056091D01*
X0308272Y0056060D01*
X0308427Y0056024D01*
X0308580Y0055985D01*
X0308732Y0055942D01*
X0308883Y0055895D01*
X0309033Y0055844D01*
X0309182Y0055789D01*
X0309329Y0055731D01*
X0309475Y0055669D01*
X0309619Y0055604D01*
X0309761Y0055534D01*
X0309902Y0055462D01*
X0310041Y0055385D01*
X0310177Y0055306D01*
X0310312Y0055222D01*
X0310445Y0055136D01*
X0310575Y0055046D01*
X0310703Y0054953D01*
X0310829Y0054857D01*
X0310952Y0054757D01*
X0311073Y0054655D01*
X0311191Y0054550D01*
X0311306Y0054441D01*
X0311419Y0054330D01*
X0311529Y0054216D01*
X0311636Y0054099D01*
X0311740Y0053980D01*
X0311841Y0053858D01*
X0311938Y0053733D01*
X0312033Y0053606D01*
X0312124Y0053477D01*
X0312213Y0053346D01*
X0312297Y0053212D01*
X0312379Y0053076D01*
X0312457Y0052939D01*
X0312531Y0052799D01*
X0312602Y0052657D01*
X0312670Y0052514D01*
X0312734Y0052369D01*
X0312794Y0052223D01*
X0312850Y0052075D01*
X0312903Y0051926D01*
X0312952Y0051775D01*
X0312997Y0051623D01*
X0313038Y0051470D01*
X0313076Y0051317D01*
X0313109Y0051162D01*
X0313139Y0051006D01*
X0313165Y0050850D01*
X0313186Y0050693D01*
X0313204Y0050536D01*
X0313218Y0050378D01*
X0313228Y0050220D01*
X0313234Y0050062D01*
X0313236Y0049904D01*
X0313234Y0049746D01*
X0313228Y0049588D01*
X0313218Y0049430D01*
X0313204Y0049272D01*
X0313186Y0049115D01*
X0313165Y0048958D01*
X0313139Y0048802D01*
X0313109Y0048646D01*
X0313076Y0048491D01*
X0313038Y0048338D01*
X0312997Y0048185D01*
X0312952Y0048033D01*
X0312903Y0047882D01*
X0312850Y0047733D01*
X0312794Y0047585D01*
X0312734Y0047439D01*
X0312670Y0047294D01*
X0312602Y0047151D01*
X0312531Y0047009D01*
X0312457Y0046869D01*
X0312379Y0046732D01*
X0312297Y0046596D01*
X0312213Y0046462D01*
X0312124Y0046331D01*
X0312033Y0046202D01*
X0311938Y0046075D01*
X0311841Y0045950D01*
X0311740Y0045828D01*
X0311636Y0045709D01*
X0311529Y0045592D01*
X0311419Y0045478D01*
X0311306Y0045367D01*
X0311191Y0045258D01*
X0311073Y0045153D01*
X0310952Y0045051D01*
X0310829Y0044951D01*
X0310703Y0044855D01*
X0310575Y0044762D01*
X0310445Y0044672D01*
X0310312Y0044586D01*
X0310177Y0044502D01*
X0310041Y0044423D01*
X0309902Y0044346D01*
X0309761Y0044274D01*
X0309619Y0044204D01*
X0309475Y0044139D01*
X0309329Y0044077D01*
X0309182Y0044019D01*
X0309033Y0043964D01*
X0308883Y0043913D01*
X0308732Y0043866D01*
X0308580Y0043823D01*
X0308427Y0043784D01*
X0308272Y0043748D01*
X0308117Y0043717D01*
X0307961Y0043689D01*
X0307805Y0043665D01*
X0307648Y0043645D01*
X0307490Y0043629D01*
X0307333Y0043617D01*
X0307174Y0043609D01*
X0307016Y0043605D01*
X0306858Y0043605D01*
X0306700Y0043609D01*
X0306541Y0043617D01*
X0306384Y0043629D01*
X0306226Y0043645D01*
X0306069Y0043665D01*
X0305913Y0043689D01*
X0305757Y0043717D01*
X0305602Y0043748D01*
X0305447Y0043784D01*
X0305294Y0043823D01*
X0305142Y0043866D01*
X0304991Y0043913D01*
X0304841Y0043964D01*
X0304692Y0044019D01*
X0304545Y0044077D01*
X0304399Y0044139D01*
X0304255Y0044204D01*
X0304113Y0044274D01*
X0303972Y0044346D01*
X0303833Y0044423D01*
X0303697Y0044502D01*
X0303562Y0044586D01*
X0303429Y0044672D01*
X0303299Y0044762D01*
X0303171Y0044855D01*
X0303045Y0044951D01*
X0302922Y0045051D01*
X0302801Y0045153D01*
X0302683Y0045258D01*
X0302568Y0045367D01*
X0302455Y0045478D01*
X0302345Y0045592D01*
X0302238Y0045709D01*
X0302134Y0045828D01*
X0302033Y0045950D01*
X0301936Y0046075D01*
X0301841Y0046202D01*
X0301750Y0046331D01*
X0301661Y0046462D01*
X0301577Y0046596D01*
X0301495Y0046732D01*
X0301417Y0046869D01*
X0301343Y0047009D01*
X0301272Y0047151D01*
X0301204Y0047294D01*
X0301140Y0047439D01*
X0301080Y0047585D01*
X0301024Y0047733D01*
X0300971Y0047882D01*
X0300922Y0048033D01*
X0300877Y0048185D01*
X0300836Y0048338D01*
X0300798Y0048491D01*
X0300765Y0048646D01*
X0300735Y0048802D01*
X0300709Y0048958D01*
X0300688Y0049115D01*
X0300670Y0049272D01*
X0300656Y0049430D01*
X0300646Y0049588D01*
X0300640Y0049746D01*
X0300638Y0049904D01*
X0306937Y0034156D02*
X0307318Y0034161D01*
X0307698Y0034174D01*
X0308078Y0034197D01*
X0308457Y0034230D01*
X0308835Y0034271D01*
X0309212Y0034321D01*
X0309588Y0034381D01*
X0309963Y0034449D01*
X0310335Y0034527D01*
X0310706Y0034614D01*
X0311074Y0034709D01*
X0311440Y0034814D01*
X0311803Y0034927D01*
X0312164Y0035049D01*
X0312521Y0035179D01*
X0312875Y0035319D01*
X0313226Y0035466D01*
X0313573Y0035623D01*
X0313916Y0035787D01*
X0314255Y0035960D01*
X0314590Y0036141D01*
X0314921Y0036330D01*
X0315246Y0036527D01*
X0315567Y0036731D01*
X0315883Y0036944D01*
X0316193Y0037164D01*
X0316499Y0037391D01*
X0316798Y0037626D01*
X0317092Y0037868D01*
X0317380Y0038116D01*
X0317662Y0038372D01*
X0317937Y0038635D01*
X0318206Y0038904D01*
X0318469Y0039179D01*
X0318725Y0039461D01*
X0318973Y0039749D01*
X0319215Y0040043D01*
X0319450Y0040342D01*
X0319677Y0040648D01*
X0319897Y0040958D01*
X0320110Y0041274D01*
X0320314Y0041595D01*
X0320511Y0041920D01*
X0320700Y0042251D01*
X0320881Y0042586D01*
X0321054Y0042925D01*
X0321218Y0043268D01*
X0321375Y0043615D01*
X0321522Y0043966D01*
X0321662Y0044320D01*
X0321792Y0044677D01*
X0321914Y0045038D01*
X0322027Y0045401D01*
X0322132Y0045767D01*
X0322227Y0046135D01*
X0322314Y0046506D01*
X0322392Y0046878D01*
X0322460Y0047253D01*
X0322520Y0047629D01*
X0322570Y0048006D01*
X0322611Y0048384D01*
X0322644Y0048763D01*
X0322667Y0049143D01*
X0322680Y0049523D01*
X0322685Y0049904D01*
X0322685Y0187699D01*
X0300638Y0187699D02*
X0300640Y0187857D01*
X0300646Y0188015D01*
X0300656Y0188173D01*
X0300670Y0188331D01*
X0300688Y0188488D01*
X0300709Y0188645D01*
X0300735Y0188801D01*
X0300765Y0188957D01*
X0300798Y0189112D01*
X0300836Y0189265D01*
X0300877Y0189418D01*
X0300922Y0189570D01*
X0300971Y0189721D01*
X0301024Y0189870D01*
X0301080Y0190018D01*
X0301140Y0190164D01*
X0301204Y0190309D01*
X0301272Y0190452D01*
X0301343Y0190594D01*
X0301417Y0190734D01*
X0301495Y0190871D01*
X0301577Y0191007D01*
X0301661Y0191141D01*
X0301750Y0191272D01*
X0301841Y0191401D01*
X0301936Y0191528D01*
X0302033Y0191653D01*
X0302134Y0191775D01*
X0302238Y0191894D01*
X0302345Y0192011D01*
X0302455Y0192125D01*
X0302568Y0192236D01*
X0302683Y0192345D01*
X0302801Y0192450D01*
X0302922Y0192552D01*
X0303045Y0192652D01*
X0303171Y0192748D01*
X0303299Y0192841D01*
X0303429Y0192931D01*
X0303562Y0193017D01*
X0303697Y0193101D01*
X0303833Y0193180D01*
X0303972Y0193257D01*
X0304113Y0193329D01*
X0304255Y0193399D01*
X0304399Y0193464D01*
X0304545Y0193526D01*
X0304692Y0193584D01*
X0304841Y0193639D01*
X0304991Y0193690D01*
X0305142Y0193737D01*
X0305294Y0193780D01*
X0305447Y0193819D01*
X0305602Y0193855D01*
X0305757Y0193886D01*
X0305913Y0193914D01*
X0306069Y0193938D01*
X0306226Y0193958D01*
X0306384Y0193974D01*
X0306541Y0193986D01*
X0306700Y0193994D01*
X0306858Y0193998D01*
X0307016Y0193998D01*
X0307174Y0193994D01*
X0307333Y0193986D01*
X0307490Y0193974D01*
X0307648Y0193958D01*
X0307805Y0193938D01*
X0307961Y0193914D01*
X0308117Y0193886D01*
X0308272Y0193855D01*
X0308427Y0193819D01*
X0308580Y0193780D01*
X0308732Y0193737D01*
X0308883Y0193690D01*
X0309033Y0193639D01*
X0309182Y0193584D01*
X0309329Y0193526D01*
X0309475Y0193464D01*
X0309619Y0193399D01*
X0309761Y0193329D01*
X0309902Y0193257D01*
X0310041Y0193180D01*
X0310177Y0193101D01*
X0310312Y0193017D01*
X0310445Y0192931D01*
X0310575Y0192841D01*
X0310703Y0192748D01*
X0310829Y0192652D01*
X0310952Y0192552D01*
X0311073Y0192450D01*
X0311191Y0192345D01*
X0311306Y0192236D01*
X0311419Y0192125D01*
X0311529Y0192011D01*
X0311636Y0191894D01*
X0311740Y0191775D01*
X0311841Y0191653D01*
X0311938Y0191528D01*
X0312033Y0191401D01*
X0312124Y0191272D01*
X0312213Y0191141D01*
X0312297Y0191007D01*
X0312379Y0190871D01*
X0312457Y0190734D01*
X0312531Y0190594D01*
X0312602Y0190452D01*
X0312670Y0190309D01*
X0312734Y0190164D01*
X0312794Y0190018D01*
X0312850Y0189870D01*
X0312903Y0189721D01*
X0312952Y0189570D01*
X0312997Y0189418D01*
X0313038Y0189265D01*
X0313076Y0189112D01*
X0313109Y0188957D01*
X0313139Y0188801D01*
X0313165Y0188645D01*
X0313186Y0188488D01*
X0313204Y0188331D01*
X0313218Y0188173D01*
X0313228Y0188015D01*
X0313234Y0187857D01*
X0313236Y0187699D01*
X0313234Y0187541D01*
X0313228Y0187383D01*
X0313218Y0187225D01*
X0313204Y0187067D01*
X0313186Y0186910D01*
X0313165Y0186753D01*
X0313139Y0186597D01*
X0313109Y0186441D01*
X0313076Y0186286D01*
X0313038Y0186133D01*
X0312997Y0185980D01*
X0312952Y0185828D01*
X0312903Y0185677D01*
X0312850Y0185528D01*
X0312794Y0185380D01*
X0312734Y0185234D01*
X0312670Y0185089D01*
X0312602Y0184946D01*
X0312531Y0184804D01*
X0312457Y0184664D01*
X0312379Y0184527D01*
X0312297Y0184391D01*
X0312213Y0184257D01*
X0312124Y0184126D01*
X0312033Y0183997D01*
X0311938Y0183870D01*
X0311841Y0183745D01*
X0311740Y0183623D01*
X0311636Y0183504D01*
X0311529Y0183387D01*
X0311419Y0183273D01*
X0311306Y0183162D01*
X0311191Y0183053D01*
X0311073Y0182948D01*
X0310952Y0182846D01*
X0310829Y0182746D01*
X0310703Y0182650D01*
X0310575Y0182557D01*
X0310445Y0182467D01*
X0310312Y0182381D01*
X0310177Y0182297D01*
X0310041Y0182218D01*
X0309902Y0182141D01*
X0309761Y0182069D01*
X0309619Y0181999D01*
X0309475Y0181934D01*
X0309329Y0181872D01*
X0309182Y0181814D01*
X0309033Y0181759D01*
X0308883Y0181708D01*
X0308732Y0181661D01*
X0308580Y0181618D01*
X0308427Y0181579D01*
X0308272Y0181543D01*
X0308117Y0181512D01*
X0307961Y0181484D01*
X0307805Y0181460D01*
X0307648Y0181440D01*
X0307490Y0181424D01*
X0307333Y0181412D01*
X0307174Y0181404D01*
X0307016Y0181400D01*
X0306858Y0181400D01*
X0306700Y0181404D01*
X0306541Y0181412D01*
X0306384Y0181424D01*
X0306226Y0181440D01*
X0306069Y0181460D01*
X0305913Y0181484D01*
X0305757Y0181512D01*
X0305602Y0181543D01*
X0305447Y0181579D01*
X0305294Y0181618D01*
X0305142Y0181661D01*
X0304991Y0181708D01*
X0304841Y0181759D01*
X0304692Y0181814D01*
X0304545Y0181872D01*
X0304399Y0181934D01*
X0304255Y0181999D01*
X0304113Y0182069D01*
X0303972Y0182141D01*
X0303833Y0182218D01*
X0303697Y0182297D01*
X0303562Y0182381D01*
X0303429Y0182467D01*
X0303299Y0182557D01*
X0303171Y0182650D01*
X0303045Y0182746D01*
X0302922Y0182846D01*
X0302801Y0182948D01*
X0302683Y0183053D01*
X0302568Y0183162D01*
X0302455Y0183273D01*
X0302345Y0183387D01*
X0302238Y0183504D01*
X0302134Y0183623D01*
X0302033Y0183745D01*
X0301936Y0183870D01*
X0301841Y0183997D01*
X0301750Y0184126D01*
X0301661Y0184257D01*
X0301577Y0184391D01*
X0301495Y0184527D01*
X0301417Y0184664D01*
X0301343Y0184804D01*
X0301272Y0184946D01*
X0301204Y0185089D01*
X0301140Y0185234D01*
X0301080Y0185380D01*
X0301024Y0185528D01*
X0300971Y0185677D01*
X0300922Y0185828D01*
X0300877Y0185980D01*
X0300836Y0186133D01*
X0300798Y0186286D01*
X0300765Y0186441D01*
X0300735Y0186597D01*
X0300709Y0186753D01*
X0300688Y0186910D01*
X0300670Y0187067D01*
X0300656Y0187225D01*
X0300646Y0187383D01*
X0300640Y0187541D01*
X0300638Y0187699D01*
X0306937Y0203447D02*
X0307318Y0203442D01*
X0307698Y0203429D01*
X0308078Y0203406D01*
X0308457Y0203373D01*
X0308835Y0203332D01*
X0309212Y0203282D01*
X0309588Y0203222D01*
X0309963Y0203154D01*
X0310335Y0203076D01*
X0310706Y0202989D01*
X0311074Y0202894D01*
X0311440Y0202789D01*
X0311803Y0202676D01*
X0312164Y0202554D01*
X0312521Y0202424D01*
X0312875Y0202284D01*
X0313226Y0202137D01*
X0313573Y0201980D01*
X0313916Y0201816D01*
X0314255Y0201643D01*
X0314590Y0201462D01*
X0314921Y0201273D01*
X0315246Y0201076D01*
X0315567Y0200872D01*
X0315883Y0200659D01*
X0316193Y0200439D01*
X0316499Y0200212D01*
X0316798Y0199977D01*
X0317092Y0199735D01*
X0317380Y0199487D01*
X0317662Y0199231D01*
X0317937Y0198968D01*
X0318206Y0198699D01*
X0318469Y0198424D01*
X0318725Y0198142D01*
X0318973Y0197854D01*
X0319215Y0197560D01*
X0319450Y0197261D01*
X0319677Y0196955D01*
X0319897Y0196645D01*
X0320110Y0196329D01*
X0320314Y0196008D01*
X0320511Y0195683D01*
X0320700Y0195352D01*
X0320881Y0195017D01*
X0321054Y0194678D01*
X0321218Y0194335D01*
X0321375Y0193988D01*
X0321522Y0193637D01*
X0321662Y0193283D01*
X0321792Y0192926D01*
X0321914Y0192565D01*
X0322027Y0192202D01*
X0322132Y0191836D01*
X0322227Y0191468D01*
X0322314Y0191097D01*
X0322392Y0190725D01*
X0322460Y0190350D01*
X0322520Y0189974D01*
X0322570Y0189597D01*
X0322611Y0189219D01*
X0322644Y0188840D01*
X0322667Y0188460D01*
X0322680Y0188080D01*
X0322685Y0187699D01*
X0306937Y0203448D02*
X0062843Y0203448D01*
X0056544Y0187699D02*
X0056546Y0187857D01*
X0056552Y0188015D01*
X0056562Y0188173D01*
X0056576Y0188331D01*
X0056594Y0188488D01*
X0056615Y0188645D01*
X0056641Y0188801D01*
X0056671Y0188957D01*
X0056704Y0189112D01*
X0056742Y0189265D01*
X0056783Y0189418D01*
X0056828Y0189570D01*
X0056877Y0189721D01*
X0056930Y0189870D01*
X0056986Y0190018D01*
X0057046Y0190164D01*
X0057110Y0190309D01*
X0057178Y0190452D01*
X0057249Y0190594D01*
X0057323Y0190734D01*
X0057401Y0190871D01*
X0057483Y0191007D01*
X0057567Y0191141D01*
X0057656Y0191272D01*
X0057747Y0191401D01*
X0057842Y0191528D01*
X0057939Y0191653D01*
X0058040Y0191775D01*
X0058144Y0191894D01*
X0058251Y0192011D01*
X0058361Y0192125D01*
X0058474Y0192236D01*
X0058589Y0192345D01*
X0058707Y0192450D01*
X0058828Y0192552D01*
X0058951Y0192652D01*
X0059077Y0192748D01*
X0059205Y0192841D01*
X0059335Y0192931D01*
X0059468Y0193017D01*
X0059603Y0193101D01*
X0059739Y0193180D01*
X0059878Y0193257D01*
X0060019Y0193329D01*
X0060161Y0193399D01*
X0060305Y0193464D01*
X0060451Y0193526D01*
X0060598Y0193584D01*
X0060747Y0193639D01*
X0060897Y0193690D01*
X0061048Y0193737D01*
X0061200Y0193780D01*
X0061353Y0193819D01*
X0061508Y0193855D01*
X0061663Y0193886D01*
X0061819Y0193914D01*
X0061975Y0193938D01*
X0062132Y0193958D01*
X0062290Y0193974D01*
X0062447Y0193986D01*
X0062606Y0193994D01*
X0062764Y0193998D01*
X0062922Y0193998D01*
X0063080Y0193994D01*
X0063239Y0193986D01*
X0063396Y0193974D01*
X0063554Y0193958D01*
X0063711Y0193938D01*
X0063867Y0193914D01*
X0064023Y0193886D01*
X0064178Y0193855D01*
X0064333Y0193819D01*
X0064486Y0193780D01*
X0064638Y0193737D01*
X0064789Y0193690D01*
X0064939Y0193639D01*
X0065088Y0193584D01*
X0065235Y0193526D01*
X0065381Y0193464D01*
X0065525Y0193399D01*
X0065667Y0193329D01*
X0065808Y0193257D01*
X0065947Y0193180D01*
X0066083Y0193101D01*
X0066218Y0193017D01*
X0066351Y0192931D01*
X0066481Y0192841D01*
X0066609Y0192748D01*
X0066735Y0192652D01*
X0066858Y0192552D01*
X0066979Y0192450D01*
X0067097Y0192345D01*
X0067212Y0192236D01*
X0067325Y0192125D01*
X0067435Y0192011D01*
X0067542Y0191894D01*
X0067646Y0191775D01*
X0067747Y0191653D01*
X0067844Y0191528D01*
X0067939Y0191401D01*
X0068030Y0191272D01*
X0068119Y0191141D01*
X0068203Y0191007D01*
X0068285Y0190871D01*
X0068363Y0190734D01*
X0068437Y0190594D01*
X0068508Y0190452D01*
X0068576Y0190309D01*
X0068640Y0190164D01*
X0068700Y0190018D01*
X0068756Y0189870D01*
X0068809Y0189721D01*
X0068858Y0189570D01*
X0068903Y0189418D01*
X0068944Y0189265D01*
X0068982Y0189112D01*
X0069015Y0188957D01*
X0069045Y0188801D01*
X0069071Y0188645D01*
X0069092Y0188488D01*
X0069110Y0188331D01*
X0069124Y0188173D01*
X0069134Y0188015D01*
X0069140Y0187857D01*
X0069142Y0187699D01*
X0069140Y0187541D01*
X0069134Y0187383D01*
X0069124Y0187225D01*
X0069110Y0187067D01*
X0069092Y0186910D01*
X0069071Y0186753D01*
X0069045Y0186597D01*
X0069015Y0186441D01*
X0068982Y0186286D01*
X0068944Y0186133D01*
X0068903Y0185980D01*
X0068858Y0185828D01*
X0068809Y0185677D01*
X0068756Y0185528D01*
X0068700Y0185380D01*
X0068640Y0185234D01*
X0068576Y0185089D01*
X0068508Y0184946D01*
X0068437Y0184804D01*
X0068363Y0184664D01*
X0068285Y0184527D01*
X0068203Y0184391D01*
X0068119Y0184257D01*
X0068030Y0184126D01*
X0067939Y0183997D01*
X0067844Y0183870D01*
X0067747Y0183745D01*
X0067646Y0183623D01*
X0067542Y0183504D01*
X0067435Y0183387D01*
X0067325Y0183273D01*
X0067212Y0183162D01*
X0067097Y0183053D01*
X0066979Y0182948D01*
X0066858Y0182846D01*
X0066735Y0182746D01*
X0066609Y0182650D01*
X0066481Y0182557D01*
X0066351Y0182467D01*
X0066218Y0182381D01*
X0066083Y0182297D01*
X0065947Y0182218D01*
X0065808Y0182141D01*
X0065667Y0182069D01*
X0065525Y0181999D01*
X0065381Y0181934D01*
X0065235Y0181872D01*
X0065088Y0181814D01*
X0064939Y0181759D01*
X0064789Y0181708D01*
X0064638Y0181661D01*
X0064486Y0181618D01*
X0064333Y0181579D01*
X0064178Y0181543D01*
X0064023Y0181512D01*
X0063867Y0181484D01*
X0063711Y0181460D01*
X0063554Y0181440D01*
X0063396Y0181424D01*
X0063239Y0181412D01*
X0063080Y0181404D01*
X0062922Y0181400D01*
X0062764Y0181400D01*
X0062606Y0181404D01*
X0062447Y0181412D01*
X0062290Y0181424D01*
X0062132Y0181440D01*
X0061975Y0181460D01*
X0061819Y0181484D01*
X0061663Y0181512D01*
X0061508Y0181543D01*
X0061353Y0181579D01*
X0061200Y0181618D01*
X0061048Y0181661D01*
X0060897Y0181708D01*
X0060747Y0181759D01*
X0060598Y0181814D01*
X0060451Y0181872D01*
X0060305Y0181934D01*
X0060161Y0181999D01*
X0060019Y0182069D01*
X0059878Y0182141D01*
X0059739Y0182218D01*
X0059603Y0182297D01*
X0059468Y0182381D01*
X0059335Y0182467D01*
X0059205Y0182557D01*
X0059077Y0182650D01*
X0058951Y0182746D01*
X0058828Y0182846D01*
X0058707Y0182948D01*
X0058589Y0183053D01*
X0058474Y0183162D01*
X0058361Y0183273D01*
X0058251Y0183387D01*
X0058144Y0183504D01*
X0058040Y0183623D01*
X0057939Y0183745D01*
X0057842Y0183870D01*
X0057747Y0183997D01*
X0057656Y0184126D01*
X0057567Y0184257D01*
X0057483Y0184391D01*
X0057401Y0184527D01*
X0057323Y0184664D01*
X0057249Y0184804D01*
X0057178Y0184946D01*
X0057110Y0185089D01*
X0057046Y0185234D01*
X0056986Y0185380D01*
X0056930Y0185528D01*
X0056877Y0185677D01*
X0056828Y0185828D01*
X0056783Y0185980D01*
X0056742Y0186133D01*
X0056704Y0186286D01*
X0056671Y0186441D01*
X0056641Y0186597D01*
X0056615Y0186753D01*
X0056594Y0186910D01*
X0056576Y0187067D01*
X0056562Y0187225D01*
X0056552Y0187383D01*
X0056546Y0187541D01*
X0056544Y0187699D01*
X0047095Y0187699D02*
X0047100Y0188080D01*
X0047113Y0188460D01*
X0047136Y0188840D01*
X0047169Y0189219D01*
X0047210Y0189597D01*
X0047260Y0189974D01*
X0047320Y0190350D01*
X0047388Y0190725D01*
X0047466Y0191097D01*
X0047553Y0191468D01*
X0047648Y0191836D01*
X0047753Y0192202D01*
X0047866Y0192565D01*
X0047988Y0192926D01*
X0048118Y0193283D01*
X0048258Y0193637D01*
X0048405Y0193988D01*
X0048562Y0194335D01*
X0048726Y0194678D01*
X0048899Y0195017D01*
X0049080Y0195352D01*
X0049269Y0195683D01*
X0049466Y0196008D01*
X0049670Y0196329D01*
X0049883Y0196645D01*
X0050103Y0196955D01*
X0050330Y0197261D01*
X0050565Y0197560D01*
X0050807Y0197854D01*
X0051055Y0198142D01*
X0051311Y0198424D01*
X0051574Y0198699D01*
X0051843Y0198968D01*
X0052118Y0199231D01*
X0052400Y0199487D01*
X0052688Y0199735D01*
X0052982Y0199977D01*
X0053281Y0200212D01*
X0053587Y0200439D01*
X0053897Y0200659D01*
X0054213Y0200872D01*
X0054534Y0201076D01*
X0054859Y0201273D01*
X0055190Y0201462D01*
X0055525Y0201643D01*
X0055864Y0201816D01*
X0056207Y0201980D01*
X0056554Y0202137D01*
X0056905Y0202284D01*
X0057259Y0202424D01*
X0057616Y0202554D01*
X0057977Y0202676D01*
X0058340Y0202789D01*
X0058706Y0202894D01*
X0059074Y0202989D01*
X0059445Y0203076D01*
X0059817Y0203154D01*
X0060192Y0203222D01*
X0060568Y0203282D01*
X0060945Y0203332D01*
X0061323Y0203373D01*
X0061702Y0203406D01*
X0062082Y0203429D01*
X0062462Y0203442D01*
X0062843Y0203447D01*
X0047094Y0187699D02*
X0047094Y0049904D01*
X0056544Y0049904D02*
X0056546Y0050062D01*
X0056552Y0050220D01*
X0056562Y0050378D01*
X0056576Y0050536D01*
X0056594Y0050693D01*
X0056615Y0050850D01*
X0056641Y0051006D01*
X0056671Y0051162D01*
X0056704Y0051317D01*
X0056742Y0051470D01*
X0056783Y0051623D01*
X0056828Y0051775D01*
X0056877Y0051926D01*
X0056930Y0052075D01*
X0056986Y0052223D01*
X0057046Y0052369D01*
X0057110Y0052514D01*
X0057178Y0052657D01*
X0057249Y0052799D01*
X0057323Y0052939D01*
X0057401Y0053076D01*
X0057483Y0053212D01*
X0057567Y0053346D01*
X0057656Y0053477D01*
X0057747Y0053606D01*
X0057842Y0053733D01*
X0057939Y0053858D01*
X0058040Y0053980D01*
X0058144Y0054099D01*
X0058251Y0054216D01*
X0058361Y0054330D01*
X0058474Y0054441D01*
X0058589Y0054550D01*
X0058707Y0054655D01*
X0058828Y0054757D01*
X0058951Y0054857D01*
X0059077Y0054953D01*
X0059205Y0055046D01*
X0059335Y0055136D01*
X0059468Y0055222D01*
X0059603Y0055306D01*
X0059739Y0055385D01*
X0059878Y0055462D01*
X0060019Y0055534D01*
X0060161Y0055604D01*
X0060305Y0055669D01*
X0060451Y0055731D01*
X0060598Y0055789D01*
X0060747Y0055844D01*
X0060897Y0055895D01*
X0061048Y0055942D01*
X0061200Y0055985D01*
X0061353Y0056024D01*
X0061508Y0056060D01*
X0061663Y0056091D01*
X0061819Y0056119D01*
X0061975Y0056143D01*
X0062132Y0056163D01*
X0062290Y0056179D01*
X0062447Y0056191D01*
X0062606Y0056199D01*
X0062764Y0056203D01*
X0062922Y0056203D01*
X0063080Y0056199D01*
X0063239Y0056191D01*
X0063396Y0056179D01*
X0063554Y0056163D01*
X0063711Y0056143D01*
X0063867Y0056119D01*
X0064023Y0056091D01*
X0064178Y0056060D01*
X0064333Y0056024D01*
X0064486Y0055985D01*
X0064638Y0055942D01*
X0064789Y0055895D01*
X0064939Y0055844D01*
X0065088Y0055789D01*
X0065235Y0055731D01*
X0065381Y0055669D01*
X0065525Y0055604D01*
X0065667Y0055534D01*
X0065808Y0055462D01*
X0065947Y0055385D01*
X0066083Y0055306D01*
X0066218Y0055222D01*
X0066351Y0055136D01*
X0066481Y0055046D01*
X0066609Y0054953D01*
X0066735Y0054857D01*
X0066858Y0054757D01*
X0066979Y0054655D01*
X0067097Y0054550D01*
X0067212Y0054441D01*
X0067325Y0054330D01*
X0067435Y0054216D01*
X0067542Y0054099D01*
X0067646Y0053980D01*
X0067747Y0053858D01*
X0067844Y0053733D01*
X0067939Y0053606D01*
X0068030Y0053477D01*
X0068119Y0053346D01*
X0068203Y0053212D01*
X0068285Y0053076D01*
X0068363Y0052939D01*
X0068437Y0052799D01*
X0068508Y0052657D01*
X0068576Y0052514D01*
X0068640Y0052369D01*
X0068700Y0052223D01*
X0068756Y0052075D01*
X0068809Y0051926D01*
X0068858Y0051775D01*
X0068903Y0051623D01*
X0068944Y0051470D01*
X0068982Y0051317D01*
X0069015Y0051162D01*
X0069045Y0051006D01*
X0069071Y0050850D01*
X0069092Y0050693D01*
X0069110Y0050536D01*
X0069124Y0050378D01*
X0069134Y0050220D01*
X0069140Y0050062D01*
X0069142Y0049904D01*
X0069140Y0049746D01*
X0069134Y0049588D01*
X0069124Y0049430D01*
X0069110Y0049272D01*
X0069092Y0049115D01*
X0069071Y0048958D01*
X0069045Y0048802D01*
X0069015Y0048646D01*
X0068982Y0048491D01*
X0068944Y0048338D01*
X0068903Y0048185D01*
X0068858Y0048033D01*
X0068809Y0047882D01*
X0068756Y0047733D01*
X0068700Y0047585D01*
X0068640Y0047439D01*
X0068576Y0047294D01*
X0068508Y0047151D01*
X0068437Y0047009D01*
X0068363Y0046869D01*
X0068285Y0046732D01*
X0068203Y0046596D01*
X0068119Y0046462D01*
X0068030Y0046331D01*
X0067939Y0046202D01*
X0067844Y0046075D01*
X0067747Y0045950D01*
X0067646Y0045828D01*
X0067542Y0045709D01*
X0067435Y0045592D01*
X0067325Y0045478D01*
X0067212Y0045367D01*
X0067097Y0045258D01*
X0066979Y0045153D01*
X0066858Y0045051D01*
X0066735Y0044951D01*
X0066609Y0044855D01*
X0066481Y0044762D01*
X0066351Y0044672D01*
X0066218Y0044586D01*
X0066083Y0044502D01*
X0065947Y0044423D01*
X0065808Y0044346D01*
X0065667Y0044274D01*
X0065525Y0044204D01*
X0065381Y0044139D01*
X0065235Y0044077D01*
X0065088Y0044019D01*
X0064939Y0043964D01*
X0064789Y0043913D01*
X0064638Y0043866D01*
X0064486Y0043823D01*
X0064333Y0043784D01*
X0064178Y0043748D01*
X0064023Y0043717D01*
X0063867Y0043689D01*
X0063711Y0043665D01*
X0063554Y0043645D01*
X0063396Y0043629D01*
X0063239Y0043617D01*
X0063080Y0043609D01*
X0062922Y0043605D01*
X0062764Y0043605D01*
X0062606Y0043609D01*
X0062447Y0043617D01*
X0062290Y0043629D01*
X0062132Y0043645D01*
X0061975Y0043665D01*
X0061819Y0043689D01*
X0061663Y0043717D01*
X0061508Y0043748D01*
X0061353Y0043784D01*
X0061200Y0043823D01*
X0061048Y0043866D01*
X0060897Y0043913D01*
X0060747Y0043964D01*
X0060598Y0044019D01*
X0060451Y0044077D01*
X0060305Y0044139D01*
X0060161Y0044204D01*
X0060019Y0044274D01*
X0059878Y0044346D01*
X0059739Y0044423D01*
X0059603Y0044502D01*
X0059468Y0044586D01*
X0059335Y0044672D01*
X0059205Y0044762D01*
X0059077Y0044855D01*
X0058951Y0044951D01*
X0058828Y0045051D01*
X0058707Y0045153D01*
X0058589Y0045258D01*
X0058474Y0045367D01*
X0058361Y0045478D01*
X0058251Y0045592D01*
X0058144Y0045709D01*
X0058040Y0045828D01*
X0057939Y0045950D01*
X0057842Y0046075D01*
X0057747Y0046202D01*
X0057656Y0046331D01*
X0057567Y0046462D01*
X0057483Y0046596D01*
X0057401Y0046732D01*
X0057323Y0046869D01*
X0057249Y0047009D01*
X0057178Y0047151D01*
X0057110Y0047294D01*
X0057046Y0047439D01*
X0056986Y0047585D01*
X0056930Y0047733D01*
X0056877Y0047882D01*
X0056828Y0048033D01*
X0056783Y0048185D01*
X0056742Y0048338D01*
X0056704Y0048491D01*
X0056671Y0048646D01*
X0056641Y0048802D01*
X0056615Y0048958D01*
X0056594Y0049115D01*
X0056576Y0049272D01*
X0056562Y0049430D01*
X0056552Y0049588D01*
X0056546Y0049746D01*
X0056544Y0049904D01*
X0047095Y0049904D02*
X0047100Y0049523D01*
X0047113Y0049143D01*
X0047136Y0048763D01*
X0047169Y0048384D01*
X0047210Y0048006D01*
X0047260Y0047629D01*
X0047320Y0047253D01*
X0047388Y0046878D01*
X0047466Y0046506D01*
X0047553Y0046135D01*
X0047648Y0045767D01*
X0047753Y0045401D01*
X0047866Y0045038D01*
X0047988Y0044677D01*
X0048118Y0044320D01*
X0048258Y0043966D01*
X0048405Y0043615D01*
X0048562Y0043268D01*
X0048726Y0042925D01*
X0048899Y0042586D01*
X0049080Y0042251D01*
X0049269Y0041920D01*
X0049466Y0041595D01*
X0049670Y0041274D01*
X0049883Y0040958D01*
X0050103Y0040648D01*
X0050330Y0040342D01*
X0050565Y0040043D01*
X0050807Y0039749D01*
X0051055Y0039461D01*
X0051311Y0039179D01*
X0051574Y0038904D01*
X0051843Y0038635D01*
X0052118Y0038372D01*
X0052400Y0038116D01*
X0052688Y0037868D01*
X0052982Y0037626D01*
X0053281Y0037391D01*
X0053587Y0037164D01*
X0053897Y0036944D01*
X0054213Y0036731D01*
X0054534Y0036527D01*
X0054859Y0036330D01*
X0055190Y0036141D01*
X0055525Y0035960D01*
X0055864Y0035787D01*
X0056207Y0035623D01*
X0056554Y0035466D01*
X0056905Y0035319D01*
X0057259Y0035179D01*
X0057616Y0035049D01*
X0057977Y0034927D01*
X0058340Y0034814D01*
X0058706Y0034709D01*
X0059074Y0034614D01*
X0059445Y0034527D01*
X0059817Y0034449D01*
X0060192Y0034381D01*
X0060568Y0034321D01*
X0060945Y0034271D01*
X0061323Y0034230D01*
X0061702Y0034197D01*
X0062082Y0034174D01*
X0062462Y0034161D01*
X0062843Y0034156D01*
D12*
X0255025Y0038293D02*
X0258095Y0038293D01*
X0256560Y0038293D02*
X0256560Y0042897D01*
X0258095Y0041362D01*
X0259629Y0041362D02*
X0261164Y0038293D01*
X0262699Y0041362D01*
X0264233Y0037526D02*
X0267302Y0037526D01*
X0268837Y0039060D02*
X0269604Y0038293D01*
X0271139Y0038293D01*
X0271906Y0039060D01*
X0270372Y0040595D02*
X0269604Y0040595D01*
X0268837Y0039828D01*
X0268837Y0039060D01*
X0269604Y0040595D02*
X0268837Y0041362D01*
X0268837Y0042130D01*
X0269604Y0042897D01*
X0271139Y0042897D01*
X0271906Y0042130D01*
X0273441Y0040595D02*
X0276510Y0040595D01*
X0274208Y0042897D01*
X0274208Y0038293D01*
X0278045Y0039060D02*
X0278812Y0038293D01*
X0280347Y0038293D01*
X0281114Y0039060D01*
X0278045Y0042130D01*
X0278045Y0039060D01*
X0281114Y0039060D02*
X0281114Y0042130D01*
X0280347Y0042897D01*
X0278812Y0042897D01*
X0278045Y0042130D01*
X0282649Y0042130D02*
X0285718Y0039060D01*
X0285718Y0038293D01*
X0288020Y0039828D02*
X0290322Y0039828D01*
X0290322Y0038293D02*
X0290322Y0042897D01*
X0288020Y0042897D01*
X0287253Y0042130D01*
X0287253Y0040595D01*
X0288020Y0039828D01*
X0285718Y0042897D02*
X0282649Y0042897D01*
X0282649Y0042130D01*
X0291857Y0042130D02*
X0291857Y0039060D01*
X0292624Y0038293D01*
X0294926Y0038293D01*
X0294926Y0042897D01*
X0292624Y0042897D01*
X0291857Y0042130D01*
M02*
