G75*
%MOIN*%
%OFA0B0*%
%FSLAX25Y25*%
%IPPOS*%
%LPD*%
%AMOC8*
5,1,8,0,0,1.08239X$1,22.5*
%
%ADD10C,0.00600*%
%ADD11C,0.00200*%
%ADD12C,0.00500*%
%ADD13C,0.00400*%
%ADD14C,0.00800*%
%ADD15C,0.00300*%
%ADD16C,0.00000*%
D10*
X0098873Y0046591D02*
X0101008Y0044456D01*
X0103170Y0045524D02*
X0104237Y0044456D01*
X0107440Y0044456D01*
X0109615Y0044456D02*
X0111750Y0046591D01*
X0111750Y0048726D01*
X0109615Y0050862D01*
X0107440Y0048726D02*
X0104237Y0048726D01*
X0103170Y0047659D01*
X0103170Y0045524D01*
X0098873Y0046591D02*
X0098873Y0048726D01*
X0101008Y0050862D01*
X0120358Y0049794D02*
X0121425Y0050862D01*
X0123561Y0050862D01*
X0124628Y0049794D01*
X0124628Y0048726D01*
X0120358Y0044456D01*
X0124628Y0044456D01*
X0126803Y0045524D02*
X0131074Y0049794D01*
X0131074Y0045524D01*
X0130006Y0044456D01*
X0127871Y0044456D01*
X0126803Y0045524D01*
X0126803Y0049794D01*
X0127871Y0050862D01*
X0130006Y0050862D01*
X0131074Y0049794D01*
X0133249Y0048726D02*
X0135384Y0050862D01*
X0135384Y0044456D01*
X0133249Y0044456D02*
X0137519Y0044456D01*
X0139694Y0044456D02*
X0139694Y0045524D01*
X0143965Y0049794D01*
X0143965Y0050862D01*
X0139694Y0050862D01*
X0152585Y0049794D02*
X0152585Y0048726D01*
X0153653Y0047659D01*
X0155788Y0047659D01*
X0156856Y0046591D01*
X0156856Y0045524D01*
X0155788Y0044456D01*
X0153653Y0044456D01*
X0152585Y0045524D01*
X0152585Y0049794D02*
X0153653Y0050862D01*
X0155788Y0050862D01*
X0156856Y0049794D01*
X0159031Y0048726D02*
X0161166Y0048726D01*
X0160098Y0049794D02*
X0160098Y0045524D01*
X0161166Y0044456D01*
X0163328Y0045524D02*
X0163328Y0047659D01*
X0164395Y0048726D01*
X0166531Y0048726D01*
X0167598Y0047659D01*
X0167598Y0046591D01*
X0163328Y0046591D01*
X0163328Y0045524D02*
X0164395Y0044456D01*
X0166531Y0044456D01*
X0169773Y0048726D02*
X0171908Y0044456D01*
X0174044Y0048726D01*
X0176219Y0047659D02*
X0176219Y0045524D01*
X0177286Y0044456D01*
X0179422Y0044456D01*
X0180489Y0046591D02*
X0176219Y0046591D01*
X0176219Y0047659D02*
X0177286Y0048726D01*
X0179422Y0048726D01*
X0180489Y0047659D01*
X0180489Y0046591D01*
X0156773Y0099045D02*
X0156773Y0101181D01*
X0156773Y0100113D02*
X0150367Y0100113D01*
X0150367Y0099045D02*
X0150367Y0101181D01*
X0150367Y0103342D02*
X0156773Y0103342D01*
X0156773Y0107613D01*
X0156773Y0109788D02*
X0156773Y0111923D01*
X0156773Y0110855D02*
X0150367Y0110855D01*
X0150367Y0109788D02*
X0150367Y0111923D01*
X0151435Y0114085D02*
X0152503Y0114085D01*
X0153570Y0115152D01*
X0153570Y0118355D01*
X0151435Y0118355D02*
X0150367Y0117288D01*
X0150367Y0115152D01*
X0151435Y0114085D01*
X0151435Y0118355D02*
X0155705Y0118355D01*
X0156773Y0117288D01*
X0156773Y0115152D01*
X0155705Y0114085D01*
X0156773Y0120530D02*
X0156773Y0124801D01*
X0156773Y0122666D02*
X0150367Y0122666D01*
X0152503Y0120530D01*
X0153570Y0126976D02*
X0153570Y0130179D01*
X0154638Y0131246D01*
X0155705Y0131246D01*
X0156773Y0130179D01*
X0156773Y0128043D01*
X0155705Y0126976D01*
X0153570Y0126976D01*
X0151435Y0129111D01*
X0150367Y0131246D01*
X0151435Y0133421D02*
X0150367Y0134489D01*
X0150367Y0136624D01*
X0151435Y0137692D01*
X0152503Y0137692D01*
X0153570Y0136624D01*
X0154638Y0137692D01*
X0155705Y0137692D01*
X0156773Y0136624D01*
X0156773Y0134489D01*
X0155705Y0133421D01*
X0153570Y0135557D02*
X0153570Y0136624D01*
X0175131Y0182321D02*
X0176199Y0182321D01*
X0177266Y0183389D01*
X0177266Y0188726D01*
X0172996Y0188726D02*
X0172996Y0185524D01*
X0174064Y0184456D01*
X0177266Y0184456D01*
X0170821Y0184456D02*
X0170821Y0188726D01*
X0170821Y0184456D02*
X0167618Y0184456D01*
X0166551Y0185524D01*
X0166551Y0188726D01*
X0164375Y0187659D02*
X0162240Y0187659D01*
X0164375Y0187659D02*
X0164375Y0185524D01*
X0163308Y0184456D01*
X0161173Y0184456D01*
X0160105Y0185524D01*
X0160105Y0189794D01*
X0161173Y0190862D01*
X0163308Y0190862D01*
X0164375Y0189794D01*
X0157937Y0188726D02*
X0156869Y0188726D01*
X0154734Y0186591D01*
X0154734Y0184456D02*
X0154734Y0188726D01*
X0152559Y0187659D02*
X0152559Y0186591D01*
X0148288Y0186591D01*
X0148288Y0185524D02*
X0148288Y0187659D01*
X0149356Y0188726D01*
X0151491Y0188726D01*
X0152559Y0187659D01*
X0151491Y0184456D02*
X0149356Y0184456D01*
X0148288Y0185524D01*
X0146113Y0184456D02*
X0146113Y0187659D01*
X0145046Y0188726D01*
X0142910Y0188726D01*
X0141843Y0187659D01*
X0139681Y0188726D02*
X0137546Y0188726D01*
X0138613Y0189794D02*
X0138613Y0185524D01*
X0139681Y0184456D01*
X0141843Y0184456D02*
X0141843Y0190862D01*
X0135371Y0187659D02*
X0135371Y0184456D01*
X0132168Y0184456D01*
X0131100Y0185524D01*
X0132168Y0186591D01*
X0135371Y0186591D01*
X0135371Y0187659D02*
X0134303Y0188726D01*
X0132168Y0188726D01*
X0128925Y0187659D02*
X0128925Y0186591D01*
X0124655Y0186591D01*
X0124655Y0185524D02*
X0124655Y0187659D01*
X0125722Y0188726D01*
X0127858Y0188726D01*
X0128925Y0187659D01*
X0127858Y0184456D02*
X0125722Y0184456D01*
X0124655Y0185524D01*
X0122480Y0184456D02*
X0122480Y0190862D01*
X0118209Y0190862D02*
X0118209Y0184456D01*
X0120344Y0186591D01*
X0122480Y0184456D01*
X0116047Y0184456D02*
X0113912Y0184456D01*
X0114980Y0184456D02*
X0114980Y0188726D01*
X0113912Y0188726D01*
X0114980Y0190862D02*
X0114980Y0191929D01*
X0111750Y0190862D02*
X0110683Y0189794D01*
X0110683Y0184456D01*
X0107453Y0184456D02*
X0105318Y0184456D01*
X0106386Y0184456D02*
X0106386Y0188726D01*
X0105318Y0188726D01*
X0106386Y0190862D02*
X0106386Y0191929D01*
X0103143Y0190862D02*
X0103143Y0184456D01*
X0101008Y0186591D01*
X0098873Y0184456D01*
X0098873Y0190862D01*
X0109615Y0187659D02*
X0111750Y0187659D01*
X0306573Y0127656D02*
X0306573Y0124156D01*
X0306573Y0114656D01*
X0306573Y0110656D01*
X0314573Y0107156D02*
X0315573Y0107156D01*
X0315573Y0106156D01*
X0321573Y0106156D01*
X0321573Y0107156D01*
X0322573Y0107156D01*
X0330573Y0110656D02*
X0330573Y0114156D01*
X0330573Y0124156D01*
X0330573Y0127656D01*
X0322573Y0131156D02*
X0321573Y0131156D01*
X0321573Y0132156D01*
X0315573Y0132156D01*
X0315573Y0131156D01*
X0314573Y0131156D01*
X0317573Y0119156D02*
X0317575Y0119219D01*
X0317581Y0119281D01*
X0317591Y0119343D01*
X0317604Y0119405D01*
X0317622Y0119465D01*
X0317643Y0119524D01*
X0317668Y0119582D01*
X0317697Y0119638D01*
X0317729Y0119692D01*
X0317764Y0119744D01*
X0317802Y0119793D01*
X0317844Y0119841D01*
X0317888Y0119885D01*
X0317936Y0119927D01*
X0317985Y0119965D01*
X0318037Y0120000D01*
X0318091Y0120032D01*
X0318147Y0120061D01*
X0318205Y0120086D01*
X0318264Y0120107D01*
X0318324Y0120125D01*
X0318386Y0120138D01*
X0318448Y0120148D01*
X0318510Y0120154D01*
X0318573Y0120156D01*
X0318636Y0120154D01*
X0318698Y0120148D01*
X0318760Y0120138D01*
X0318822Y0120125D01*
X0318882Y0120107D01*
X0318941Y0120086D01*
X0318999Y0120061D01*
X0319055Y0120032D01*
X0319109Y0120000D01*
X0319161Y0119965D01*
X0319210Y0119927D01*
X0319258Y0119885D01*
X0319302Y0119841D01*
X0319344Y0119793D01*
X0319382Y0119744D01*
X0319417Y0119692D01*
X0319449Y0119638D01*
X0319478Y0119582D01*
X0319503Y0119524D01*
X0319524Y0119465D01*
X0319542Y0119405D01*
X0319555Y0119343D01*
X0319565Y0119281D01*
X0319571Y0119219D01*
X0319573Y0119156D01*
X0319571Y0119093D01*
X0319565Y0119031D01*
X0319555Y0118969D01*
X0319542Y0118907D01*
X0319524Y0118847D01*
X0319503Y0118788D01*
X0319478Y0118730D01*
X0319449Y0118674D01*
X0319417Y0118620D01*
X0319382Y0118568D01*
X0319344Y0118519D01*
X0319302Y0118471D01*
X0319258Y0118427D01*
X0319210Y0118385D01*
X0319161Y0118347D01*
X0319109Y0118312D01*
X0319055Y0118280D01*
X0318999Y0118251D01*
X0318941Y0118226D01*
X0318882Y0118205D01*
X0318822Y0118187D01*
X0318760Y0118174D01*
X0318698Y0118164D01*
X0318636Y0118158D01*
X0318573Y0118156D01*
X0318510Y0118158D01*
X0318448Y0118164D01*
X0318386Y0118174D01*
X0318324Y0118187D01*
X0318264Y0118205D01*
X0318205Y0118226D01*
X0318147Y0118251D01*
X0318091Y0118280D01*
X0318037Y0118312D01*
X0317985Y0118347D01*
X0317936Y0118385D01*
X0317888Y0118427D01*
X0317844Y0118471D01*
X0317802Y0118519D01*
X0317764Y0118568D01*
X0317729Y0118620D01*
X0317697Y0118674D01*
X0317668Y0118730D01*
X0317643Y0118788D01*
X0317622Y0118847D01*
X0317604Y0118907D01*
X0317591Y0118969D01*
X0317581Y0119031D01*
X0317575Y0119093D01*
X0317573Y0119156D01*
X0311573Y0119156D02*
X0311575Y0119328D01*
X0311581Y0119499D01*
X0311592Y0119671D01*
X0311607Y0119842D01*
X0311626Y0120013D01*
X0311649Y0120183D01*
X0311676Y0120353D01*
X0311708Y0120522D01*
X0311743Y0120690D01*
X0311783Y0120857D01*
X0311827Y0121023D01*
X0311874Y0121188D01*
X0311926Y0121352D01*
X0311982Y0121514D01*
X0312042Y0121675D01*
X0312106Y0121835D01*
X0312174Y0121993D01*
X0312245Y0122149D01*
X0312320Y0122303D01*
X0312400Y0122456D01*
X0312482Y0122606D01*
X0312569Y0122755D01*
X0312659Y0122901D01*
X0312753Y0123045D01*
X0312850Y0123187D01*
X0312951Y0123326D01*
X0313055Y0123463D01*
X0313162Y0123597D01*
X0313273Y0123728D01*
X0313386Y0123857D01*
X0313503Y0123983D01*
X0313623Y0124106D01*
X0313746Y0124226D01*
X0313872Y0124343D01*
X0314001Y0124456D01*
X0314132Y0124567D01*
X0314266Y0124674D01*
X0314403Y0124778D01*
X0314542Y0124879D01*
X0314684Y0124976D01*
X0314828Y0125070D01*
X0314974Y0125160D01*
X0315123Y0125247D01*
X0315273Y0125329D01*
X0315426Y0125409D01*
X0315580Y0125484D01*
X0315736Y0125555D01*
X0315894Y0125623D01*
X0316054Y0125687D01*
X0316215Y0125747D01*
X0316377Y0125803D01*
X0316541Y0125855D01*
X0316706Y0125902D01*
X0316872Y0125946D01*
X0317039Y0125986D01*
X0317207Y0126021D01*
X0317376Y0126053D01*
X0317546Y0126080D01*
X0317716Y0126103D01*
X0317887Y0126122D01*
X0318058Y0126137D01*
X0318230Y0126148D01*
X0318401Y0126154D01*
X0318573Y0126156D01*
X0318745Y0126154D01*
X0318916Y0126148D01*
X0319088Y0126137D01*
X0319259Y0126122D01*
X0319430Y0126103D01*
X0319600Y0126080D01*
X0319770Y0126053D01*
X0319939Y0126021D01*
X0320107Y0125986D01*
X0320274Y0125946D01*
X0320440Y0125902D01*
X0320605Y0125855D01*
X0320769Y0125803D01*
X0320931Y0125747D01*
X0321092Y0125687D01*
X0321252Y0125623D01*
X0321410Y0125555D01*
X0321566Y0125484D01*
X0321720Y0125409D01*
X0321873Y0125329D01*
X0322023Y0125247D01*
X0322172Y0125160D01*
X0322318Y0125070D01*
X0322462Y0124976D01*
X0322604Y0124879D01*
X0322743Y0124778D01*
X0322880Y0124674D01*
X0323014Y0124567D01*
X0323145Y0124456D01*
X0323274Y0124343D01*
X0323400Y0124226D01*
X0323523Y0124106D01*
X0323643Y0123983D01*
X0323760Y0123857D01*
X0323873Y0123728D01*
X0323984Y0123597D01*
X0324091Y0123463D01*
X0324195Y0123326D01*
X0324296Y0123187D01*
X0324393Y0123045D01*
X0324487Y0122901D01*
X0324577Y0122755D01*
X0324664Y0122606D01*
X0324746Y0122456D01*
X0324826Y0122303D01*
X0324901Y0122149D01*
X0324972Y0121993D01*
X0325040Y0121835D01*
X0325104Y0121675D01*
X0325164Y0121514D01*
X0325220Y0121352D01*
X0325272Y0121188D01*
X0325319Y0121023D01*
X0325363Y0120857D01*
X0325403Y0120690D01*
X0325438Y0120522D01*
X0325470Y0120353D01*
X0325497Y0120183D01*
X0325520Y0120013D01*
X0325539Y0119842D01*
X0325554Y0119671D01*
X0325565Y0119499D01*
X0325571Y0119328D01*
X0325573Y0119156D01*
X0325571Y0118984D01*
X0325565Y0118813D01*
X0325554Y0118641D01*
X0325539Y0118470D01*
X0325520Y0118299D01*
X0325497Y0118129D01*
X0325470Y0117959D01*
X0325438Y0117790D01*
X0325403Y0117622D01*
X0325363Y0117455D01*
X0325319Y0117289D01*
X0325272Y0117124D01*
X0325220Y0116960D01*
X0325164Y0116798D01*
X0325104Y0116637D01*
X0325040Y0116477D01*
X0324972Y0116319D01*
X0324901Y0116163D01*
X0324826Y0116009D01*
X0324746Y0115856D01*
X0324664Y0115706D01*
X0324577Y0115557D01*
X0324487Y0115411D01*
X0324393Y0115267D01*
X0324296Y0115125D01*
X0324195Y0114986D01*
X0324091Y0114849D01*
X0323984Y0114715D01*
X0323873Y0114584D01*
X0323760Y0114455D01*
X0323643Y0114329D01*
X0323523Y0114206D01*
X0323400Y0114086D01*
X0323274Y0113969D01*
X0323145Y0113856D01*
X0323014Y0113745D01*
X0322880Y0113638D01*
X0322743Y0113534D01*
X0322604Y0113433D01*
X0322462Y0113336D01*
X0322318Y0113242D01*
X0322172Y0113152D01*
X0322023Y0113065D01*
X0321873Y0112983D01*
X0321720Y0112903D01*
X0321566Y0112828D01*
X0321410Y0112757D01*
X0321252Y0112689D01*
X0321092Y0112625D01*
X0320931Y0112565D01*
X0320769Y0112509D01*
X0320605Y0112457D01*
X0320440Y0112410D01*
X0320274Y0112366D01*
X0320107Y0112326D01*
X0319939Y0112291D01*
X0319770Y0112259D01*
X0319600Y0112232D01*
X0319430Y0112209D01*
X0319259Y0112190D01*
X0319088Y0112175D01*
X0318916Y0112164D01*
X0318745Y0112158D01*
X0318573Y0112156D01*
X0318401Y0112158D01*
X0318230Y0112164D01*
X0318058Y0112175D01*
X0317887Y0112190D01*
X0317716Y0112209D01*
X0317546Y0112232D01*
X0317376Y0112259D01*
X0317207Y0112291D01*
X0317039Y0112326D01*
X0316872Y0112366D01*
X0316706Y0112410D01*
X0316541Y0112457D01*
X0316377Y0112509D01*
X0316215Y0112565D01*
X0316054Y0112625D01*
X0315894Y0112689D01*
X0315736Y0112757D01*
X0315580Y0112828D01*
X0315426Y0112903D01*
X0315273Y0112983D01*
X0315123Y0113065D01*
X0314974Y0113152D01*
X0314828Y0113242D01*
X0314684Y0113336D01*
X0314542Y0113433D01*
X0314403Y0113534D01*
X0314266Y0113638D01*
X0314132Y0113745D01*
X0314001Y0113856D01*
X0313872Y0113969D01*
X0313746Y0114086D01*
X0313623Y0114206D01*
X0313503Y0114329D01*
X0313386Y0114455D01*
X0313273Y0114584D01*
X0313162Y0114715D01*
X0313055Y0114849D01*
X0312951Y0114986D01*
X0312850Y0115125D01*
X0312753Y0115267D01*
X0312659Y0115411D01*
X0312569Y0115557D01*
X0312482Y0115706D01*
X0312400Y0115856D01*
X0312320Y0116009D01*
X0312245Y0116163D01*
X0312174Y0116319D01*
X0312106Y0116477D01*
X0312042Y0116637D01*
X0311982Y0116798D01*
X0311926Y0116960D01*
X0311874Y0117124D01*
X0311827Y0117289D01*
X0311783Y0117455D01*
X0311743Y0117622D01*
X0311708Y0117790D01*
X0311676Y0117959D01*
X0311649Y0118129D01*
X0311626Y0118299D01*
X0311607Y0118470D01*
X0311592Y0118641D01*
X0311581Y0118813D01*
X0311575Y0118984D01*
X0311573Y0119156D01*
D11*
X0307573Y0114656D02*
X0306573Y0114656D01*
X0307573Y0114656D02*
X0307573Y0124156D01*
X0306573Y0124156D01*
X0329573Y0124156D02*
X0329573Y0114156D01*
X0330573Y0114156D01*
X0330573Y0124156D02*
X0329573Y0124156D01*
X0282779Y0123690D02*
X0282312Y0124157D01*
X0280910Y0124157D01*
X0280910Y0123223D01*
X0281378Y0122756D01*
X0282312Y0122756D01*
X0282779Y0123223D01*
X0282779Y0123690D01*
X0281845Y0125091D02*
X0280910Y0124157D01*
X0280016Y0123223D02*
X0280016Y0125091D01*
X0279549Y0125559D01*
X0278148Y0125559D01*
X0278148Y0122756D01*
X0279549Y0122756D01*
X0280016Y0123223D01*
X0281845Y0125091D02*
X0282779Y0125559D01*
X0280910Y0132756D02*
X0280910Y0133223D01*
X0282779Y0135091D01*
X0282779Y0135559D01*
X0280910Y0135559D01*
X0280016Y0135091D02*
X0280016Y0133223D01*
X0279549Y0132756D01*
X0278148Y0132756D01*
X0278148Y0135559D01*
X0279549Y0135559D01*
X0280016Y0135091D01*
X0279549Y0142756D02*
X0280016Y0143223D01*
X0280016Y0145091D01*
X0279549Y0145559D01*
X0278148Y0145559D01*
X0278148Y0142756D01*
X0279549Y0142756D01*
X0280910Y0143223D02*
X0280910Y0143690D01*
X0281378Y0144157D01*
X0282312Y0144157D01*
X0282779Y0143690D01*
X0282779Y0143223D01*
X0282312Y0142756D01*
X0281378Y0142756D01*
X0280910Y0143223D01*
X0281378Y0144157D02*
X0280910Y0144624D01*
X0280910Y0145091D01*
X0281378Y0145559D01*
X0282312Y0145559D01*
X0282779Y0145091D01*
X0282779Y0144624D01*
X0282312Y0144157D01*
X0282312Y0152756D02*
X0281378Y0152756D01*
X0280910Y0153223D01*
X0280016Y0153690D02*
X0280016Y0155559D01*
X0280910Y0155091D02*
X0281378Y0155559D01*
X0282312Y0155559D01*
X0282779Y0155091D01*
X0282779Y0154624D01*
X0282312Y0154157D01*
X0282779Y0153690D01*
X0282779Y0153223D01*
X0282312Y0152756D01*
X0282312Y0154157D02*
X0281845Y0154157D01*
X0280016Y0153690D02*
X0279082Y0152756D01*
X0278148Y0153690D01*
X0278148Y0155559D01*
X0277254Y0155091D02*
X0277254Y0154624D01*
X0276787Y0154157D01*
X0277254Y0153690D01*
X0277254Y0153223D01*
X0276787Y0152756D01*
X0275853Y0152756D01*
X0275386Y0153223D01*
X0276320Y0154157D02*
X0276787Y0154157D01*
X0277254Y0155091D02*
X0276787Y0155559D01*
X0275853Y0155559D01*
X0275386Y0155091D01*
X0275034Y0171131D02*
X0274651Y0171515D01*
X0275034Y0171131D02*
X0275802Y0171131D01*
X0276185Y0171515D01*
X0276185Y0171898D01*
X0275802Y0172282D01*
X0275034Y0172282D01*
X0274651Y0172666D01*
X0274651Y0173049D01*
X0275034Y0173433D01*
X0275802Y0173433D01*
X0276185Y0173049D01*
X0276953Y0173433D02*
X0276953Y0171131D01*
X0277720Y0171898D01*
X0278487Y0171131D01*
X0278487Y0173433D01*
X0279255Y0173433D02*
X0280022Y0173433D01*
X0279638Y0173433D02*
X0279638Y0171131D01*
X0279255Y0171131D02*
X0280022Y0171131D01*
X0281556Y0171131D02*
X0281556Y0173433D01*
X0280789Y0173433D02*
X0282324Y0173433D01*
X0283091Y0173049D02*
X0283091Y0171515D01*
X0283475Y0171131D01*
X0284242Y0171131D01*
X0284626Y0171515D01*
X0285393Y0171131D02*
X0285393Y0173433D01*
X0284626Y0173049D02*
X0284242Y0173433D01*
X0283475Y0173433D01*
X0283091Y0173049D01*
X0282324Y0174881D02*
X0283858Y0174881D01*
X0283091Y0176032D02*
X0282324Y0176032D01*
X0281556Y0175648D02*
X0281556Y0175265D01*
X0281173Y0174881D01*
X0280405Y0174881D01*
X0280022Y0175265D01*
X0280405Y0176032D02*
X0281173Y0176032D01*
X0281556Y0175648D01*
X0282324Y0174881D02*
X0282324Y0177183D01*
X0283858Y0177183D01*
X0284626Y0177183D02*
X0286160Y0177183D01*
X0285393Y0177183D02*
X0285393Y0174881D01*
X0286928Y0173433D02*
X0286928Y0171131D01*
X0286928Y0172282D02*
X0285393Y0172282D01*
X0281556Y0176799D02*
X0281173Y0177183D01*
X0280405Y0177183D01*
X0280022Y0176799D01*
X0280022Y0176416D01*
X0280405Y0176032D01*
X0279255Y0174881D02*
X0277720Y0174881D01*
X0277720Y0177183D01*
X0279255Y0177183D01*
X0278487Y0176032D02*
X0277720Y0176032D01*
X0276953Y0176032D02*
X0276569Y0175648D01*
X0275418Y0175648D01*
X0275418Y0174881D02*
X0275418Y0177183D01*
X0276569Y0177183D01*
X0276953Y0176799D01*
X0276953Y0176032D01*
X0276185Y0175648D02*
X0276953Y0174881D01*
X0211066Y0145091D02*
X0210599Y0145559D01*
X0209198Y0145559D01*
X0209198Y0142756D01*
X0210599Y0142756D01*
X0211066Y0143223D01*
X0211066Y0145091D01*
X0208303Y0145559D02*
X0208303Y0142756D01*
X0206435Y0145559D01*
X0206435Y0142756D01*
X0205541Y0143223D02*
X0205074Y0142756D01*
X0204140Y0142756D01*
X0203673Y0143223D01*
X0203673Y0145091D01*
X0204140Y0145559D01*
X0205074Y0145559D01*
X0205541Y0145091D01*
X0205541Y0144157D02*
X0204607Y0144157D01*
X0205541Y0144157D02*
X0205541Y0143223D01*
X0205074Y0135559D02*
X0203673Y0135559D01*
X0203673Y0132756D01*
X0205074Y0132756D01*
X0205541Y0133223D01*
X0205541Y0135091D01*
X0205074Y0135559D01*
X0206435Y0134157D02*
X0208303Y0134157D01*
X0207836Y0132756D02*
X0207836Y0135559D01*
X0206435Y0134157D01*
X0206902Y0125559D02*
X0207836Y0125559D01*
X0208303Y0125091D01*
X0208303Y0124624D01*
X0207836Y0124157D01*
X0208303Y0123690D01*
X0208303Y0123223D01*
X0207836Y0122756D01*
X0206902Y0122756D01*
X0206435Y0123223D01*
X0205541Y0123223D02*
X0205541Y0125091D01*
X0205074Y0125559D01*
X0203673Y0125559D01*
X0203673Y0122756D01*
X0205074Y0122756D01*
X0205541Y0123223D01*
X0207369Y0124157D02*
X0207836Y0124157D01*
X0206435Y0125091D02*
X0206902Y0125559D01*
X0206902Y0115559D02*
X0206435Y0115091D01*
X0206902Y0115559D02*
X0207836Y0115559D01*
X0208303Y0115091D01*
X0208303Y0114624D01*
X0206435Y0112756D01*
X0208303Y0112756D01*
X0205541Y0113223D02*
X0205541Y0115091D01*
X0205074Y0115559D01*
X0203673Y0115559D01*
X0203673Y0112756D01*
X0205074Y0112756D01*
X0205541Y0113223D01*
X0205074Y0105559D02*
X0203673Y0105559D01*
X0203673Y0102756D01*
X0205074Y0102756D01*
X0205541Y0103223D01*
X0205541Y0105091D01*
X0205074Y0105559D01*
X0206435Y0104624D02*
X0207369Y0105559D01*
X0207369Y0102756D01*
X0206435Y0102756D02*
X0208303Y0102756D01*
X0208303Y0095559D02*
X0206435Y0092756D01*
X0205541Y0092756D02*
X0204607Y0093690D01*
X0205074Y0093690D02*
X0203673Y0093690D01*
X0203673Y0092756D02*
X0203673Y0095559D01*
X0205074Y0095559D01*
X0205541Y0095091D01*
X0205541Y0094157D01*
X0205074Y0093690D01*
X0206435Y0095559D02*
X0208303Y0092756D01*
X0208303Y0085559D02*
X0206435Y0082756D01*
X0204607Y0082756D02*
X0204607Y0085559D01*
X0203673Y0085559D02*
X0205541Y0085559D01*
X0206435Y0085559D02*
X0208303Y0082756D01*
X0275386Y0082756D02*
X0275386Y0085559D01*
X0276787Y0085559D01*
X0277254Y0085091D01*
X0277254Y0084157D01*
X0276787Y0083690D01*
X0275386Y0083690D01*
X0276320Y0083690D02*
X0277254Y0082756D01*
X0278148Y0083223D02*
X0278615Y0082756D01*
X0279549Y0082756D01*
X0280016Y0083223D01*
X0280016Y0083690D01*
X0279549Y0084157D01*
X0278615Y0084157D01*
X0278148Y0084624D01*
X0278148Y0085091D01*
X0278615Y0085559D01*
X0279549Y0085559D01*
X0280016Y0085091D01*
X0280910Y0085559D02*
X0282779Y0085559D01*
X0281845Y0085559D02*
X0281845Y0082756D01*
X0282312Y0092756D02*
X0281378Y0092756D01*
X0280910Y0093223D01*
X0282779Y0095091D01*
X0282779Y0093223D01*
X0282312Y0092756D01*
X0280910Y0093223D02*
X0280910Y0095091D01*
X0281378Y0095559D01*
X0282312Y0095559D01*
X0282779Y0095091D01*
X0280016Y0094624D02*
X0280016Y0092756D01*
X0280016Y0094157D02*
X0278148Y0094157D01*
X0278148Y0094624D02*
X0279082Y0095559D01*
X0280016Y0094624D01*
X0278148Y0094624D02*
X0278148Y0092756D01*
X0278148Y0102756D02*
X0279549Y0102756D01*
X0280016Y0103223D01*
X0280016Y0105091D01*
X0279549Y0105559D01*
X0278148Y0105559D01*
X0278148Y0102756D01*
X0280910Y0103223D02*
X0282779Y0105091D01*
X0282779Y0103223D01*
X0282312Y0102756D01*
X0281378Y0102756D01*
X0280910Y0103223D01*
X0280910Y0105091D01*
X0281378Y0105559D01*
X0282312Y0105559D01*
X0282779Y0105091D01*
X0282312Y0112756D02*
X0281378Y0112756D01*
X0280910Y0113223D01*
X0280016Y0113223D02*
X0280016Y0115091D01*
X0279549Y0115559D01*
X0278148Y0115559D01*
X0278148Y0112756D01*
X0279549Y0112756D01*
X0280016Y0113223D01*
X0280910Y0114157D02*
X0281845Y0114624D01*
X0282312Y0114624D01*
X0282779Y0114157D01*
X0282779Y0113223D01*
X0282312Y0112756D01*
X0280910Y0114157D02*
X0280910Y0115559D01*
X0282779Y0115559D01*
X0208303Y0153690D02*
X0208303Y0155559D01*
X0206435Y0155559D02*
X0206435Y0153690D01*
X0207369Y0152756D01*
X0208303Y0153690D01*
X0205541Y0153223D02*
X0205074Y0152756D01*
X0204140Y0152756D01*
X0203673Y0153223D01*
X0203673Y0154157D02*
X0204607Y0154624D01*
X0205074Y0154624D01*
X0205541Y0154157D01*
X0205541Y0153223D01*
X0203673Y0154157D02*
X0203673Y0155559D01*
X0205541Y0155559D01*
D12*
X0212473Y0149156D02*
X0212473Y0077056D01*
X0212573Y0077056D01*
X0212470Y0077085D02*
X0275463Y0077085D01*
X0275463Y0054251D01*
X0212470Y0054251D01*
X0212470Y0077085D01*
X0193573Y0064156D02*
X0193576Y0063914D01*
X0193585Y0063673D01*
X0193599Y0063432D01*
X0193620Y0063191D01*
X0193646Y0062951D01*
X0193678Y0062711D01*
X0193716Y0062472D01*
X0193759Y0062235D01*
X0193809Y0061998D01*
X0193864Y0061763D01*
X0193924Y0061529D01*
X0193991Y0061297D01*
X0194062Y0061066D01*
X0194140Y0060837D01*
X0194223Y0060610D01*
X0194311Y0060385D01*
X0194405Y0060162D01*
X0194504Y0059942D01*
X0194609Y0059724D01*
X0194718Y0059509D01*
X0194833Y0059296D01*
X0194953Y0059086D01*
X0195078Y0058880D01*
X0195208Y0058676D01*
X0195343Y0058475D01*
X0195483Y0058278D01*
X0195627Y0058084D01*
X0195776Y0057894D01*
X0195930Y0057708D01*
X0196088Y0057525D01*
X0196250Y0057346D01*
X0196417Y0057171D01*
X0196588Y0057000D01*
X0196763Y0056833D01*
X0196942Y0056671D01*
X0197125Y0056513D01*
X0197311Y0056359D01*
X0197501Y0056210D01*
X0197695Y0056066D01*
X0197892Y0055926D01*
X0198093Y0055791D01*
X0198297Y0055661D01*
X0198503Y0055536D01*
X0198713Y0055416D01*
X0198926Y0055301D01*
X0199141Y0055192D01*
X0199359Y0055087D01*
X0199579Y0054988D01*
X0199802Y0054894D01*
X0200027Y0054806D01*
X0200254Y0054723D01*
X0200483Y0054645D01*
X0200714Y0054574D01*
X0200946Y0054507D01*
X0201180Y0054447D01*
X0201415Y0054392D01*
X0201652Y0054342D01*
X0201889Y0054299D01*
X0202128Y0054261D01*
X0202368Y0054229D01*
X0202608Y0054203D01*
X0202849Y0054182D01*
X0203090Y0054168D01*
X0203331Y0054159D01*
X0203573Y0054156D01*
X0283573Y0054156D01*
X0283815Y0054159D01*
X0284056Y0054168D01*
X0284297Y0054182D01*
X0284538Y0054203D01*
X0284778Y0054229D01*
X0285018Y0054261D01*
X0285257Y0054299D01*
X0285494Y0054342D01*
X0285731Y0054392D01*
X0285966Y0054447D01*
X0286200Y0054507D01*
X0286432Y0054574D01*
X0286663Y0054645D01*
X0286892Y0054723D01*
X0287119Y0054806D01*
X0287344Y0054894D01*
X0287567Y0054988D01*
X0287787Y0055087D01*
X0288005Y0055192D01*
X0288220Y0055301D01*
X0288433Y0055416D01*
X0288643Y0055536D01*
X0288849Y0055661D01*
X0289053Y0055791D01*
X0289254Y0055926D01*
X0289451Y0056066D01*
X0289645Y0056210D01*
X0289835Y0056359D01*
X0290021Y0056513D01*
X0290204Y0056671D01*
X0290383Y0056833D01*
X0290558Y0057000D01*
X0290729Y0057171D01*
X0290896Y0057346D01*
X0291058Y0057525D01*
X0291216Y0057708D01*
X0291370Y0057894D01*
X0291519Y0058084D01*
X0291663Y0058278D01*
X0291803Y0058475D01*
X0291938Y0058676D01*
X0292068Y0058880D01*
X0292193Y0059086D01*
X0292313Y0059296D01*
X0292428Y0059509D01*
X0292537Y0059724D01*
X0292642Y0059942D01*
X0292741Y0060162D01*
X0292835Y0060385D01*
X0292923Y0060610D01*
X0293006Y0060837D01*
X0293084Y0061066D01*
X0293155Y0061297D01*
X0293222Y0061529D01*
X0293282Y0061763D01*
X0293337Y0061998D01*
X0293387Y0062235D01*
X0293430Y0062472D01*
X0293468Y0062711D01*
X0293500Y0062951D01*
X0293526Y0063191D01*
X0293547Y0063432D01*
X0293561Y0063673D01*
X0293570Y0063914D01*
X0293573Y0064156D01*
X0293573Y0189156D01*
X0193573Y0189156D01*
X0193573Y0064156D01*
X0178415Y0055377D02*
X0156762Y0055377D01*
X0007156Y0055377D01*
X0007156Y0182936D01*
X0156762Y0182936D01*
X0156762Y0055377D01*
X0152825Y0059314D02*
X0152827Y0059411D01*
X0152833Y0059508D01*
X0152843Y0059604D01*
X0152857Y0059700D01*
X0152875Y0059796D01*
X0152896Y0059890D01*
X0152922Y0059984D01*
X0152951Y0060076D01*
X0152985Y0060167D01*
X0153021Y0060257D01*
X0153062Y0060345D01*
X0153106Y0060431D01*
X0153154Y0060516D01*
X0153205Y0060598D01*
X0153259Y0060679D01*
X0153317Y0060757D01*
X0153378Y0060832D01*
X0153441Y0060905D01*
X0153508Y0060976D01*
X0153578Y0061043D01*
X0153650Y0061108D01*
X0153725Y0061169D01*
X0153803Y0061228D01*
X0153882Y0061283D01*
X0153964Y0061335D01*
X0154048Y0061383D01*
X0154134Y0061428D01*
X0154222Y0061470D01*
X0154311Y0061508D01*
X0154402Y0061542D01*
X0154494Y0061572D01*
X0154587Y0061599D01*
X0154682Y0061621D01*
X0154777Y0061640D01*
X0154873Y0061655D01*
X0154969Y0061666D01*
X0155066Y0061673D01*
X0155163Y0061676D01*
X0155260Y0061675D01*
X0155357Y0061670D01*
X0155453Y0061661D01*
X0155549Y0061648D01*
X0155645Y0061631D01*
X0155740Y0061610D01*
X0155833Y0061586D01*
X0155926Y0061557D01*
X0156018Y0061525D01*
X0156108Y0061489D01*
X0156196Y0061450D01*
X0156283Y0061406D01*
X0156368Y0061360D01*
X0156451Y0061309D01*
X0156532Y0061256D01*
X0156610Y0061199D01*
X0156687Y0061139D01*
X0156760Y0061076D01*
X0156831Y0061010D01*
X0156899Y0060941D01*
X0156965Y0060869D01*
X0157027Y0060795D01*
X0157086Y0060718D01*
X0157142Y0060639D01*
X0157195Y0060557D01*
X0157245Y0060474D01*
X0157290Y0060388D01*
X0157333Y0060301D01*
X0157372Y0060212D01*
X0157407Y0060122D01*
X0157438Y0060030D01*
X0157465Y0059937D01*
X0157489Y0059843D01*
X0157509Y0059748D01*
X0157525Y0059652D01*
X0157537Y0059556D01*
X0157545Y0059459D01*
X0157549Y0059362D01*
X0157549Y0059266D01*
X0157545Y0059169D01*
X0157537Y0059072D01*
X0157525Y0058976D01*
X0157509Y0058880D01*
X0157489Y0058785D01*
X0157465Y0058691D01*
X0157438Y0058598D01*
X0157407Y0058506D01*
X0157372Y0058416D01*
X0157333Y0058327D01*
X0157290Y0058240D01*
X0157245Y0058154D01*
X0157195Y0058071D01*
X0157142Y0057989D01*
X0157086Y0057910D01*
X0157027Y0057833D01*
X0156965Y0057759D01*
X0156899Y0057687D01*
X0156831Y0057618D01*
X0156760Y0057552D01*
X0156687Y0057489D01*
X0156610Y0057429D01*
X0156532Y0057372D01*
X0156451Y0057319D01*
X0156368Y0057268D01*
X0156283Y0057222D01*
X0156196Y0057178D01*
X0156108Y0057139D01*
X0156018Y0057103D01*
X0155926Y0057071D01*
X0155833Y0057042D01*
X0155740Y0057018D01*
X0155645Y0056997D01*
X0155549Y0056980D01*
X0155453Y0056967D01*
X0155357Y0056958D01*
X0155260Y0056953D01*
X0155163Y0056952D01*
X0155066Y0056955D01*
X0154969Y0056962D01*
X0154873Y0056973D01*
X0154777Y0056988D01*
X0154682Y0057007D01*
X0154587Y0057029D01*
X0154494Y0057056D01*
X0154402Y0057086D01*
X0154311Y0057120D01*
X0154222Y0057158D01*
X0154134Y0057200D01*
X0154048Y0057245D01*
X0153964Y0057293D01*
X0153882Y0057345D01*
X0153803Y0057400D01*
X0153725Y0057459D01*
X0153650Y0057520D01*
X0153578Y0057585D01*
X0153508Y0057652D01*
X0153441Y0057723D01*
X0153378Y0057796D01*
X0153317Y0057871D01*
X0153259Y0057949D01*
X0153205Y0058030D01*
X0153154Y0058112D01*
X0153106Y0058197D01*
X0153062Y0058283D01*
X0153021Y0058371D01*
X0152985Y0058461D01*
X0152951Y0058552D01*
X0152922Y0058644D01*
X0152896Y0058738D01*
X0152875Y0058832D01*
X0152857Y0058928D01*
X0152843Y0059024D01*
X0152833Y0059120D01*
X0152827Y0059217D01*
X0152825Y0059314D01*
X0178415Y0055377D02*
X0178415Y0182936D01*
X0156762Y0182936D01*
X0152825Y0178999D02*
X0152827Y0179096D01*
X0152833Y0179193D01*
X0152843Y0179289D01*
X0152857Y0179385D01*
X0152875Y0179481D01*
X0152896Y0179575D01*
X0152922Y0179669D01*
X0152951Y0179761D01*
X0152985Y0179852D01*
X0153021Y0179942D01*
X0153062Y0180030D01*
X0153106Y0180116D01*
X0153154Y0180201D01*
X0153205Y0180283D01*
X0153259Y0180364D01*
X0153317Y0180442D01*
X0153378Y0180517D01*
X0153441Y0180590D01*
X0153508Y0180661D01*
X0153578Y0180728D01*
X0153650Y0180793D01*
X0153725Y0180854D01*
X0153803Y0180913D01*
X0153882Y0180968D01*
X0153964Y0181020D01*
X0154048Y0181068D01*
X0154134Y0181113D01*
X0154222Y0181155D01*
X0154311Y0181193D01*
X0154402Y0181227D01*
X0154494Y0181257D01*
X0154587Y0181284D01*
X0154682Y0181306D01*
X0154777Y0181325D01*
X0154873Y0181340D01*
X0154969Y0181351D01*
X0155066Y0181358D01*
X0155163Y0181361D01*
X0155260Y0181360D01*
X0155357Y0181355D01*
X0155453Y0181346D01*
X0155549Y0181333D01*
X0155645Y0181316D01*
X0155740Y0181295D01*
X0155833Y0181271D01*
X0155926Y0181242D01*
X0156018Y0181210D01*
X0156108Y0181174D01*
X0156196Y0181135D01*
X0156283Y0181091D01*
X0156368Y0181045D01*
X0156451Y0180994D01*
X0156532Y0180941D01*
X0156610Y0180884D01*
X0156687Y0180824D01*
X0156760Y0180761D01*
X0156831Y0180695D01*
X0156899Y0180626D01*
X0156965Y0180554D01*
X0157027Y0180480D01*
X0157086Y0180403D01*
X0157142Y0180324D01*
X0157195Y0180242D01*
X0157245Y0180159D01*
X0157290Y0180073D01*
X0157333Y0179986D01*
X0157372Y0179897D01*
X0157407Y0179807D01*
X0157438Y0179715D01*
X0157465Y0179622D01*
X0157489Y0179528D01*
X0157509Y0179433D01*
X0157525Y0179337D01*
X0157537Y0179241D01*
X0157545Y0179144D01*
X0157549Y0179047D01*
X0157549Y0178951D01*
X0157545Y0178854D01*
X0157537Y0178757D01*
X0157525Y0178661D01*
X0157509Y0178565D01*
X0157489Y0178470D01*
X0157465Y0178376D01*
X0157438Y0178283D01*
X0157407Y0178191D01*
X0157372Y0178101D01*
X0157333Y0178012D01*
X0157290Y0177925D01*
X0157245Y0177839D01*
X0157195Y0177756D01*
X0157142Y0177674D01*
X0157086Y0177595D01*
X0157027Y0177518D01*
X0156965Y0177444D01*
X0156899Y0177372D01*
X0156831Y0177303D01*
X0156760Y0177237D01*
X0156687Y0177174D01*
X0156610Y0177114D01*
X0156532Y0177057D01*
X0156451Y0177004D01*
X0156368Y0176953D01*
X0156283Y0176907D01*
X0156196Y0176863D01*
X0156108Y0176824D01*
X0156018Y0176788D01*
X0155926Y0176756D01*
X0155833Y0176727D01*
X0155740Y0176703D01*
X0155645Y0176682D01*
X0155549Y0176665D01*
X0155453Y0176652D01*
X0155357Y0176643D01*
X0155260Y0176638D01*
X0155163Y0176637D01*
X0155066Y0176640D01*
X0154969Y0176647D01*
X0154873Y0176658D01*
X0154777Y0176673D01*
X0154682Y0176692D01*
X0154587Y0176714D01*
X0154494Y0176741D01*
X0154402Y0176771D01*
X0154311Y0176805D01*
X0154222Y0176843D01*
X0154134Y0176885D01*
X0154048Y0176930D01*
X0153964Y0176978D01*
X0153882Y0177030D01*
X0153803Y0177085D01*
X0153725Y0177144D01*
X0153650Y0177205D01*
X0153578Y0177270D01*
X0153508Y0177337D01*
X0153441Y0177408D01*
X0153378Y0177481D01*
X0153317Y0177556D01*
X0153259Y0177634D01*
X0153205Y0177715D01*
X0153154Y0177797D01*
X0153106Y0177882D01*
X0153062Y0177968D01*
X0153021Y0178056D01*
X0152985Y0178146D01*
X0152951Y0178237D01*
X0152922Y0178329D01*
X0152896Y0178423D01*
X0152875Y0178517D01*
X0152857Y0178613D01*
X0152843Y0178709D01*
X0152833Y0178805D01*
X0152827Y0178902D01*
X0152825Y0178999D01*
X0212573Y0149156D02*
X0275473Y0149156D01*
X0275473Y0077056D01*
X0333319Y0122949D02*
X0334070Y0122198D01*
X0334820Y0122198D01*
X0335571Y0122949D01*
X0335571Y0124450D01*
X0336322Y0125201D01*
X0337072Y0125201D01*
X0337823Y0124450D01*
X0337823Y0122949D01*
X0337072Y0122198D01*
X0333319Y0122949D02*
X0333319Y0124450D01*
X0334070Y0125201D01*
X0334820Y0126802D02*
X0333319Y0128304D01*
X0337823Y0128304D01*
X0337823Y0129805D02*
X0337823Y0126802D01*
X0007156Y0178999D02*
X0007158Y0179096D01*
X0007164Y0179193D01*
X0007174Y0179289D01*
X0007188Y0179385D01*
X0007206Y0179481D01*
X0007227Y0179575D01*
X0007253Y0179669D01*
X0007282Y0179761D01*
X0007316Y0179852D01*
X0007352Y0179942D01*
X0007393Y0180030D01*
X0007437Y0180116D01*
X0007485Y0180201D01*
X0007536Y0180283D01*
X0007590Y0180364D01*
X0007648Y0180442D01*
X0007709Y0180517D01*
X0007772Y0180590D01*
X0007839Y0180661D01*
X0007909Y0180728D01*
X0007981Y0180793D01*
X0008056Y0180854D01*
X0008134Y0180913D01*
X0008213Y0180968D01*
X0008295Y0181020D01*
X0008379Y0181068D01*
X0008465Y0181113D01*
X0008553Y0181155D01*
X0008642Y0181193D01*
X0008733Y0181227D01*
X0008825Y0181257D01*
X0008918Y0181284D01*
X0009013Y0181306D01*
X0009108Y0181325D01*
X0009204Y0181340D01*
X0009300Y0181351D01*
X0009397Y0181358D01*
X0009494Y0181361D01*
X0009591Y0181360D01*
X0009688Y0181355D01*
X0009784Y0181346D01*
X0009880Y0181333D01*
X0009976Y0181316D01*
X0010071Y0181295D01*
X0010164Y0181271D01*
X0010257Y0181242D01*
X0010349Y0181210D01*
X0010439Y0181174D01*
X0010527Y0181135D01*
X0010614Y0181091D01*
X0010699Y0181045D01*
X0010782Y0180994D01*
X0010863Y0180941D01*
X0010941Y0180884D01*
X0011018Y0180824D01*
X0011091Y0180761D01*
X0011162Y0180695D01*
X0011230Y0180626D01*
X0011296Y0180554D01*
X0011358Y0180480D01*
X0011417Y0180403D01*
X0011473Y0180324D01*
X0011526Y0180242D01*
X0011576Y0180159D01*
X0011621Y0180073D01*
X0011664Y0179986D01*
X0011703Y0179897D01*
X0011738Y0179807D01*
X0011769Y0179715D01*
X0011796Y0179622D01*
X0011820Y0179528D01*
X0011840Y0179433D01*
X0011856Y0179337D01*
X0011868Y0179241D01*
X0011876Y0179144D01*
X0011880Y0179047D01*
X0011880Y0178951D01*
X0011876Y0178854D01*
X0011868Y0178757D01*
X0011856Y0178661D01*
X0011840Y0178565D01*
X0011820Y0178470D01*
X0011796Y0178376D01*
X0011769Y0178283D01*
X0011738Y0178191D01*
X0011703Y0178101D01*
X0011664Y0178012D01*
X0011621Y0177925D01*
X0011576Y0177839D01*
X0011526Y0177756D01*
X0011473Y0177674D01*
X0011417Y0177595D01*
X0011358Y0177518D01*
X0011296Y0177444D01*
X0011230Y0177372D01*
X0011162Y0177303D01*
X0011091Y0177237D01*
X0011018Y0177174D01*
X0010941Y0177114D01*
X0010863Y0177057D01*
X0010782Y0177004D01*
X0010699Y0176953D01*
X0010614Y0176907D01*
X0010527Y0176863D01*
X0010439Y0176824D01*
X0010349Y0176788D01*
X0010257Y0176756D01*
X0010164Y0176727D01*
X0010071Y0176703D01*
X0009976Y0176682D01*
X0009880Y0176665D01*
X0009784Y0176652D01*
X0009688Y0176643D01*
X0009591Y0176638D01*
X0009494Y0176637D01*
X0009397Y0176640D01*
X0009300Y0176647D01*
X0009204Y0176658D01*
X0009108Y0176673D01*
X0009013Y0176692D01*
X0008918Y0176714D01*
X0008825Y0176741D01*
X0008733Y0176771D01*
X0008642Y0176805D01*
X0008553Y0176843D01*
X0008465Y0176885D01*
X0008379Y0176930D01*
X0008295Y0176978D01*
X0008213Y0177030D01*
X0008134Y0177085D01*
X0008056Y0177144D01*
X0007981Y0177205D01*
X0007909Y0177270D01*
X0007839Y0177337D01*
X0007772Y0177408D01*
X0007709Y0177481D01*
X0007648Y0177556D01*
X0007590Y0177634D01*
X0007536Y0177715D01*
X0007485Y0177797D01*
X0007437Y0177882D01*
X0007393Y0177968D01*
X0007352Y0178056D01*
X0007316Y0178146D01*
X0007282Y0178237D01*
X0007253Y0178329D01*
X0007227Y0178423D01*
X0007206Y0178517D01*
X0007188Y0178613D01*
X0007174Y0178709D01*
X0007164Y0178805D01*
X0007158Y0178902D01*
X0007156Y0178999D01*
X0007156Y0182936D02*
X0001250Y0182936D01*
X0001250Y0055377D01*
X0007156Y0055377D01*
X0007156Y0059314D02*
X0007158Y0059411D01*
X0007164Y0059508D01*
X0007174Y0059604D01*
X0007188Y0059700D01*
X0007206Y0059796D01*
X0007227Y0059890D01*
X0007253Y0059984D01*
X0007282Y0060076D01*
X0007316Y0060167D01*
X0007352Y0060257D01*
X0007393Y0060345D01*
X0007437Y0060431D01*
X0007485Y0060516D01*
X0007536Y0060598D01*
X0007590Y0060679D01*
X0007648Y0060757D01*
X0007709Y0060832D01*
X0007772Y0060905D01*
X0007839Y0060976D01*
X0007909Y0061043D01*
X0007981Y0061108D01*
X0008056Y0061169D01*
X0008134Y0061228D01*
X0008213Y0061283D01*
X0008295Y0061335D01*
X0008379Y0061383D01*
X0008465Y0061428D01*
X0008553Y0061470D01*
X0008642Y0061508D01*
X0008733Y0061542D01*
X0008825Y0061572D01*
X0008918Y0061599D01*
X0009013Y0061621D01*
X0009108Y0061640D01*
X0009204Y0061655D01*
X0009300Y0061666D01*
X0009397Y0061673D01*
X0009494Y0061676D01*
X0009591Y0061675D01*
X0009688Y0061670D01*
X0009784Y0061661D01*
X0009880Y0061648D01*
X0009976Y0061631D01*
X0010071Y0061610D01*
X0010164Y0061586D01*
X0010257Y0061557D01*
X0010349Y0061525D01*
X0010439Y0061489D01*
X0010527Y0061450D01*
X0010614Y0061406D01*
X0010699Y0061360D01*
X0010782Y0061309D01*
X0010863Y0061256D01*
X0010941Y0061199D01*
X0011018Y0061139D01*
X0011091Y0061076D01*
X0011162Y0061010D01*
X0011230Y0060941D01*
X0011296Y0060869D01*
X0011358Y0060795D01*
X0011417Y0060718D01*
X0011473Y0060639D01*
X0011526Y0060557D01*
X0011576Y0060474D01*
X0011621Y0060388D01*
X0011664Y0060301D01*
X0011703Y0060212D01*
X0011738Y0060122D01*
X0011769Y0060030D01*
X0011796Y0059937D01*
X0011820Y0059843D01*
X0011840Y0059748D01*
X0011856Y0059652D01*
X0011868Y0059556D01*
X0011876Y0059459D01*
X0011880Y0059362D01*
X0011880Y0059266D01*
X0011876Y0059169D01*
X0011868Y0059072D01*
X0011856Y0058976D01*
X0011840Y0058880D01*
X0011820Y0058785D01*
X0011796Y0058691D01*
X0011769Y0058598D01*
X0011738Y0058506D01*
X0011703Y0058416D01*
X0011664Y0058327D01*
X0011621Y0058240D01*
X0011576Y0058154D01*
X0011526Y0058071D01*
X0011473Y0057989D01*
X0011417Y0057910D01*
X0011358Y0057833D01*
X0011296Y0057759D01*
X0011230Y0057687D01*
X0011162Y0057618D01*
X0011091Y0057552D01*
X0011018Y0057489D01*
X0010941Y0057429D01*
X0010863Y0057372D01*
X0010782Y0057319D01*
X0010699Y0057268D01*
X0010614Y0057222D01*
X0010527Y0057178D01*
X0010439Y0057139D01*
X0010349Y0057103D01*
X0010257Y0057071D01*
X0010164Y0057042D01*
X0010071Y0057018D01*
X0009976Y0056997D01*
X0009880Y0056980D01*
X0009784Y0056967D01*
X0009688Y0056958D01*
X0009591Y0056953D01*
X0009494Y0056952D01*
X0009397Y0056955D01*
X0009300Y0056962D01*
X0009204Y0056973D01*
X0009108Y0056988D01*
X0009013Y0057007D01*
X0008918Y0057029D01*
X0008825Y0057056D01*
X0008733Y0057086D01*
X0008642Y0057120D01*
X0008553Y0057158D01*
X0008465Y0057200D01*
X0008379Y0057245D01*
X0008295Y0057293D01*
X0008213Y0057345D01*
X0008134Y0057400D01*
X0008056Y0057459D01*
X0007981Y0057520D01*
X0007909Y0057585D01*
X0007839Y0057652D01*
X0007772Y0057723D01*
X0007709Y0057796D01*
X0007648Y0057871D01*
X0007590Y0057949D01*
X0007536Y0058030D01*
X0007485Y0058112D01*
X0007437Y0058197D01*
X0007393Y0058283D01*
X0007352Y0058371D01*
X0007316Y0058461D01*
X0007282Y0058552D01*
X0007253Y0058644D01*
X0007227Y0058738D01*
X0007206Y0058832D01*
X0007188Y0058928D01*
X0007174Y0059024D01*
X0007164Y0059120D01*
X0007158Y0059217D01*
X0007156Y0059314D01*
D13*
X0198773Y0178756D02*
X0200508Y0180491D01*
X0202242Y0178756D01*
X0202242Y0183961D01*
X0203929Y0183961D02*
X0203929Y0178756D01*
X0207399Y0178756D01*
X0209086Y0178756D02*
X0209086Y0183961D01*
X0210820Y0182226D01*
X0212555Y0183961D01*
X0212555Y0178756D01*
X0214242Y0179624D02*
X0215109Y0178756D01*
X0216844Y0178756D01*
X0217712Y0179624D01*
X0217712Y0183093D01*
X0216844Y0183961D01*
X0215109Y0183961D01*
X0214242Y0183093D01*
X0214242Y0179624D01*
X0219398Y0179624D02*
X0220266Y0178756D01*
X0222001Y0178756D01*
X0222868Y0179624D01*
X0222868Y0180491D01*
X0222001Y0181358D01*
X0220266Y0181358D01*
X0219398Y0182226D01*
X0219398Y0183093D01*
X0220266Y0183961D01*
X0222001Y0183961D01*
X0222868Y0183093D01*
X0224555Y0182226D02*
X0226290Y0183961D01*
X0226290Y0178756D01*
X0228024Y0178756D02*
X0224555Y0178756D01*
X0207399Y0183961D02*
X0203929Y0183961D01*
X0198773Y0183961D02*
X0198773Y0178756D01*
X0203929Y0181358D02*
X0205664Y0181358D01*
X0220100Y0138961D02*
X0220100Y0133756D01*
X0221835Y0135491D01*
X0223569Y0133756D01*
X0223569Y0138961D01*
X0226124Y0137226D02*
X0227858Y0137226D01*
X0228726Y0136358D01*
X0228726Y0135491D01*
X0225256Y0135491D01*
X0225256Y0134624D02*
X0225256Y0136358D01*
X0226124Y0137226D01*
X0225256Y0134624D02*
X0226124Y0133756D01*
X0227858Y0133756D01*
X0230413Y0133756D02*
X0230413Y0138961D01*
X0232147Y0137226D01*
X0233882Y0138961D01*
X0233882Y0133756D01*
X0235569Y0134624D02*
X0236436Y0133756D01*
X0238171Y0133756D01*
X0239039Y0134624D01*
X0239039Y0136358D01*
X0238171Y0137226D01*
X0236436Y0137226D01*
X0235569Y0136358D01*
X0235569Y0134624D01*
X0240725Y0133756D02*
X0243328Y0133756D01*
X0244195Y0134624D01*
X0243328Y0135491D01*
X0241593Y0135491D01*
X0240725Y0136358D01*
X0241593Y0137226D01*
X0244195Y0137226D01*
X0245882Y0134624D02*
X0246749Y0134624D01*
X0246749Y0133756D01*
X0245882Y0133756D01*
X0245882Y0134624D01*
X0248460Y0134624D02*
X0249327Y0133756D01*
X0251930Y0133756D01*
X0253616Y0134624D02*
X0254484Y0133756D01*
X0257086Y0133756D01*
X0253616Y0134624D02*
X0253616Y0136358D01*
X0254484Y0137226D01*
X0257086Y0137226D01*
X0251930Y0137226D02*
X0249327Y0137226D01*
X0248460Y0136358D01*
X0248460Y0134624D01*
X0250187Y0131428D02*
X0250187Y0130561D01*
X0250187Y0128826D02*
X0250187Y0125356D01*
X0251054Y0125356D02*
X0249319Y0125356D01*
X0247633Y0125356D02*
X0247633Y0127958D01*
X0246765Y0128826D01*
X0244163Y0128826D01*
X0244163Y0125356D01*
X0242460Y0125356D02*
X0240725Y0125356D01*
X0241593Y0125356D02*
X0241593Y0128826D01*
X0240725Y0128826D01*
X0239039Y0127958D02*
X0239039Y0125356D01*
X0237304Y0125356D02*
X0237304Y0127958D01*
X0238171Y0128826D01*
X0239039Y0127958D01*
X0237304Y0127958D02*
X0236436Y0128826D01*
X0235569Y0128826D01*
X0235569Y0125356D01*
X0228726Y0125356D02*
X0225256Y0125356D01*
X0226991Y0125356D02*
X0226991Y0130561D01*
X0225256Y0128826D01*
X0223569Y0129693D02*
X0223569Y0126224D01*
X0222702Y0125356D01*
X0220100Y0125356D01*
X0220100Y0130561D01*
X0222702Y0130561D01*
X0223569Y0129693D01*
X0241593Y0130561D02*
X0241593Y0131428D01*
X0249319Y0128826D02*
X0250187Y0128826D01*
X0249821Y0070961D02*
X0249821Y0065756D01*
X0246351Y0070961D01*
X0246351Y0065756D01*
X0244664Y0065756D02*
X0241195Y0065756D01*
X0241195Y0070961D01*
X0244664Y0070961D01*
X0242929Y0068358D02*
X0241195Y0068358D01*
X0239508Y0070961D02*
X0236038Y0070961D01*
X0234351Y0070961D02*
X0234351Y0065756D01*
X0230882Y0070961D01*
X0230882Y0065756D01*
X0229195Y0065756D02*
X0229195Y0069226D01*
X0227460Y0070961D01*
X0225725Y0069226D01*
X0225725Y0065756D01*
X0226617Y0062561D02*
X0223147Y0062561D01*
X0223147Y0057356D01*
X0226617Y0057356D01*
X0228304Y0057356D02*
X0231773Y0057356D01*
X0233460Y0057356D02*
X0233460Y0062561D01*
X0236062Y0062561D01*
X0236930Y0061693D01*
X0236930Y0059958D01*
X0236062Y0059091D01*
X0233460Y0059091D01*
X0230038Y0059958D02*
X0228304Y0059958D01*
X0228304Y0057356D02*
X0228304Y0062561D01*
X0231773Y0062561D01*
X0237773Y0065756D02*
X0237773Y0070961D01*
X0229195Y0068358D02*
X0225725Y0068358D01*
X0221460Y0062561D02*
X0217991Y0059091D01*
X0218858Y0059958D02*
X0221460Y0057356D01*
X0223147Y0059958D02*
X0224882Y0059958D01*
X0217991Y0057356D02*
X0217991Y0062561D01*
X0243773Y0061693D02*
X0243773Y0058224D01*
X0244640Y0057356D01*
X0246375Y0057356D01*
X0247242Y0058224D01*
X0248929Y0057356D02*
X0252399Y0057356D01*
X0254086Y0057356D02*
X0257555Y0057356D01*
X0259242Y0057356D02*
X0259242Y0060826D01*
X0260977Y0062561D01*
X0262712Y0060826D01*
X0262712Y0057356D01*
X0264398Y0057356D02*
X0264398Y0062561D01*
X0267001Y0062561D01*
X0267868Y0061693D01*
X0267868Y0059958D01*
X0267001Y0059091D01*
X0264398Y0059091D01*
X0266133Y0059091D02*
X0267868Y0057356D01*
X0262712Y0059958D02*
X0259242Y0059958D01*
X0257555Y0062561D02*
X0254086Y0062561D01*
X0254086Y0057356D01*
X0254086Y0059958D02*
X0255820Y0059958D01*
X0254977Y0065756D02*
X0254977Y0070961D01*
X0256664Y0069226D02*
X0258399Y0070961D01*
X0260133Y0069226D01*
X0260133Y0065756D01*
X0256664Y0065756D02*
X0256664Y0069226D01*
X0256664Y0068358D02*
X0260133Y0068358D01*
X0254977Y0065756D02*
X0251507Y0070961D01*
X0251507Y0065756D01*
X0248929Y0062561D02*
X0248929Y0057356D01*
X0247242Y0061693D02*
X0246375Y0062561D01*
X0244640Y0062561D01*
X0243773Y0061693D01*
D14*
X0273573Y0164156D02*
X0273573Y0184156D01*
X0288573Y0184156D01*
X0288573Y0164156D01*
X0273573Y0164156D01*
X0258573Y0169156D02*
X0258573Y0189156D01*
X0228573Y0189156D01*
X0228573Y0169156D01*
X0258573Y0169156D01*
D15*
X0251102Y0174923D02*
X0250485Y0174306D01*
X0249251Y0174306D01*
X0248634Y0174923D01*
X0248634Y0177392D01*
X0249251Y0178009D01*
X0250485Y0178009D01*
X0251102Y0177392D01*
X0251102Y0174923D01*
X0247419Y0174306D02*
X0246185Y0175541D01*
X0246802Y0175541D02*
X0244951Y0175541D01*
X0244951Y0174306D02*
X0244951Y0178009D01*
X0246802Y0178009D01*
X0247419Y0177392D01*
X0247419Y0176158D01*
X0246802Y0175541D01*
X0243736Y0174923D02*
X0243119Y0174306D01*
X0241885Y0174306D01*
X0241267Y0174923D01*
X0241267Y0177392D01*
X0241885Y0178009D01*
X0243119Y0178009D01*
X0243736Y0177392D01*
X0243733Y0180306D02*
X0242498Y0180306D01*
X0241881Y0180923D01*
X0240667Y0180923D02*
X0240667Y0184009D01*
X0241881Y0183392D02*
X0242498Y0184009D01*
X0243733Y0184009D01*
X0244350Y0183392D01*
X0245564Y0184009D02*
X0245564Y0180306D01*
X0247416Y0180306D01*
X0248033Y0180923D01*
X0248033Y0181541D01*
X0247416Y0182158D01*
X0245564Y0182158D01*
X0244350Y0181541D02*
X0244350Y0180923D01*
X0243733Y0180306D01*
X0244350Y0181541D02*
X0243733Y0182158D01*
X0242498Y0182158D01*
X0241881Y0182775D01*
X0241881Y0183392D01*
X0240667Y0180923D02*
X0240050Y0180306D01*
X0238815Y0180306D01*
X0238198Y0180923D01*
X0238198Y0184009D01*
X0245564Y0184009D02*
X0247416Y0184009D01*
X0248033Y0183392D01*
X0248033Y0182775D01*
X0247416Y0182158D01*
X0240046Y0178009D02*
X0238812Y0178009D01*
X0239429Y0178009D02*
X0239429Y0174306D01*
X0238812Y0174306D02*
X0240046Y0174306D01*
X0237598Y0174306D02*
X0237598Y0178009D01*
X0236363Y0176775D01*
X0235129Y0178009D01*
X0235129Y0174306D01*
D16*
X0323415Y0034156D02*
X0079321Y0034156D01*
X0073022Y0049904D02*
X0073024Y0050062D01*
X0073030Y0050220D01*
X0073040Y0050378D01*
X0073054Y0050536D01*
X0073072Y0050693D01*
X0073093Y0050850D01*
X0073119Y0051006D01*
X0073149Y0051162D01*
X0073182Y0051317D01*
X0073220Y0051470D01*
X0073261Y0051623D01*
X0073306Y0051775D01*
X0073355Y0051926D01*
X0073408Y0052075D01*
X0073464Y0052223D01*
X0073524Y0052369D01*
X0073588Y0052514D01*
X0073656Y0052657D01*
X0073727Y0052799D01*
X0073801Y0052939D01*
X0073879Y0053076D01*
X0073961Y0053212D01*
X0074045Y0053346D01*
X0074134Y0053477D01*
X0074225Y0053606D01*
X0074320Y0053733D01*
X0074417Y0053858D01*
X0074518Y0053980D01*
X0074622Y0054099D01*
X0074729Y0054216D01*
X0074839Y0054330D01*
X0074952Y0054441D01*
X0075067Y0054550D01*
X0075185Y0054655D01*
X0075306Y0054757D01*
X0075429Y0054857D01*
X0075555Y0054953D01*
X0075683Y0055046D01*
X0075813Y0055136D01*
X0075946Y0055222D01*
X0076081Y0055306D01*
X0076217Y0055385D01*
X0076356Y0055462D01*
X0076497Y0055534D01*
X0076639Y0055604D01*
X0076783Y0055669D01*
X0076929Y0055731D01*
X0077076Y0055789D01*
X0077225Y0055844D01*
X0077375Y0055895D01*
X0077526Y0055942D01*
X0077678Y0055985D01*
X0077831Y0056024D01*
X0077986Y0056060D01*
X0078141Y0056091D01*
X0078297Y0056119D01*
X0078453Y0056143D01*
X0078610Y0056163D01*
X0078768Y0056179D01*
X0078925Y0056191D01*
X0079084Y0056199D01*
X0079242Y0056203D01*
X0079400Y0056203D01*
X0079558Y0056199D01*
X0079717Y0056191D01*
X0079874Y0056179D01*
X0080032Y0056163D01*
X0080189Y0056143D01*
X0080345Y0056119D01*
X0080501Y0056091D01*
X0080656Y0056060D01*
X0080811Y0056024D01*
X0080964Y0055985D01*
X0081116Y0055942D01*
X0081267Y0055895D01*
X0081417Y0055844D01*
X0081566Y0055789D01*
X0081713Y0055731D01*
X0081859Y0055669D01*
X0082003Y0055604D01*
X0082145Y0055534D01*
X0082286Y0055462D01*
X0082425Y0055385D01*
X0082561Y0055306D01*
X0082696Y0055222D01*
X0082829Y0055136D01*
X0082959Y0055046D01*
X0083087Y0054953D01*
X0083213Y0054857D01*
X0083336Y0054757D01*
X0083457Y0054655D01*
X0083575Y0054550D01*
X0083690Y0054441D01*
X0083803Y0054330D01*
X0083913Y0054216D01*
X0084020Y0054099D01*
X0084124Y0053980D01*
X0084225Y0053858D01*
X0084322Y0053733D01*
X0084417Y0053606D01*
X0084508Y0053477D01*
X0084597Y0053346D01*
X0084681Y0053212D01*
X0084763Y0053076D01*
X0084841Y0052939D01*
X0084915Y0052799D01*
X0084986Y0052657D01*
X0085054Y0052514D01*
X0085118Y0052369D01*
X0085178Y0052223D01*
X0085234Y0052075D01*
X0085287Y0051926D01*
X0085336Y0051775D01*
X0085381Y0051623D01*
X0085422Y0051470D01*
X0085460Y0051317D01*
X0085493Y0051162D01*
X0085523Y0051006D01*
X0085549Y0050850D01*
X0085570Y0050693D01*
X0085588Y0050536D01*
X0085602Y0050378D01*
X0085612Y0050220D01*
X0085618Y0050062D01*
X0085620Y0049904D01*
X0085618Y0049746D01*
X0085612Y0049588D01*
X0085602Y0049430D01*
X0085588Y0049272D01*
X0085570Y0049115D01*
X0085549Y0048958D01*
X0085523Y0048802D01*
X0085493Y0048646D01*
X0085460Y0048491D01*
X0085422Y0048338D01*
X0085381Y0048185D01*
X0085336Y0048033D01*
X0085287Y0047882D01*
X0085234Y0047733D01*
X0085178Y0047585D01*
X0085118Y0047439D01*
X0085054Y0047294D01*
X0084986Y0047151D01*
X0084915Y0047009D01*
X0084841Y0046869D01*
X0084763Y0046732D01*
X0084681Y0046596D01*
X0084597Y0046462D01*
X0084508Y0046331D01*
X0084417Y0046202D01*
X0084322Y0046075D01*
X0084225Y0045950D01*
X0084124Y0045828D01*
X0084020Y0045709D01*
X0083913Y0045592D01*
X0083803Y0045478D01*
X0083690Y0045367D01*
X0083575Y0045258D01*
X0083457Y0045153D01*
X0083336Y0045051D01*
X0083213Y0044951D01*
X0083087Y0044855D01*
X0082959Y0044762D01*
X0082829Y0044672D01*
X0082696Y0044586D01*
X0082561Y0044502D01*
X0082425Y0044423D01*
X0082286Y0044346D01*
X0082145Y0044274D01*
X0082003Y0044204D01*
X0081859Y0044139D01*
X0081713Y0044077D01*
X0081566Y0044019D01*
X0081417Y0043964D01*
X0081267Y0043913D01*
X0081116Y0043866D01*
X0080964Y0043823D01*
X0080811Y0043784D01*
X0080656Y0043748D01*
X0080501Y0043717D01*
X0080345Y0043689D01*
X0080189Y0043665D01*
X0080032Y0043645D01*
X0079874Y0043629D01*
X0079717Y0043617D01*
X0079558Y0043609D01*
X0079400Y0043605D01*
X0079242Y0043605D01*
X0079084Y0043609D01*
X0078925Y0043617D01*
X0078768Y0043629D01*
X0078610Y0043645D01*
X0078453Y0043665D01*
X0078297Y0043689D01*
X0078141Y0043717D01*
X0077986Y0043748D01*
X0077831Y0043784D01*
X0077678Y0043823D01*
X0077526Y0043866D01*
X0077375Y0043913D01*
X0077225Y0043964D01*
X0077076Y0044019D01*
X0076929Y0044077D01*
X0076783Y0044139D01*
X0076639Y0044204D01*
X0076497Y0044274D01*
X0076356Y0044346D01*
X0076217Y0044423D01*
X0076081Y0044502D01*
X0075946Y0044586D01*
X0075813Y0044672D01*
X0075683Y0044762D01*
X0075555Y0044855D01*
X0075429Y0044951D01*
X0075306Y0045051D01*
X0075185Y0045153D01*
X0075067Y0045258D01*
X0074952Y0045367D01*
X0074839Y0045478D01*
X0074729Y0045592D01*
X0074622Y0045709D01*
X0074518Y0045828D01*
X0074417Y0045950D01*
X0074320Y0046075D01*
X0074225Y0046202D01*
X0074134Y0046331D01*
X0074045Y0046462D01*
X0073961Y0046596D01*
X0073879Y0046732D01*
X0073801Y0046869D01*
X0073727Y0047009D01*
X0073656Y0047151D01*
X0073588Y0047294D01*
X0073524Y0047439D01*
X0073464Y0047585D01*
X0073408Y0047733D01*
X0073355Y0047882D01*
X0073306Y0048033D01*
X0073261Y0048185D01*
X0073220Y0048338D01*
X0073182Y0048491D01*
X0073149Y0048646D01*
X0073119Y0048802D01*
X0073093Y0048958D01*
X0073072Y0049115D01*
X0073054Y0049272D01*
X0073040Y0049430D01*
X0073030Y0049588D01*
X0073024Y0049746D01*
X0073022Y0049904D01*
X0063573Y0049904D02*
X0063578Y0049523D01*
X0063591Y0049143D01*
X0063614Y0048763D01*
X0063647Y0048384D01*
X0063688Y0048006D01*
X0063738Y0047629D01*
X0063798Y0047253D01*
X0063866Y0046878D01*
X0063944Y0046506D01*
X0064031Y0046135D01*
X0064126Y0045767D01*
X0064231Y0045401D01*
X0064344Y0045038D01*
X0064466Y0044677D01*
X0064596Y0044320D01*
X0064736Y0043966D01*
X0064883Y0043615D01*
X0065040Y0043268D01*
X0065204Y0042925D01*
X0065377Y0042586D01*
X0065558Y0042251D01*
X0065747Y0041920D01*
X0065944Y0041595D01*
X0066148Y0041274D01*
X0066361Y0040958D01*
X0066581Y0040648D01*
X0066808Y0040342D01*
X0067043Y0040043D01*
X0067285Y0039749D01*
X0067533Y0039461D01*
X0067789Y0039179D01*
X0068052Y0038904D01*
X0068321Y0038635D01*
X0068596Y0038372D01*
X0068878Y0038116D01*
X0069166Y0037868D01*
X0069460Y0037626D01*
X0069759Y0037391D01*
X0070065Y0037164D01*
X0070375Y0036944D01*
X0070691Y0036731D01*
X0071012Y0036527D01*
X0071337Y0036330D01*
X0071668Y0036141D01*
X0072003Y0035960D01*
X0072342Y0035787D01*
X0072685Y0035623D01*
X0073032Y0035466D01*
X0073383Y0035319D01*
X0073737Y0035179D01*
X0074094Y0035049D01*
X0074455Y0034927D01*
X0074818Y0034814D01*
X0075184Y0034709D01*
X0075552Y0034614D01*
X0075923Y0034527D01*
X0076295Y0034449D01*
X0076670Y0034381D01*
X0077046Y0034321D01*
X0077423Y0034271D01*
X0077801Y0034230D01*
X0078180Y0034197D01*
X0078560Y0034174D01*
X0078940Y0034161D01*
X0079321Y0034156D01*
X0063573Y0049904D02*
X0063573Y0187699D01*
X0073022Y0187699D02*
X0073024Y0187857D01*
X0073030Y0188015D01*
X0073040Y0188173D01*
X0073054Y0188331D01*
X0073072Y0188488D01*
X0073093Y0188645D01*
X0073119Y0188801D01*
X0073149Y0188957D01*
X0073182Y0189112D01*
X0073220Y0189265D01*
X0073261Y0189418D01*
X0073306Y0189570D01*
X0073355Y0189721D01*
X0073408Y0189870D01*
X0073464Y0190018D01*
X0073524Y0190164D01*
X0073588Y0190309D01*
X0073656Y0190452D01*
X0073727Y0190594D01*
X0073801Y0190734D01*
X0073879Y0190871D01*
X0073961Y0191007D01*
X0074045Y0191141D01*
X0074134Y0191272D01*
X0074225Y0191401D01*
X0074320Y0191528D01*
X0074417Y0191653D01*
X0074518Y0191775D01*
X0074622Y0191894D01*
X0074729Y0192011D01*
X0074839Y0192125D01*
X0074952Y0192236D01*
X0075067Y0192345D01*
X0075185Y0192450D01*
X0075306Y0192552D01*
X0075429Y0192652D01*
X0075555Y0192748D01*
X0075683Y0192841D01*
X0075813Y0192931D01*
X0075946Y0193017D01*
X0076081Y0193101D01*
X0076217Y0193180D01*
X0076356Y0193257D01*
X0076497Y0193329D01*
X0076639Y0193399D01*
X0076783Y0193464D01*
X0076929Y0193526D01*
X0077076Y0193584D01*
X0077225Y0193639D01*
X0077375Y0193690D01*
X0077526Y0193737D01*
X0077678Y0193780D01*
X0077831Y0193819D01*
X0077986Y0193855D01*
X0078141Y0193886D01*
X0078297Y0193914D01*
X0078453Y0193938D01*
X0078610Y0193958D01*
X0078768Y0193974D01*
X0078925Y0193986D01*
X0079084Y0193994D01*
X0079242Y0193998D01*
X0079400Y0193998D01*
X0079558Y0193994D01*
X0079717Y0193986D01*
X0079874Y0193974D01*
X0080032Y0193958D01*
X0080189Y0193938D01*
X0080345Y0193914D01*
X0080501Y0193886D01*
X0080656Y0193855D01*
X0080811Y0193819D01*
X0080964Y0193780D01*
X0081116Y0193737D01*
X0081267Y0193690D01*
X0081417Y0193639D01*
X0081566Y0193584D01*
X0081713Y0193526D01*
X0081859Y0193464D01*
X0082003Y0193399D01*
X0082145Y0193329D01*
X0082286Y0193257D01*
X0082425Y0193180D01*
X0082561Y0193101D01*
X0082696Y0193017D01*
X0082829Y0192931D01*
X0082959Y0192841D01*
X0083087Y0192748D01*
X0083213Y0192652D01*
X0083336Y0192552D01*
X0083457Y0192450D01*
X0083575Y0192345D01*
X0083690Y0192236D01*
X0083803Y0192125D01*
X0083913Y0192011D01*
X0084020Y0191894D01*
X0084124Y0191775D01*
X0084225Y0191653D01*
X0084322Y0191528D01*
X0084417Y0191401D01*
X0084508Y0191272D01*
X0084597Y0191141D01*
X0084681Y0191007D01*
X0084763Y0190871D01*
X0084841Y0190734D01*
X0084915Y0190594D01*
X0084986Y0190452D01*
X0085054Y0190309D01*
X0085118Y0190164D01*
X0085178Y0190018D01*
X0085234Y0189870D01*
X0085287Y0189721D01*
X0085336Y0189570D01*
X0085381Y0189418D01*
X0085422Y0189265D01*
X0085460Y0189112D01*
X0085493Y0188957D01*
X0085523Y0188801D01*
X0085549Y0188645D01*
X0085570Y0188488D01*
X0085588Y0188331D01*
X0085602Y0188173D01*
X0085612Y0188015D01*
X0085618Y0187857D01*
X0085620Y0187699D01*
X0085618Y0187541D01*
X0085612Y0187383D01*
X0085602Y0187225D01*
X0085588Y0187067D01*
X0085570Y0186910D01*
X0085549Y0186753D01*
X0085523Y0186597D01*
X0085493Y0186441D01*
X0085460Y0186286D01*
X0085422Y0186133D01*
X0085381Y0185980D01*
X0085336Y0185828D01*
X0085287Y0185677D01*
X0085234Y0185528D01*
X0085178Y0185380D01*
X0085118Y0185234D01*
X0085054Y0185089D01*
X0084986Y0184946D01*
X0084915Y0184804D01*
X0084841Y0184664D01*
X0084763Y0184527D01*
X0084681Y0184391D01*
X0084597Y0184257D01*
X0084508Y0184126D01*
X0084417Y0183997D01*
X0084322Y0183870D01*
X0084225Y0183745D01*
X0084124Y0183623D01*
X0084020Y0183504D01*
X0083913Y0183387D01*
X0083803Y0183273D01*
X0083690Y0183162D01*
X0083575Y0183053D01*
X0083457Y0182948D01*
X0083336Y0182846D01*
X0083213Y0182746D01*
X0083087Y0182650D01*
X0082959Y0182557D01*
X0082829Y0182467D01*
X0082696Y0182381D01*
X0082561Y0182297D01*
X0082425Y0182218D01*
X0082286Y0182141D01*
X0082145Y0182069D01*
X0082003Y0181999D01*
X0081859Y0181934D01*
X0081713Y0181872D01*
X0081566Y0181814D01*
X0081417Y0181759D01*
X0081267Y0181708D01*
X0081116Y0181661D01*
X0080964Y0181618D01*
X0080811Y0181579D01*
X0080656Y0181543D01*
X0080501Y0181512D01*
X0080345Y0181484D01*
X0080189Y0181460D01*
X0080032Y0181440D01*
X0079874Y0181424D01*
X0079717Y0181412D01*
X0079558Y0181404D01*
X0079400Y0181400D01*
X0079242Y0181400D01*
X0079084Y0181404D01*
X0078925Y0181412D01*
X0078768Y0181424D01*
X0078610Y0181440D01*
X0078453Y0181460D01*
X0078297Y0181484D01*
X0078141Y0181512D01*
X0077986Y0181543D01*
X0077831Y0181579D01*
X0077678Y0181618D01*
X0077526Y0181661D01*
X0077375Y0181708D01*
X0077225Y0181759D01*
X0077076Y0181814D01*
X0076929Y0181872D01*
X0076783Y0181934D01*
X0076639Y0181999D01*
X0076497Y0182069D01*
X0076356Y0182141D01*
X0076217Y0182218D01*
X0076081Y0182297D01*
X0075946Y0182381D01*
X0075813Y0182467D01*
X0075683Y0182557D01*
X0075555Y0182650D01*
X0075429Y0182746D01*
X0075306Y0182846D01*
X0075185Y0182948D01*
X0075067Y0183053D01*
X0074952Y0183162D01*
X0074839Y0183273D01*
X0074729Y0183387D01*
X0074622Y0183504D01*
X0074518Y0183623D01*
X0074417Y0183745D01*
X0074320Y0183870D01*
X0074225Y0183997D01*
X0074134Y0184126D01*
X0074045Y0184257D01*
X0073961Y0184391D01*
X0073879Y0184527D01*
X0073801Y0184664D01*
X0073727Y0184804D01*
X0073656Y0184946D01*
X0073588Y0185089D01*
X0073524Y0185234D01*
X0073464Y0185380D01*
X0073408Y0185528D01*
X0073355Y0185677D01*
X0073306Y0185828D01*
X0073261Y0185980D01*
X0073220Y0186133D01*
X0073182Y0186286D01*
X0073149Y0186441D01*
X0073119Y0186597D01*
X0073093Y0186753D01*
X0073072Y0186910D01*
X0073054Y0187067D01*
X0073040Y0187225D01*
X0073030Y0187383D01*
X0073024Y0187541D01*
X0073022Y0187699D01*
X0063573Y0187699D02*
X0063578Y0188080D01*
X0063591Y0188460D01*
X0063614Y0188840D01*
X0063647Y0189219D01*
X0063688Y0189597D01*
X0063738Y0189974D01*
X0063798Y0190350D01*
X0063866Y0190725D01*
X0063944Y0191097D01*
X0064031Y0191468D01*
X0064126Y0191836D01*
X0064231Y0192202D01*
X0064344Y0192565D01*
X0064466Y0192926D01*
X0064596Y0193283D01*
X0064736Y0193637D01*
X0064883Y0193988D01*
X0065040Y0194335D01*
X0065204Y0194678D01*
X0065377Y0195017D01*
X0065558Y0195352D01*
X0065747Y0195683D01*
X0065944Y0196008D01*
X0066148Y0196329D01*
X0066361Y0196645D01*
X0066581Y0196955D01*
X0066808Y0197261D01*
X0067043Y0197560D01*
X0067285Y0197854D01*
X0067533Y0198142D01*
X0067789Y0198424D01*
X0068052Y0198699D01*
X0068321Y0198968D01*
X0068596Y0199231D01*
X0068878Y0199487D01*
X0069166Y0199735D01*
X0069460Y0199977D01*
X0069759Y0200212D01*
X0070065Y0200439D01*
X0070375Y0200659D01*
X0070691Y0200872D01*
X0071012Y0201076D01*
X0071337Y0201273D01*
X0071668Y0201462D01*
X0072003Y0201643D01*
X0072342Y0201816D01*
X0072685Y0201980D01*
X0073032Y0202137D01*
X0073383Y0202284D01*
X0073737Y0202424D01*
X0074094Y0202554D01*
X0074455Y0202676D01*
X0074818Y0202789D01*
X0075184Y0202894D01*
X0075552Y0202989D01*
X0075923Y0203076D01*
X0076295Y0203154D01*
X0076670Y0203222D01*
X0077046Y0203282D01*
X0077423Y0203332D01*
X0077801Y0203373D01*
X0078180Y0203406D01*
X0078560Y0203429D01*
X0078940Y0203442D01*
X0079321Y0203447D01*
X0079321Y0203448D02*
X0323415Y0203448D01*
X0317116Y0187699D02*
X0317118Y0187857D01*
X0317124Y0188015D01*
X0317134Y0188173D01*
X0317148Y0188331D01*
X0317166Y0188488D01*
X0317187Y0188645D01*
X0317213Y0188801D01*
X0317243Y0188957D01*
X0317276Y0189112D01*
X0317314Y0189265D01*
X0317355Y0189418D01*
X0317400Y0189570D01*
X0317449Y0189721D01*
X0317502Y0189870D01*
X0317558Y0190018D01*
X0317618Y0190164D01*
X0317682Y0190309D01*
X0317750Y0190452D01*
X0317821Y0190594D01*
X0317895Y0190734D01*
X0317973Y0190871D01*
X0318055Y0191007D01*
X0318139Y0191141D01*
X0318228Y0191272D01*
X0318319Y0191401D01*
X0318414Y0191528D01*
X0318511Y0191653D01*
X0318612Y0191775D01*
X0318716Y0191894D01*
X0318823Y0192011D01*
X0318933Y0192125D01*
X0319046Y0192236D01*
X0319161Y0192345D01*
X0319279Y0192450D01*
X0319400Y0192552D01*
X0319523Y0192652D01*
X0319649Y0192748D01*
X0319777Y0192841D01*
X0319907Y0192931D01*
X0320040Y0193017D01*
X0320175Y0193101D01*
X0320311Y0193180D01*
X0320450Y0193257D01*
X0320591Y0193329D01*
X0320733Y0193399D01*
X0320877Y0193464D01*
X0321023Y0193526D01*
X0321170Y0193584D01*
X0321319Y0193639D01*
X0321469Y0193690D01*
X0321620Y0193737D01*
X0321772Y0193780D01*
X0321925Y0193819D01*
X0322080Y0193855D01*
X0322235Y0193886D01*
X0322391Y0193914D01*
X0322547Y0193938D01*
X0322704Y0193958D01*
X0322862Y0193974D01*
X0323019Y0193986D01*
X0323178Y0193994D01*
X0323336Y0193998D01*
X0323494Y0193998D01*
X0323652Y0193994D01*
X0323811Y0193986D01*
X0323968Y0193974D01*
X0324126Y0193958D01*
X0324283Y0193938D01*
X0324439Y0193914D01*
X0324595Y0193886D01*
X0324750Y0193855D01*
X0324905Y0193819D01*
X0325058Y0193780D01*
X0325210Y0193737D01*
X0325361Y0193690D01*
X0325511Y0193639D01*
X0325660Y0193584D01*
X0325807Y0193526D01*
X0325953Y0193464D01*
X0326097Y0193399D01*
X0326239Y0193329D01*
X0326380Y0193257D01*
X0326519Y0193180D01*
X0326655Y0193101D01*
X0326790Y0193017D01*
X0326923Y0192931D01*
X0327053Y0192841D01*
X0327181Y0192748D01*
X0327307Y0192652D01*
X0327430Y0192552D01*
X0327551Y0192450D01*
X0327669Y0192345D01*
X0327784Y0192236D01*
X0327897Y0192125D01*
X0328007Y0192011D01*
X0328114Y0191894D01*
X0328218Y0191775D01*
X0328319Y0191653D01*
X0328416Y0191528D01*
X0328511Y0191401D01*
X0328602Y0191272D01*
X0328691Y0191141D01*
X0328775Y0191007D01*
X0328857Y0190871D01*
X0328935Y0190734D01*
X0329009Y0190594D01*
X0329080Y0190452D01*
X0329148Y0190309D01*
X0329212Y0190164D01*
X0329272Y0190018D01*
X0329328Y0189870D01*
X0329381Y0189721D01*
X0329430Y0189570D01*
X0329475Y0189418D01*
X0329516Y0189265D01*
X0329554Y0189112D01*
X0329587Y0188957D01*
X0329617Y0188801D01*
X0329643Y0188645D01*
X0329664Y0188488D01*
X0329682Y0188331D01*
X0329696Y0188173D01*
X0329706Y0188015D01*
X0329712Y0187857D01*
X0329714Y0187699D01*
X0329712Y0187541D01*
X0329706Y0187383D01*
X0329696Y0187225D01*
X0329682Y0187067D01*
X0329664Y0186910D01*
X0329643Y0186753D01*
X0329617Y0186597D01*
X0329587Y0186441D01*
X0329554Y0186286D01*
X0329516Y0186133D01*
X0329475Y0185980D01*
X0329430Y0185828D01*
X0329381Y0185677D01*
X0329328Y0185528D01*
X0329272Y0185380D01*
X0329212Y0185234D01*
X0329148Y0185089D01*
X0329080Y0184946D01*
X0329009Y0184804D01*
X0328935Y0184664D01*
X0328857Y0184527D01*
X0328775Y0184391D01*
X0328691Y0184257D01*
X0328602Y0184126D01*
X0328511Y0183997D01*
X0328416Y0183870D01*
X0328319Y0183745D01*
X0328218Y0183623D01*
X0328114Y0183504D01*
X0328007Y0183387D01*
X0327897Y0183273D01*
X0327784Y0183162D01*
X0327669Y0183053D01*
X0327551Y0182948D01*
X0327430Y0182846D01*
X0327307Y0182746D01*
X0327181Y0182650D01*
X0327053Y0182557D01*
X0326923Y0182467D01*
X0326790Y0182381D01*
X0326655Y0182297D01*
X0326519Y0182218D01*
X0326380Y0182141D01*
X0326239Y0182069D01*
X0326097Y0181999D01*
X0325953Y0181934D01*
X0325807Y0181872D01*
X0325660Y0181814D01*
X0325511Y0181759D01*
X0325361Y0181708D01*
X0325210Y0181661D01*
X0325058Y0181618D01*
X0324905Y0181579D01*
X0324750Y0181543D01*
X0324595Y0181512D01*
X0324439Y0181484D01*
X0324283Y0181460D01*
X0324126Y0181440D01*
X0323968Y0181424D01*
X0323811Y0181412D01*
X0323652Y0181404D01*
X0323494Y0181400D01*
X0323336Y0181400D01*
X0323178Y0181404D01*
X0323019Y0181412D01*
X0322862Y0181424D01*
X0322704Y0181440D01*
X0322547Y0181460D01*
X0322391Y0181484D01*
X0322235Y0181512D01*
X0322080Y0181543D01*
X0321925Y0181579D01*
X0321772Y0181618D01*
X0321620Y0181661D01*
X0321469Y0181708D01*
X0321319Y0181759D01*
X0321170Y0181814D01*
X0321023Y0181872D01*
X0320877Y0181934D01*
X0320733Y0181999D01*
X0320591Y0182069D01*
X0320450Y0182141D01*
X0320311Y0182218D01*
X0320175Y0182297D01*
X0320040Y0182381D01*
X0319907Y0182467D01*
X0319777Y0182557D01*
X0319649Y0182650D01*
X0319523Y0182746D01*
X0319400Y0182846D01*
X0319279Y0182948D01*
X0319161Y0183053D01*
X0319046Y0183162D01*
X0318933Y0183273D01*
X0318823Y0183387D01*
X0318716Y0183504D01*
X0318612Y0183623D01*
X0318511Y0183745D01*
X0318414Y0183870D01*
X0318319Y0183997D01*
X0318228Y0184126D01*
X0318139Y0184257D01*
X0318055Y0184391D01*
X0317973Y0184527D01*
X0317895Y0184664D01*
X0317821Y0184804D01*
X0317750Y0184946D01*
X0317682Y0185089D01*
X0317618Y0185234D01*
X0317558Y0185380D01*
X0317502Y0185528D01*
X0317449Y0185677D01*
X0317400Y0185828D01*
X0317355Y0185980D01*
X0317314Y0186133D01*
X0317276Y0186286D01*
X0317243Y0186441D01*
X0317213Y0186597D01*
X0317187Y0186753D01*
X0317166Y0186910D01*
X0317148Y0187067D01*
X0317134Y0187225D01*
X0317124Y0187383D01*
X0317118Y0187541D01*
X0317116Y0187699D01*
X0323415Y0203447D02*
X0323796Y0203442D01*
X0324176Y0203429D01*
X0324556Y0203406D01*
X0324935Y0203373D01*
X0325313Y0203332D01*
X0325690Y0203282D01*
X0326066Y0203222D01*
X0326441Y0203154D01*
X0326813Y0203076D01*
X0327184Y0202989D01*
X0327552Y0202894D01*
X0327918Y0202789D01*
X0328281Y0202676D01*
X0328642Y0202554D01*
X0328999Y0202424D01*
X0329353Y0202284D01*
X0329704Y0202137D01*
X0330051Y0201980D01*
X0330394Y0201816D01*
X0330733Y0201643D01*
X0331068Y0201462D01*
X0331399Y0201273D01*
X0331724Y0201076D01*
X0332045Y0200872D01*
X0332361Y0200659D01*
X0332671Y0200439D01*
X0332977Y0200212D01*
X0333276Y0199977D01*
X0333570Y0199735D01*
X0333858Y0199487D01*
X0334140Y0199231D01*
X0334415Y0198968D01*
X0334684Y0198699D01*
X0334947Y0198424D01*
X0335203Y0198142D01*
X0335451Y0197854D01*
X0335693Y0197560D01*
X0335928Y0197261D01*
X0336155Y0196955D01*
X0336375Y0196645D01*
X0336588Y0196329D01*
X0336792Y0196008D01*
X0336989Y0195683D01*
X0337178Y0195352D01*
X0337359Y0195017D01*
X0337532Y0194678D01*
X0337696Y0194335D01*
X0337853Y0193988D01*
X0338000Y0193637D01*
X0338140Y0193283D01*
X0338270Y0192926D01*
X0338392Y0192565D01*
X0338505Y0192202D01*
X0338610Y0191836D01*
X0338705Y0191468D01*
X0338792Y0191097D01*
X0338870Y0190725D01*
X0338938Y0190350D01*
X0338998Y0189974D01*
X0339048Y0189597D01*
X0339089Y0189219D01*
X0339122Y0188840D01*
X0339145Y0188460D01*
X0339158Y0188080D01*
X0339163Y0187699D01*
X0339163Y0049904D01*
X0317116Y0049904D02*
X0317118Y0050062D01*
X0317124Y0050220D01*
X0317134Y0050378D01*
X0317148Y0050536D01*
X0317166Y0050693D01*
X0317187Y0050850D01*
X0317213Y0051006D01*
X0317243Y0051162D01*
X0317276Y0051317D01*
X0317314Y0051470D01*
X0317355Y0051623D01*
X0317400Y0051775D01*
X0317449Y0051926D01*
X0317502Y0052075D01*
X0317558Y0052223D01*
X0317618Y0052369D01*
X0317682Y0052514D01*
X0317750Y0052657D01*
X0317821Y0052799D01*
X0317895Y0052939D01*
X0317973Y0053076D01*
X0318055Y0053212D01*
X0318139Y0053346D01*
X0318228Y0053477D01*
X0318319Y0053606D01*
X0318414Y0053733D01*
X0318511Y0053858D01*
X0318612Y0053980D01*
X0318716Y0054099D01*
X0318823Y0054216D01*
X0318933Y0054330D01*
X0319046Y0054441D01*
X0319161Y0054550D01*
X0319279Y0054655D01*
X0319400Y0054757D01*
X0319523Y0054857D01*
X0319649Y0054953D01*
X0319777Y0055046D01*
X0319907Y0055136D01*
X0320040Y0055222D01*
X0320175Y0055306D01*
X0320311Y0055385D01*
X0320450Y0055462D01*
X0320591Y0055534D01*
X0320733Y0055604D01*
X0320877Y0055669D01*
X0321023Y0055731D01*
X0321170Y0055789D01*
X0321319Y0055844D01*
X0321469Y0055895D01*
X0321620Y0055942D01*
X0321772Y0055985D01*
X0321925Y0056024D01*
X0322080Y0056060D01*
X0322235Y0056091D01*
X0322391Y0056119D01*
X0322547Y0056143D01*
X0322704Y0056163D01*
X0322862Y0056179D01*
X0323019Y0056191D01*
X0323178Y0056199D01*
X0323336Y0056203D01*
X0323494Y0056203D01*
X0323652Y0056199D01*
X0323811Y0056191D01*
X0323968Y0056179D01*
X0324126Y0056163D01*
X0324283Y0056143D01*
X0324439Y0056119D01*
X0324595Y0056091D01*
X0324750Y0056060D01*
X0324905Y0056024D01*
X0325058Y0055985D01*
X0325210Y0055942D01*
X0325361Y0055895D01*
X0325511Y0055844D01*
X0325660Y0055789D01*
X0325807Y0055731D01*
X0325953Y0055669D01*
X0326097Y0055604D01*
X0326239Y0055534D01*
X0326380Y0055462D01*
X0326519Y0055385D01*
X0326655Y0055306D01*
X0326790Y0055222D01*
X0326923Y0055136D01*
X0327053Y0055046D01*
X0327181Y0054953D01*
X0327307Y0054857D01*
X0327430Y0054757D01*
X0327551Y0054655D01*
X0327669Y0054550D01*
X0327784Y0054441D01*
X0327897Y0054330D01*
X0328007Y0054216D01*
X0328114Y0054099D01*
X0328218Y0053980D01*
X0328319Y0053858D01*
X0328416Y0053733D01*
X0328511Y0053606D01*
X0328602Y0053477D01*
X0328691Y0053346D01*
X0328775Y0053212D01*
X0328857Y0053076D01*
X0328935Y0052939D01*
X0329009Y0052799D01*
X0329080Y0052657D01*
X0329148Y0052514D01*
X0329212Y0052369D01*
X0329272Y0052223D01*
X0329328Y0052075D01*
X0329381Y0051926D01*
X0329430Y0051775D01*
X0329475Y0051623D01*
X0329516Y0051470D01*
X0329554Y0051317D01*
X0329587Y0051162D01*
X0329617Y0051006D01*
X0329643Y0050850D01*
X0329664Y0050693D01*
X0329682Y0050536D01*
X0329696Y0050378D01*
X0329706Y0050220D01*
X0329712Y0050062D01*
X0329714Y0049904D01*
X0329712Y0049746D01*
X0329706Y0049588D01*
X0329696Y0049430D01*
X0329682Y0049272D01*
X0329664Y0049115D01*
X0329643Y0048958D01*
X0329617Y0048802D01*
X0329587Y0048646D01*
X0329554Y0048491D01*
X0329516Y0048338D01*
X0329475Y0048185D01*
X0329430Y0048033D01*
X0329381Y0047882D01*
X0329328Y0047733D01*
X0329272Y0047585D01*
X0329212Y0047439D01*
X0329148Y0047294D01*
X0329080Y0047151D01*
X0329009Y0047009D01*
X0328935Y0046869D01*
X0328857Y0046732D01*
X0328775Y0046596D01*
X0328691Y0046462D01*
X0328602Y0046331D01*
X0328511Y0046202D01*
X0328416Y0046075D01*
X0328319Y0045950D01*
X0328218Y0045828D01*
X0328114Y0045709D01*
X0328007Y0045592D01*
X0327897Y0045478D01*
X0327784Y0045367D01*
X0327669Y0045258D01*
X0327551Y0045153D01*
X0327430Y0045051D01*
X0327307Y0044951D01*
X0327181Y0044855D01*
X0327053Y0044762D01*
X0326923Y0044672D01*
X0326790Y0044586D01*
X0326655Y0044502D01*
X0326519Y0044423D01*
X0326380Y0044346D01*
X0326239Y0044274D01*
X0326097Y0044204D01*
X0325953Y0044139D01*
X0325807Y0044077D01*
X0325660Y0044019D01*
X0325511Y0043964D01*
X0325361Y0043913D01*
X0325210Y0043866D01*
X0325058Y0043823D01*
X0324905Y0043784D01*
X0324750Y0043748D01*
X0324595Y0043717D01*
X0324439Y0043689D01*
X0324283Y0043665D01*
X0324126Y0043645D01*
X0323968Y0043629D01*
X0323811Y0043617D01*
X0323652Y0043609D01*
X0323494Y0043605D01*
X0323336Y0043605D01*
X0323178Y0043609D01*
X0323019Y0043617D01*
X0322862Y0043629D01*
X0322704Y0043645D01*
X0322547Y0043665D01*
X0322391Y0043689D01*
X0322235Y0043717D01*
X0322080Y0043748D01*
X0321925Y0043784D01*
X0321772Y0043823D01*
X0321620Y0043866D01*
X0321469Y0043913D01*
X0321319Y0043964D01*
X0321170Y0044019D01*
X0321023Y0044077D01*
X0320877Y0044139D01*
X0320733Y0044204D01*
X0320591Y0044274D01*
X0320450Y0044346D01*
X0320311Y0044423D01*
X0320175Y0044502D01*
X0320040Y0044586D01*
X0319907Y0044672D01*
X0319777Y0044762D01*
X0319649Y0044855D01*
X0319523Y0044951D01*
X0319400Y0045051D01*
X0319279Y0045153D01*
X0319161Y0045258D01*
X0319046Y0045367D01*
X0318933Y0045478D01*
X0318823Y0045592D01*
X0318716Y0045709D01*
X0318612Y0045828D01*
X0318511Y0045950D01*
X0318414Y0046075D01*
X0318319Y0046202D01*
X0318228Y0046331D01*
X0318139Y0046462D01*
X0318055Y0046596D01*
X0317973Y0046732D01*
X0317895Y0046869D01*
X0317821Y0047009D01*
X0317750Y0047151D01*
X0317682Y0047294D01*
X0317618Y0047439D01*
X0317558Y0047585D01*
X0317502Y0047733D01*
X0317449Y0047882D01*
X0317400Y0048033D01*
X0317355Y0048185D01*
X0317314Y0048338D01*
X0317276Y0048491D01*
X0317243Y0048646D01*
X0317213Y0048802D01*
X0317187Y0048958D01*
X0317166Y0049115D01*
X0317148Y0049272D01*
X0317134Y0049430D01*
X0317124Y0049588D01*
X0317118Y0049746D01*
X0317116Y0049904D01*
X0323415Y0034156D02*
X0323796Y0034161D01*
X0324176Y0034174D01*
X0324556Y0034197D01*
X0324935Y0034230D01*
X0325313Y0034271D01*
X0325690Y0034321D01*
X0326066Y0034381D01*
X0326441Y0034449D01*
X0326813Y0034527D01*
X0327184Y0034614D01*
X0327552Y0034709D01*
X0327918Y0034814D01*
X0328281Y0034927D01*
X0328642Y0035049D01*
X0328999Y0035179D01*
X0329353Y0035319D01*
X0329704Y0035466D01*
X0330051Y0035623D01*
X0330394Y0035787D01*
X0330733Y0035960D01*
X0331068Y0036141D01*
X0331399Y0036330D01*
X0331724Y0036527D01*
X0332045Y0036731D01*
X0332361Y0036944D01*
X0332671Y0037164D01*
X0332977Y0037391D01*
X0333276Y0037626D01*
X0333570Y0037868D01*
X0333858Y0038116D01*
X0334140Y0038372D01*
X0334415Y0038635D01*
X0334684Y0038904D01*
X0334947Y0039179D01*
X0335203Y0039461D01*
X0335451Y0039749D01*
X0335693Y0040043D01*
X0335928Y0040342D01*
X0336155Y0040648D01*
X0336375Y0040958D01*
X0336588Y0041274D01*
X0336792Y0041595D01*
X0336989Y0041920D01*
X0337178Y0042251D01*
X0337359Y0042586D01*
X0337532Y0042925D01*
X0337696Y0043268D01*
X0337853Y0043615D01*
X0338000Y0043966D01*
X0338140Y0044320D01*
X0338270Y0044677D01*
X0338392Y0045038D01*
X0338505Y0045401D01*
X0338610Y0045767D01*
X0338705Y0046135D01*
X0338792Y0046506D01*
X0338870Y0046878D01*
X0338938Y0047253D01*
X0338998Y0047629D01*
X0339048Y0048006D01*
X0339089Y0048384D01*
X0339122Y0048763D01*
X0339145Y0049143D01*
X0339158Y0049523D01*
X0339163Y0049904D01*
M02*
