%
M48
M72
T01C0.03937
T02C0.04000
T03C0.12598
%
T01
X87094Y84156
X87094Y94156
X87094Y104156
X87094Y114156
X87094Y124156
X87094Y134156
X87094Y144156
X87094Y154156
T02
X182094Y74156
X192094Y74156
X202094Y74156
X212094Y74156
X222094Y74156
X232094Y74156
X242094Y74156
X252094Y74156
X247094Y49156
X257094Y49156
X267094Y49156
X277094Y49156
X287094Y49156
X237094Y49156
X227094Y49156
X217094Y49156
X293194Y106356
X310994Y106356
X310994Y131956
X293194Y131956
X252094Y164156
X242094Y164156
X232094Y164156
X222094Y164156
X212094Y164156
X202094Y164156
X192094Y164156
X182094Y164156
X217094Y189156
X227094Y189156
X237094Y189156
X247094Y189156
X257094Y189156
X267094Y189156
X277094Y189156
X287094Y189156
T03
X62843Y49904
X62843Y187699
X306937Y187699
X306937Y49904
M30
