%
M48
M72
T01C0.03937
T02C0.04000
T03C0.12598
%
T01
X168573Y84156
X168573Y94156
X168573Y104156
X168573Y114156
X168573Y124156
X168573Y134156
X168573Y144156
X168573Y154156
T02
X198573Y84156
X198573Y94156
X198573Y104156
X198573Y114156
X198573Y124156
X198573Y134156
X198573Y144156
X198573Y154156
X288573Y154156
X288573Y144156
X288573Y134156
X288573Y124156
X288573Y114156
X288573Y104156
X288573Y94156
X288573Y84156
X309673Y106356
X327473Y106356
X327473Y131956
X309673Y131956
T03
X79321Y49904
X79321Y187699
X323415Y187699
X323415Y49904
M30
